<svg width="48" height="48" viewBox="0 0 48 48" fill="none" xmlns="http://www.w3.org/2000/svg">
<path d="M24 48C10.7606 48 0 37.2394 0 24C0 10.7606 10.7606 0 24 0C37.2394 0 48 10.7606 48 24C48 37.2394 37.2394 48 24 48ZM24 2.19055C11.9712 2.19055 2.19055 11.9712 2.19055 24C2.19055 36.0288 11.9712 45.8094 24 45.8094C36.0288 45.8094 45.8094 36.0288 45.8094 24C45.8094 11.9712 36.0288 2.19055 24 2.19055Z" fill="#00B3DC"/>
<path d="M37.989 35.8555C37.989 35.8555 37.5663 35.7979 36.4518 34.4912C37.5663 33.0308 38.2581 31.3015 38.4502 29.476C38.6616 27.6505 38.3734 25.8059 37.624 24.1341C36.8746 22.4624 35.6832 21.0212 34.2036 19.9644C32.7048 18.9075 30.9562 18.2734 29.1308 18.1197C22.636 17.5048 17.0635 23.4808 18.178 29.9372C19.2541 37.3543 28.2469 41.1205 34.2805 36.6049C35.491 37.1237 36.8169 37.239 38.1043 36.9316C38.2196 36.8931 38.3349 36.8163 38.3926 36.701C38.4502 36.5857 38.4886 36.4704 38.4694 36.3359C38.4694 36.2014 38.3926 36.0861 38.2965 36.0092C38.2004 35.9132 38.0851 35.8747 37.9506 35.8555H37.989ZM31.8401 34.6642H27.0363C26.1908 34.7026 25.7489 34.3183 25.1724 34.1453C24.8649 34.4528 24.5191 34.6834 24.1348 34.8563C23.7505 35.01 23.3277 35.1061 22.905 35.1061H22.3093C21.8866 35.1061 21.4638 34.9332 21.1756 34.6257C20.8682 34.3183 20.6952 33.9148 20.6952 33.492V25.7674C20.6952 25.3447 20.8682 24.922 21.1756 24.6337C21.483 24.3263 21.8866 24.1533 22.3093 24.1533H22.905C23.3661 24.1533 23.8081 24.2494 24.2308 24.4416C24.6536 24.6337 25.0187 24.9027 25.3261 25.2486C26.6712 24.6722 27.0363 22.1357 26.8633 21.3095C26.8249 20.9444 26.8633 20.5601 27.0171 20.2142C27.1708 19.8683 27.4014 19.5801 27.7088 19.3687C29.7264 17.966 32.0899 20.5985 31.8786 21.9051V24.5953H33.7617C34.1652 24.5953 34.5687 24.6914 34.9338 24.8451C35.2989 25.018 35.6256 25.2678 35.8946 25.5753C36.1636 25.8827 36.3557 26.2478 36.471 26.6321C36.5863 27.0164 36.6055 27.4392 36.5479 27.8427L36.1059 30.994C35.9522 32.0124 35.4334 32.954 34.6648 33.6265C33.877 34.2991 32.8778 34.6834 31.8401 34.6834V34.6642Z" fill="#0CB0E6"/>
<path d="M28.2845 17.0054C28.2845 17.0054 28.3998 17.0054 28.4574 17.0054C28.0539 15.5451 27.343 14.2 26.363 13.0471C25.383 11.8941 24.1724 10.9718 22.7889 10.3569C21.4054 9.74202 19.9258 9.43457 18.4078 9.45379C16.8898 9.47301 15.4102 9.8381 14.0651 10.5106C12.7008 11.1832 11.5287 12.1247 10.5872 13.3161C9.6456 14.4882 8.97306 15.8717 8.62718 17.3321C8.28131 18.7925 8.26209 20.3297 8.56954 21.8093C8.87698 23.2889 9.51109 24.6724 10.4142 25.8829C9.28051 27.1896 8.87698 27.2472 8.87698 27.2472C8.74248 27.2472 8.62718 27.2857 8.51189 27.3817C8.41581 27.4778 8.35817 27.5931 8.33895 27.7276C8.16602 28.7652 11.2789 28.6307 12.5663 27.9966C13.8922 28.9574 15.4294 29.5915 17.0435 29.8413C16.0251 23.2312 21.5783 16.8901 28.2653 17.0246L28.2845 17.0054ZM12.6624 14.8533H21.2901C21.4246 14.8533 21.5591 14.911 21.6744 15.007C21.7705 15.1031 21.8281 15.2376 21.8281 15.3913C21.8281 15.5451 21.7705 15.6604 21.6744 15.7756C21.5783 15.8717 21.4438 15.9294 21.2901 15.9294H12.6624C12.5279 15.9294 12.3934 15.8717 12.2781 15.7756C12.182 15.6796 12.1244 15.5451 12.1244 15.3913C12.1244 15.2376 12.182 15.1223 12.2781 15.007C12.3742 14.911 12.5087 14.8533 12.6624 14.8533ZM12.6624 18.0815H20.5791C20.7137 18.0815 20.8482 18.1391 20.9635 18.2352C21.0595 18.3313 21.1172 18.4658 21.1172 18.6195C21.1172 18.7732 21.0595 18.8885 20.9635 19.0038C20.8674 19.0999 20.7329 19.1576 20.5791 19.1576H12.6624C12.5279 19.1576 12.3934 19.0999 12.2781 19.0038C12.182 18.9078 12.1244 18.7732 12.1244 18.6195C12.1244 18.4658 12.182 18.3505 12.2781 18.2352C12.3742 18.1391 12.5087 18.0815 12.6624 18.0815ZM12.6624 21.3097H17.7161C17.8506 21.3097 17.9851 21.3673 18.1004 21.4634C18.1964 21.5595 18.2541 21.694 18.2541 21.8477C18.2541 22.0014 18.1964 22.1167 18.1004 22.232C18.0043 22.3281 17.8698 22.3857 17.7161 22.3857H12.6624C12.5279 22.3857 12.3934 22.3281 12.2781 22.232C12.182 22.1359 12.1244 22.0014 12.1244 21.8477C12.1244 21.694 12.182 21.5787 12.2781 21.4634C12.3742 21.3673 12.5087 21.3097 12.6624 21.3097Z" fill="#0CB0E6"/>
<path d="M33.7608 25.6522H30.8017V21.886C30.8017 21.3864 30.5519 20.6754 29.3797 20.1182C29.2068 20.0413 29.0338 20.0221 28.8417 20.0221C28.6688 20.0221 28.4958 20.099 28.3421 20.2142C28.1884 20.3295 28.0731 20.464 27.9962 20.637C27.9194 20.8099 27.9001 20.9829 27.9194 21.175C28.0346 22.2895 27.8617 23.404 27.4005 24.4224C27.0931 25.1526 26.5551 25.7675 25.8633 26.171C26.017 26.5553 26.1131 26.9781 26.1131 27.4008V31.8972C26.1131 32.3584 26.017 32.8387 25.8057 33.2615C26.1708 33.4921 26.5935 33.6266 27.0162 33.6266H31.8201C32.5887 33.6266 33.3573 33.3383 33.9338 32.8387C34.5294 32.3391 34.9137 31.6282 35.029 30.8596L35.471 27.7082C35.5094 27.4584 35.471 27.2086 35.4134 26.9588C35.3365 26.709 35.2212 26.4977 35.0483 26.3055C34.8753 26.1134 34.6832 25.9596 34.4526 25.8636C34.222 25.7675 33.9722 25.7098 33.7224 25.7098L33.7608 25.6522Z" fill="#0CB0E6"/>
<path d="M22.8857 25.2295H22.29C22.1555 25.2295 22.0018 25.2871 21.9057 25.3832C21.8096 25.4793 21.752 25.6138 21.752 25.7675V33.4921C21.752 33.6266 21.8096 33.7803 21.9057 33.8764C22.0018 33.9725 22.1363 34.0301 22.29 34.0301C23.6735 34.2031 25.0378 33.3576 25.0378 31.878V27.3816C25.0378 26.8052 24.8072 26.2671 24.4037 25.8636C24.0002 25.4601 23.4621 25.2295 22.8857 25.2295Z" fill="#FFDD00"/>
</svg>
