<svg width="48" height="48" viewBox="0 0 48 48" fill="none" xmlns="http://www.w3.org/2000/svg">
<path d="M23.9808 0C10.7646 0 0 10.7606 0 24C0 37.2394 10.7646 48 24 48C37.2354 48 48 37.2394 48 24C48 10.7606 37.2163 0 23.9808 0ZM43.0008 34.8375C39.2275 41.4283 32.1213 45.8863 23.9808 45.8863C15.8404 45.8863 8.75339 41.4283 4.96089 34.8375L3.90742 32.743C2.73903 30.0721 2.08779 27.0937 2.08779 24C2.08779 19.6958 3.3328 15.6797 5.47805 12.2978L9.27055 16.4099L10.3432 15.2954C13.9633 11.5869 18.8093 9.55004 23.9617 9.55004C28.7885 9.55004 33.3472 11.3563 36.8907 14.6037L34.8603 16.8711C31.9106 14.1425 28.0032 12.5861 23.9617 12.5861C19.5563 12.5861 15.2849 14.45 12.2586 17.6589L11.6073 18.3699L16.5108 23.8078L17.2961 22.9047C18.9625 20.964 21.3951 19.8303 23.9617 19.8303C26.2219 19.8303 28.3671 20.695 29.9952 22.2322L28.6544 23.731C27.3903 22.5396 25.7239 21.8479 23.9808 21.8479C21.7973 21.8479 19.7287 22.9047 18.4645 24.711L20.1692 25.9215C21.0503 24.6725 22.4677 23.9424 23.9808 23.9424C25.494 23.9424 26.9114 24.6725 27.7925 25.9215L28.5587 26.9784L32.8492 22.213L32.2554 21.502C30.1676 19.1001 27.1604 17.6974 24 17.6974C21.2227 17.6974 18.5794 18.7542 16.5682 20.6373L14.5379 18.3699C17.1045 15.9872 20.514 14.6421 24.0192 14.6421C27.85 14.6421 31.5467 16.237 34.1708 19.0616L34.9561 19.9071L39.8404 14.5076L39.1508 13.7966C35.1285 9.68455 29.7654 7.41713 24.0192 7.41713C18.2729 7.41713 13.3312 9.51161 9.36632 13.3355L6.76137 10.5108C10.7454 5.39952 16.9705 2.09448 23.9808 2.09448C36.0479 2.09448 45.8739 11.9135 45.8739 23.9808C45.8739 27.0937 45.2227 30.0336 44.0543 32.7238L43.0008 34.8183V34.8375Z" fill="#00B3DC"/>
<path d="M25.9737 28.8997L23.8093 33.8957L25.3799 33.6459C25.8204 33.569 26.1269 34.011 25.9353 34.4145L23.1006 39.9678C23.0048 40.1599 22.6983 40.0638 22.7366 39.8333L23.8093 35.529L21.9322 35.8365C21.7023 35.8749 21.4916 35.6635 21.5299 35.4329L22.6217 28.9381C22.66 28.6883 22.8707 28.4962 23.1197 28.4385L25.3416 28.0735C25.8013 27.9966 26.1843 28.4578 25.9928 28.8997" fill="#FFDD00"/>
</svg>
