<svg width="48" height="48" viewBox="0 0 48 48" fill="none" xmlns="http://www.w3.org/2000/svg">
<path d="M24 48C10.7606 48 0 37.2394 0 24C0 10.7606 10.7606 0 24 0C37.2394 0 48 10.7606 48 24C48 37.2394 37.2394 48 24 48ZM24 2.19055C11.9712 2.19055 2.19055 11.9712 2.19055 24C2.19055 36.0288 11.9712 45.8094 24 45.8094C36.0288 45.8094 45.8094 36.0288 45.8094 24C45.8094 11.9712 36.0288 2.19055 24 2.19055Z" fill="#00B3DC"/>
<path d="M32.0306 26.8241C32.2802 26.8241 32.4914 26.6129 32.4914 26.3633C32.4914 26.1137 32.2802 25.9025 32.0306 25.9025C31.781 25.9025 31.5698 26.1137 31.5698 26.3633C31.5698 26.6129 31.781 26.8241 32.0306 26.8241Z" fill="#00B3DC"/>
<path d="M37.9495 23.6351H30.6668C30.6668 23.6351 30.5323 23.6351 30.4747 23.6736C30.417 23.712 30.3594 23.7504 30.321 23.8081L28.4955 26.0755C28.4955 26.0755 28.3994 26.2484 28.3994 26.3637C28.3994 26.479 28.4378 26.5751 28.4955 26.6519L30.321 28.9386C30.321 28.9386 30.417 29.0347 30.4747 29.0731C30.5323 29.1115 30.6092 29.1115 30.6668 29.1115H37.0463C37.4114 29.1115 37.7573 28.9578 38.0071 28.708C38.2569 28.4582 38.4106 28.1123 38.4106 27.7472V24.0963C38.4106 23.981 38.3722 23.8657 38.2761 23.7696C38.1993 23.6928 38.084 23.6351 37.9495 23.6351ZM32.0311 27.728C31.7621 27.728 31.4931 27.6511 31.2817 27.4974C31.0511 27.3437 30.8782 27.1323 30.7821 26.8825C30.686 26.6327 30.6476 26.3637 30.7053 26.0947C30.7629 25.8257 30.8974 25.5951 31.0704 25.4029C31.2625 25.2108 31.5123 25.0763 31.7621 25.0379C32.0311 24.9802 32.3001 25.0186 32.5499 25.1147C32.7997 25.2108 33.0111 25.3837 33.1648 25.6143C33.3185 25.8449 33.3954 26.0947 33.3954 26.3637C33.3954 26.7288 33.2609 27.0747 32.9919 27.3245C32.7421 27.5743 32.3962 27.728 32.0311 27.728Z" fill="#0CB0E6"/>
<path d="M12.8542 16.4293C12.8734 16.5254 12.931 16.6215 13.0079 16.6983C13.0847 16.7752 13.2 16.7944 13.2961 16.7944H32.7997C32.7997 16.7944 32.9534 16.7944 33.0111 16.7368C33.0687 16.6791 33.1264 16.6599 33.184 16.583C33.2224 16.5254 33.2609 16.4485 33.2609 16.3717C33.2609 16.2948 33.2609 16.218 33.2224 16.1603L30.5899 9.49258C30.5515 9.37728 30.4554 9.30042 30.3401 9.24278C30.2825 9.22356 30.2248 9.20435 30.1672 9.20435C30.1096 9.20435 30.0519 9.20435 29.9943 9.24278L13.104 15.8913C13.0079 15.9297 12.931 16.0066 12.8734 16.1027C12.8157 16.1987 12.7965 16.2948 12.8349 16.4101L12.8542 16.4293ZM20.3097 14.5654L29.2449 11.0298C29.2449 11.0298 29.3602 10.9914 29.4178 10.9914C29.4754 10.9914 29.5331 10.9914 29.5907 11.0298C29.706 11.0682 29.7829 11.1643 29.8405 11.2796L31.2048 14.796C31.2433 14.9113 31.2433 15.0266 31.2048 15.1419C31.1664 15.2572 31.0703 15.3341 30.955 15.3917C30.8397 15.4301 30.7244 15.4301 30.6092 15.3917C30.4939 15.3533 30.417 15.2572 30.3594 15.1419L29.168 12.0482L20.6556 15.4109C20.6556 15.4109 20.5403 15.4493 20.4827 15.4493C20.3674 15.4493 20.2713 15.4109 20.1944 15.3533C20.1176 15.2956 20.0599 15.1995 20.0407 15.0842C20.0215 14.9882 20.0407 14.8729 20.0983 14.7768C20.156 14.6807 20.2329 14.6039 20.3289 14.5654H20.3097Z" fill="#FFDD00"/>
<path d="M37.0469 21.8096V23.1728H37.9493C38.1029 23.1728 38.2757 23.2112 38.4101 23.3072V23.1728C38.4101 22.808 38.2757 22.4624 38.0069 22.2128C37.7573 21.9632 37.4117 21.8096 37.0469 21.8096Z" fill="#0CB0E6"/>
<path d="M11.9128 18.5624C12.0858 18.6008 12.2779 18.6392 12.4701 18.6392H34.318C34.6831 18.6392 35.0289 18.7737 35.2787 19.0428C35.5285 19.2926 35.6822 19.6384 35.6822 20.0035C35.6822 20.1188 35.7399 20.2341 35.8168 20.3302C35.8936 20.4263 36.0089 20.4647 36.1434 20.4647C36.2779 20.4647 36.374 20.4263 36.4701 20.3302C36.5469 20.2533 36.6046 20.138 36.6046 20.0035V16.3526C36.6046 15.7569 36.374 15.1613 35.9321 14.7385C35.5093 14.3158 34.9328 14.066 34.318 14.066H32.896L33.6646 16.0067C33.7223 16.1412 33.7415 16.295 33.7223 16.4487C33.7223 16.6024 33.6646 16.7369 33.5686 16.8522C33.4917 16.9675 33.3764 17.0828 33.2419 17.1404C33.1074 17.2173 32.9729 17.2557 32.8192 17.2557H13.2963C13.085 17.2557 12.8736 17.1789 12.7199 17.0444C12.5662 16.9099 12.4509 16.7177 12.4124 16.5063C12.374 16.295 12.4124 16.0836 12.5085 15.8914C12.6046 15.6993 12.7775 15.5648 12.9697 15.4879L16.6206 14.066H12.5469C11.9897 14.066 11.4325 14.2389 11.0097 14.604C10.587 14.9691 10.2987 15.4687 10.2219 16.0259C10.145 16.5832 10.2795 17.1404 10.587 17.6208C10.8944 18.082 11.3748 18.4279 11.9321 18.5624H11.9128Z" fill="#0CB0E6"/>
<path d="M29.9562 23.5197C30.0331 23.4237 30.1484 23.3276 30.2637 23.2699C30.3789 23.2123 30.5135 23.1739 30.6672 23.1739H36.5855V20.7719C36.451 20.8488 36.2973 20.8872 36.1243 20.8872C35.9514 20.8872 35.8169 20.8488 35.6632 20.7719C35.5287 20.6951 35.4134 20.5798 35.3365 20.4453C35.2597 20.3108 35.2212 20.157 35.2212 19.9841C35.2212 19.7343 35.1251 19.5037 34.9522 19.35C34.7793 19.1771 34.5487 19.081 34.2989 19.081H12.4702C12.2396 19.081 12.0283 19.0618 11.7977 19.0041C11.1444 18.8312 10.5679 18.4277 10.1836 17.8512V32.7431C10.1836 33.3388 10.4142 33.9345 10.8561 34.3572C11.0675 34.5686 11.3173 34.7415 11.5863 34.8568C11.8553 34.9721 12.1628 35.0297 12.451 35.0297H34.2989C34.8946 35.0297 35.4902 34.7799 35.913 34.3572C36.3357 33.9345 36.5855 33.358 36.5855 32.7431V29.5534H30.6672C30.5327 29.5534 30.3982 29.5149 30.2637 29.4573C30.1484 29.3996 30.0331 29.3036 29.9562 29.2075L28.1308 26.9401C27.9962 26.7863 27.9386 26.575 27.9386 26.3636C27.9386 26.1522 28.0155 25.9601 28.1308 25.7871L29.9562 23.5005V23.5197ZM24.8641 31.7439H17.7352V30.7063C21.732 25.8256 22.4622 24.9993 22.4622 23.8848C22.4622 22.7703 21.732 22.1939 20.7136 22.1939C20.1756 22.1939 19.7336 22.3284 19.2725 22.559L19.1187 24.1538L17.7352 24.0578V21.579C18.8113 20.9641 19.8489 20.7143 20.9058 20.7143C23.423 20.7143 24.6528 22.0017 24.6528 23.8464C24.6528 25.3068 23.9418 26.2099 20.4638 30.3412H23.3653L23.4806 29.2651L24.8641 29.1691V31.7439Z" fill="#0CB0E6"/>
</svg>
