<svg width="135" height="32" viewBox="0 0 135 32" fill="none" xmlns="http://www.w3.org/2000/svg">
<path d="M46.2748 11.2308L43.6734 14.5077L41.0719 11.2308H39V19.7231H41.3022V14.6923L43.6734 17.6692L46.0446 14.6923V19.7231H48.3468V11.2308H46.2978H46.2748ZM52.6978 11.2308V19.7231H59.305V17.6692H55V16.4462H58.2V14.5077H55V13.2846H59.1899V11.2308H52.6978ZM116.698 11.2308V13.2846H119.069V19.7231H121.371V13.2846H123.742V11.2308H116.721H116.698ZM132.514 11.2308L130.718 17.1846H130.672L128.876 11.2308H126.39L129.429 19.7231H131.961L135 11.2308H132.514ZM62.436 15.5C62.436 17.9923 64.4388 20 67.1554 20C68.3986 20 69.3424 19.5846 69.964 19.1462C70.3324 18.8923 70.6547 18.6154 70.9079 18.2923V15.0154H67.2705V16.7231H68.6748V17.3923C68.5597 17.4846 68.4216 17.5538 68.2835 17.6462C68.0302 17.7846 67.6618 17.8769 67.1784 17.8769C65.8431 17.8769 64.8072 16.8385 64.8072 15.5C64.8072 14.1615 65.8431 13.1462 67.1784 13.1462C67.846 13.1462 68.3985 13.4231 68.7899 13.7C69.0201 13.8615 69.2273 14.0462 69.4115 14.2538L70.7928 12.6846C70.5396 12.3846 70.2403 12.1077 69.895 11.8769C69.2734 11.4615 68.3755 11.0462 67.1784 11.0462C64.4618 11.0462 62.459 13.0538 62.459 15.5462M76.8475 15.5C76.8475 14.1846 77.8835 13.1462 79.2187 13.1462C80.554 13.1462 81.5899 14.1846 81.5899 15.5C81.5899 16.8154 80.554 17.8769 79.2187 17.8769C77.8835 17.8769 76.8475 16.8385 76.8475 15.5ZM74.4993 15.5C74.4993 17.9923 76.5022 20 79.2187 20C81.9353 20 83.9381 17.9923 83.9381 15.5C83.9381 13.0077 81.9353 11 79.2187 11C76.5022 11 74.4993 13.0077 74.4993 15.5ZM87.3223 15.5C87.3223 17.9923 89.3252 20 92.0417 20C93.2849 20 94.2288 19.5846 94.8503 19.1462C95.2187 18.8923 95.541 18.6154 95.7942 18.2923V15.0154H92.1568V16.7231H93.5381V17.3923C93.423 17.4846 93.2849 17.5538 93.1467 17.6462C92.8935 17.7846 92.5252 17.8769 92.0187 17.8769C90.6835 17.8769 89.6475 16.8385 89.6475 15.5C89.6475 14.1615 90.6835 13.1462 92.0187 13.1462C92.7094 13.1462 93.2388 13.4231 93.6532 13.7C93.8834 13.8615 94.0906 14.0462 94.2748 14.2538L95.6561 12.6846C95.4029 12.3846 95.1036 12.1077 94.7583 11.8769C94.1367 11.4615 93.2388 11.0462 92.0417 11.0462C89.3252 11.0462 87.3223 13.0538 87.3223 15.5462M101.734 15.5C101.734 14.1846 102.77 13.1462 104.105 13.1462C105.44 13.1462 106.476 14.1846 106.476 15.5C106.476 16.8154 105.44 17.8769 104.105 17.8769C102.77 17.8769 101.734 16.8385 101.734 15.5ZM99.3856 15.5C99.3856 17.9923 101.388 20 104.105 20C106.822 20 108.824 17.9923 108.824 15.5C108.824 13.0077 106.822 11 104.105 11C101.388 11 99.3856 13.0077 99.3856 15.5Z" fill="white"/>
<path d="M16.0489 0C7.20401 0 0 7.17207 0 16C0 24.8279 7.194 32 16.0489 32C24.9039 32 32.0979 24.8279 32.0979 16C32.0979 7.17207 24.8939 0 16.0489 0ZM4.50251 7.02244C7.184 3.601 11.3563 1.39651 16.0389 1.39651C24.1134 1.39651 30.6771 7.94015 30.6771 15.99C30.6771 18.0648 30.2368 20.0299 29.4564 21.8155L28.746 23.212C26.2246 27.611 21.4719 30.5736 16.0289 30.5736C10.5859 30.5736 5.84325 27.601 3.31184 23.212L2.60144 21.8155C1.82101 20.0299 1.38076 18.0549 1.38076 15.99C1.38076 13.1272 2.21123 10.4439 3.65203 8.18953L4.48249 7.02244H4.50251Z" fill="white"/>
<path d="M6.99438 15.6699C6.99438 12.7872 6.99438 11.3507 7.73479 10.6126C8.04497 10.2934 8.43519 10.0739 8.86543 9.95424C9.87599 9.68491 11.1267 10.3931 13.6281 11.8196L13.8382 11.9393C14.7587 12.458 15.219 12.7173 15.7092 12.7872C15.9294 12.8171 16.1495 12.8171 16.3696 12.7872C16.8599 12.7273 17.3201 12.458 18.2406 11.9393L18.4508 11.8196C20.9522 10.3931 22.2029 9.68491 23.2134 9.95424C23.6437 10.0739 24.0339 10.2934 24.344 10.6126C25.0845 11.3507 25.0845 12.7971 25.0845 15.6699V17.7148C25.0845 19.64 25.0845 20.6076 24.6242 21.2959C24.4241 21.5951 24.1639 21.8545 23.8638 22.054C23.1734 22.5128 22.2028 22.5128 20.2718 22.5128H11.7971C9.86598 22.5128 8.90545 22.5128 8.20506 22.054C7.90489 21.8545 7.64475 21.5951 7.44464 21.2959C6.98438 20.6076 6.98438 19.64 6.98438 17.7148V15.6699H6.99438Z" fill="white"/>
<path d="M5.46298 16.3596L4.62252 15.1925H3.95215V17.9356H4.70257V16.3396L5.473 17.3471L6.24342 16.3396V17.9356H6.99384V15.1925H6.32346L5.483 16.3596H5.46298ZM8.67478 15.1925V17.9356H11.0061V17.2872H9.4252V16.8783H10.6959V16.2498H9.4252V15.8409H11.0061V15.2024H8.67478V15.1925ZM13.8677 16.2698V16.8483H14.5981C14.5981 16.8483 14.498 17.3271 13.8877 17.3271C13.4574 17.3271 13.1173 16.988 13.1173 16.5591C13.1173 16.1301 13.4474 15.791 13.8877 15.791C14.1078 15.791 14.2879 15.8808 14.418 15.9705C14.488 16.0204 14.5581 16.0803 14.6181 16.1501L15.0683 15.6413C14.9883 15.5416 14.8882 15.4618 14.7782 15.382C14.5781 15.2423 14.2879 15.1127 13.8977 15.1127C13.0172 15.1127 12.3668 15.7611 12.3668 16.5591C12.3668 17.3571 13.0172 18.0054 13.8977 18.0054C15.1684 18.0054 15.4385 17.0079 15.3785 16.2598H13.8877L13.8677 16.2698ZM22.3224 16.2698V16.8483H23.0528C23.0528 16.8483 22.9527 17.3271 22.3324 17.3271C21.9021 17.3271 21.562 16.988 21.562 16.5591C21.562 16.1301 21.8921 15.791 22.3324 15.791C22.5525 15.791 22.7326 15.8808 22.8627 15.9705C22.9327 16.0204 23.0028 16.0803 23.0628 16.1501L23.5131 15.6413C23.433 15.5416 23.3329 15.4618 23.2229 15.382C23.0228 15.2423 22.7326 15.1127 22.3424 15.1127C21.4619 15.1127 20.8115 15.7611 20.8115 16.5591C20.8115 17.3571 21.4619 18.0054 22.3424 18.0054C23.6131 18.0054 23.8833 17.0079 23.8232 16.2598H22.3224V16.2698ZM18.09 15.1127C17.2095 15.1127 16.5592 15.7611 16.5592 16.5591C16.5592 17.3571 17.2095 18.0054 18.09 18.0054C18.9705 18.0054 19.6209 17.3571 19.6209 16.5591C19.6209 15.7611 18.9705 15.1127 18.09 15.1127ZM18.09 17.3271C17.6598 17.3271 17.3196 16.988 17.3196 16.5591C17.3196 16.1301 17.6598 15.791 18.09 15.791C18.5203 15.791 18.8604 16.1202 18.8604 16.5591C18.8604 16.998 18.5203 17.3271 18.09 17.3271ZM26.6048 15.1127C25.7243 15.1127 25.0739 15.7611 25.0739 16.5591C25.0739 17.3571 25.7243 18.0054 26.6048 18.0054C27.4853 18.0054 28.1356 17.3571 28.1356 16.5591C28.1356 15.7611 27.4853 15.1127 26.6048 15.1127ZM26.6048 17.3271C26.1745 17.3271 25.8343 16.988 25.8343 16.5591C25.8343 16.1301 26.1745 15.791 26.6048 15.791C27.035 15.791 27.3752 16.1202 27.3752 16.5591C27.3752 16.998 27.035 17.3271 26.6048 17.3271Z" fill="#00B3DC"/>
<path d="M16.0489 0C7.20401 0 0 7.17207 0 16C0 24.8279 7.194 32 16.0489 32C24.9039 32 32.0979 24.8279 32.0979 16C32.0979 7.17207 24.8939 0 16.0489 0ZM4.50251 7.02244C7.184 3.601 11.3563 1.39651 16.0389 1.39651C24.1134 1.39651 30.6771 7.94015 30.6771 15.99C30.6771 18.0648 30.2368 20.0299 29.4564 21.8155L28.746 23.212C26.2246 27.611 21.4719 30.5736 16.0289 30.5736C10.5859 30.5736 5.84325 27.601 3.31184 23.212L2.60144 21.8155C1.82101 20.0299 1.38076 18.0549 1.38076 15.99C1.38076 13.1272 2.21123 10.4439 3.65203 8.18953L4.48249 7.02244H4.50251Z" fill="#00B3DC"/>
</svg>
