<svg width="127" height="32" viewBox="0 0 127 32" fill="none" xmlns="http://www.w3.org/2000/svg">
<path d="M23.553 8.96722C21.632 6.83255 18.4204 6.40363 16.0092 7.95974C14.8186 8.72782 13.9982 9.78517 13.588 11.1418C13.0277 13.0071 13.3478 14.7528 14.4684 16.3687C14.4284 16.3986 14.3884 16.4186 14.3583 16.4485C13.8181 16.9872 13.2778 17.5258 12.7475 18.0545C12.5274 18.274 12.4274 18.5433 12.4874 18.8525C12.5574 19.1917 12.7576 19.4211 13.0877 19.5208C13.4279 19.6206 13.718 19.5408 13.9682 19.2914C14.5084 18.7528 15.0487 18.2141 15.589 17.6754C15.619 17.6455 15.639 17.5956 15.659 17.5557C18.4204 19.5408 21.9122 18.7827 23.7131 16.5782C25.514 14.3737 25.494 11.1318 23.543 8.96722M22.3023 15.5408C20.8216 17.2465 18.4504 17.3163 16.9697 16.3089C17.1998 16.0794 17.4299 15.86 17.65 15.6306C18.1102 15.1617 17.9101 14.3837 17.2798 14.1842C16.9496 14.0844 16.6495 14.1642 16.4094 14.4036C16.2093 14.5932 16.0192 14.7827 15.8291 14.9822C15.7991 15.0121 15.7691 15.042 15.729 15.072C14.8086 13.7652 14.7185 11.4809 16.3193 9.92482C17.8801 8.39864 20.4114 8.38866 22.0022 9.88492C23.613 11.4011 23.7231 13.8949 22.3023 15.5408ZM12.4474 15.6106C12.2673 14.9622 11.4769 14.7528 10.9967 15.2216C10.6665 15.5408 10.3463 15.87 10.0262 16.1892C9.13572 17.0769 8.23527 17.9747 7.34483 18.8625C7.16474 19.042 7.05469 19.2515 7.05469 19.5208C7.05469 19.5807 7.05468 19.6405 7.07469 19.7004C7.15473 20.0296 7.35483 20.259 7.67499 20.3488C8.00516 20.4485 8.30531 20.3687 8.54543 20.1293C8.86559 19.8201 9.17575 19.5009 9.4859 19.1917C10.3964 18.2839 11.3068 17.3762 12.2073 16.4784C12.4474 16.239 12.5274 15.9498 12.4374 15.6206M15.599 19.7902C15.4689 19.9099 15.3489 20.0395 15.2288 20.1592C14.1382 21.2465 13.0377 22.3438 11.9471 23.4311C11.7671 23.6106 11.657 23.8201 11.657 24.1094C11.657 24.239 11.687 24.3687 11.757 24.4984C12.0372 25.0171 12.7275 25.1168 13.1477 24.6979C14.0482 23.8001 14.9587 22.9024 15.8591 21.9946C16.1893 21.6655 16.5194 21.3463 16.8396 21.0171C17.0697 20.7777 17.1398 20.4984 17.0597 20.1792C16.8896 19.5408 16.0992 19.3213 15.619 19.7802" fill="#00B3DC"/>
<path d="M16.0481 0C7.20362 0 0 7.17207 0 16C0 24.8279 7.19361 32 16.0481 32C24.9025 32 32.0961 24.8279 32.0961 16C32.0961 7.17207 24.8925 0 16.0481 0ZM4.50226 7.02244C7.18361 3.601 11.3557 1.39651 16.0381 1.39651C24.1121 1.39651 30.6754 7.94015 30.6754 15.99C30.6754 18.0648 30.2352 20.0299 29.4548 21.8155L28.7444 23.212C26.2232 27.611 21.4708 30.5736 16.028 30.5736C10.5853 30.5736 5.84294 27.601 3.31166 23.212L2.6013 21.8155C1.82091 20.0299 1.38068 18.0549 1.38068 15.99C1.38068 13.1272 2.21111 10.4439 3.65183 8.18953L4.48225 7.02244H4.50226Z" fill="#00B3DC"/>
<path d="M41.7872 22.2202H42.3728C42.9388 22.2202 43.2511 21.9672 43.2511 21.539C43.2511 21.0914 42.8412 20.819 42.2947 20.819C42.0995 20.819 41.8848 20.8579 41.6896 20.9163L41.6115 21.539L40.4989 21.6169V20.2546C41.0259 19.8849 41.8067 19.7292 42.5094 19.7292C43.8757 19.7292 44.8127 20.3714 44.8127 21.3639C44.8127 21.9477 44.5199 22.3758 44.0709 22.6483C44.7151 22.9207 45.1054 23.4267 45.1054 24.1078C45.1054 25.1587 44.0709 25.8204 42.4508 25.8204C41.592 25.8204 40.9283 25.6452 40.3232 25.1782L40.8503 24.3414C41.1821 24.5944 41.7286 24.7501 42.1971 24.7501C42.8998 24.7501 43.4073 24.4387 43.4073 23.9327C43.4073 23.4851 43.0169 23.1737 42.4508 23.1737H41.6896L41.7677 22.2396L41.7872 22.2202Z" fill="white"/>
<path d="M48.5989 20.7389L48.0718 20.9335V22.14H49.9847V20.7389H49.4577V19.8047H52.2489V20.7389L51.7219 20.9335V24.7867H52.2294V25.7208H49.4382V24.7867L49.9847 24.5921V23.152H48.0718V24.7867H48.5793V25.7208H45.7881V24.7867L46.3346 24.5921V20.7389H45.8076V19.8047H48.5989V20.7389Z" fill="white"/>
<path d="M55.7024 20.7389L55.1558 20.9335V23.0547L57.0687 20.9335V20.7389H56.5417V19.8047H59.3524V20.7389L58.8059 20.9335V24.7867H59.3134V25.7208H56.5222V24.7867L57.0687 24.5921V22.4709L55.1558 24.5726V24.7867H55.6633V25.7208H52.8721V24.7867L53.4186 24.5921V20.7389H52.8916V19.8047H55.7024V20.7389Z" fill="white"/>
<path d="M65.7756 20.7409L65.2095 20.8965V22.3366L66.7125 20.7409H66.2635V19.8067H68.9181V20.7409L68.2155 20.9355L66.9077 22.2588L68.3716 24.6135L69.0157 24.7108L69.0548 25.5866C68.5278 25.6839 68.0203 25.7812 67.708 25.7812C67.2785 25.7812 67.0638 25.5671 66.8491 25.1001L65.8732 23.2124L65.229 23.7183V24.7887H65.7951V25.7228H63.0038V24.7887L63.5894 24.5941V23.6989L62.9453 23.1929L61.9693 25.0806C61.7546 25.5476 61.5399 25.7617 61.1105 25.7617C60.7982 25.7617 60.2907 25.6839 59.7441 25.5671L59.7832 24.6914L60.4273 24.5941L61.8717 22.2393L60.3492 20.7214H59.8808V19.7873H62.5354V20.7214L62.145 20.7992L63.5894 22.3172V20.7019H63.0234V19.7678H65.7756V20.7019V20.7409Z" fill="white"/>
<path d="M72.2571 20.7389L71.7691 20.8945V22.4514L73.2916 20.7389H72.8231V19.8047H75.5558V20.7389L74.8531 20.9335L73.5649 22.2763L75.0679 24.6115L75.6924 24.7283L75.751 25.604C75.2045 25.7013 74.7165 25.7986 74.3847 25.7986C73.9748 25.7986 73.7796 25.5651 73.5258 25.1175L72.4328 23.2104L71.7886 23.8915V24.8061H72.3156V25.7403H69.5244V24.8061L70.0709 24.6115V20.7583H69.5439V19.8242H72.2961V20.7583L72.2571 20.7389Z" fill="white"/>
<path d="M76.3924 20.3688C77.017 19.9018 77.7782 19.7072 78.4809 19.7072C80.0229 19.7072 80.8818 20.5634 80.8818 21.9451V24.4556C80.8818 24.7085 80.9794 24.8059 81.1355 24.8059C81.2331 24.8059 81.3307 24.7669 81.4479 24.728L81.5454 25.5064C81.0574 25.701 80.5695 25.7983 80.1986 25.7983C79.6911 25.7983 79.3788 25.6037 79.2422 25.2729C78.8128 25.6232 78.2857 25.8373 77.7392 25.8373C76.7242 25.8373 76.0605 25.1561 76.0605 24.222C76.0605 23.2879 76.7437 22.7041 77.7978 22.5679L79.1446 22.3927V21.9646C79.1446 21.264 78.7737 20.8359 78.032 20.8359C77.5831 20.8359 77.2122 20.9916 76.8608 21.2251L76.3924 20.3883V20.3688ZM79.1641 24.3388V23.249L78.2467 23.3852C77.8368 23.4436 77.6026 23.6966 77.6026 24.0663C77.6026 24.475 77.8758 24.6891 78.2662 24.6891C78.559 24.6891 78.9299 24.5723 79.1641 24.3388Z" fill="white"/>
<path d="M89.8026 19.3193L88.7486 19.3971L88.6705 18.5214H86.9138L86.7576 20.7594H87.5384C89.1975 20.7594 90.4467 21.6351 90.4467 23.2698C90.4467 25.0018 88.9828 25.8386 87.2846 25.8386C86.4453 25.8386 85.645 25.644 84.8447 25.0797L85.4303 24.2428C85.9573 24.5931 86.5039 24.7294 86.9918 24.7294C87.9678 24.7294 88.651 24.1455 88.651 23.2114C88.651 22.3552 88.0654 21.7908 87.3042 21.7908H85.2937L85.606 17.4705H89.8026V19.3582V19.3193Z" fill="white"/>
<path d="M93.882 17.3547C95.6972 17.3547 96.8489 18.9894 96.8489 21.5777C96.8489 24.1659 95.6972 25.8006 93.882 25.8006C92.0667 25.8006 90.915 24.1659 90.915 21.5777C90.915 18.9894 92.0667 17.3547 93.882 17.3547ZM93.882 24.6914C94.6432 24.6914 95.1312 23.5043 95.1312 21.5777C95.1312 19.651 94.6627 18.4639 93.882 18.4639C93.1012 18.4639 92.6522 19.651 92.6522 21.5777C92.6522 23.5043 93.1207 24.6914 93.882 24.6914Z" fill="white"/>
<path d="M99.7594 17.3547C101.106 17.3547 101.946 18.172 101.946 19.4759C101.946 20.7798 101.087 21.5971 99.7594 21.5971C98.4321 21.5971 97.5732 20.7798 97.5732 19.4759C97.5732 18.172 98.4126 17.3547 99.7594 17.3547ZM99.7594 20.7019C100.325 20.7019 100.657 20.2349 100.657 19.4759C100.657 18.7169 100.306 18.2499 99.7594 18.2499C99.2128 18.2499 98.842 18.7169 98.842 19.4759C98.842 20.2349 99.1933 20.7019 99.7594 20.7019ZM99.4471 25.4309L104.132 17.3547L104.951 17.7244L100.267 25.8201L99.4666 25.4309H99.4471ZM104.639 21.5776C105.986 21.5776 106.825 22.395 106.825 23.6989C106.825 25.0027 105.966 25.8201 104.639 25.8201C103.312 25.8201 102.453 25.0027 102.453 23.6989C102.453 22.395 103.292 21.5776 104.639 21.5776ZM104.639 24.9249C105.205 24.9249 105.537 24.4578 105.537 23.6989C105.537 22.9399 105.186 22.4728 104.639 22.4728C104.093 22.4728 103.722 22.9399 103.722 23.6989C103.722 24.4578 104.073 24.9249 104.639 24.9249Z" fill="white"/>
<path d="M40 7.15524C41.2687 7.15524 42.4985 7.11632 43.7282 7.15524C44.8798 7.21362 45.6215 8.05043 45.5629 9.12076C45.5239 9.76297 45.1726 10.1911 44.6065 10.5414C44.7236 10.6192 44.8212 10.6776 44.9188 10.7555C45.5434 11.242 45.7972 11.8842 45.6605 12.6626C45.5239 13.3827 45.0945 13.8303 44.4113 14.0443C44.1381 14.1222 43.8648 14.2 43.572 14.2C42.4594 14.2 41.3468 14.2 40.2537 14.2C40.1757 14.2 40.1171 14.1805 40.0195 14.1611V7.15524H40ZM41.1126 13.2075C41.6786 13.2075 42.1861 13.2075 42.6936 13.2075C43.045 13.2075 43.4158 13.2075 43.7672 13.1297C44.138 13.0518 44.3918 12.7794 44.4699 12.4096C44.548 12.001 44.4699 11.6117 44.1185 11.3782C43.9234 11.242 43.6891 11.1252 43.4549 11.1252C42.6741 11.0863 41.9129 11.1252 41.1126 11.1252V13.2464V13.2075ZM41.1126 10.0354C41.9324 10.0354 42.7327 10.0743 43.5135 10.0354C44.0795 9.9965 44.3723 9.58782 44.3723 9.12076C44.3723 8.63425 44.0405 8.18665 43.4939 8.14773C42.7132 8.08935 41.9129 8.14773 41.1126 8.14773V10.0549V10.0354Z" fill="white"/>
<path d="M120.5 7.09875C121.73 7.13768 122.92 7.09875 124.072 7.25444C125.614 7.44904 126.785 8.63614 126.961 10.0957C127.254 12.3921 125.848 13.8322 123.974 14.1046C122.842 14.2603 121.671 14.2019 120.48 14.2408V7.11821L120.5 7.09875ZM121.613 13.151C122.335 13.151 123.037 13.2094 123.721 13.151C124.892 13.0343 125.751 12.0612 125.829 10.8936C125.907 9.57026 125.185 8.51938 123.994 8.22747C123.213 8.03286 122.432 8.14963 121.632 8.13017V13.1705L121.613 13.151Z" fill="white"/>
<path d="M95.9824 14.162V7.19511C96.08 7.19511 96.1776 7.15619 96.2752 7.15619C97.2707 7.15619 98.2466 7.15619 99.2421 7.15619C100.667 7.17565 101.565 8.1876 101.448 9.56931C101.37 10.5034 100.804 11.0873 99.652 11.3986C100.296 12.3133 100.94 13.2279 101.623 14.1815H100.257C99.6325 13.3058 99.0079 12.3911 98.3833 11.4959H97.1145V14.1815H95.9629L95.9824 14.162ZM97.1536 8.10976V10.4645C97.7977 10.4645 98.4223 10.4645 99.0469 10.4645C99.7691 10.4645 100.277 9.97799 100.277 9.31633C100.277 8.65466 99.8081 8.14868 99.0859 8.10976C98.4418 8.07084 97.7977 8.10976 97.134 8.10976" fill="white"/>
<path d="M63.1527 7.02062C65.2998 7.00116 66.9004 8.57748 66.8809 10.7571C66.8809 12.6448 65.3974 14.1822 63.5041 14.2989C62.6062 14.3573 61.7473 14.2211 60.9666 13.754C59.6978 12.9756 59.0732 11.516 59.3465 9.95919C59.5807 8.59694 60.6543 7.48768 62.0401 7.15685C62.1768 7.11793 62.2939 7.09847 62.4305 7.079C62.6452 7.05954 62.8404 7.05954 63.1332 7.04008M63.0746 13.3259C64.6167 13.3259 65.7098 12.2166 65.6902 10.6403C65.6707 9.064 64.7143 7.99366 63.0746 7.9742C61.5326 7.9742 60.4981 9.064 60.4981 10.6403C60.4981 12.2556 61.5326 13.3259 63.0746 13.3259Z" fill="white"/>
<path d="M108.416 7.01946C110.348 7.07785 111.734 8.10926 112.085 9.8218C112.632 12.5074 110.738 14.2394 108.591 14.2978C107.381 14.3367 106.307 14.0059 105.488 13.0717C104.473 11.9041 104.317 10.5613 104.883 9.1796C105.449 7.81735 106.561 7.13623 108.045 7.01946C108.181 7.01946 108.318 7.01946 108.396 7M110.992 11.0673C110.992 9.45205 110.446 8.55686 109.45 8.16765C107.889 7.56436 105.898 8.28441 105.8 10.5029C105.761 11.437 106.034 12.2933 106.854 12.8382C107.752 13.4415 108.708 13.4804 109.665 12.9939C110.602 12.5074 110.992 11.6706 110.992 11.0478" fill="white"/>
<path d="M56.574 10.7381C56.574 12.762 54.9344 14.4161 52.5726 14.3188C50.6402 14.241 48.9225 12.8009 49.0006 10.4851C49.0592 8.51954 50.7183 7.00161 52.8263 7.04053C55.0515 7.07945 56.5935 8.59738 56.574 10.7575M55.3834 10.6797C55.3834 9.45365 54.8173 8.51954 53.8023 8.16925C52.2017 7.60489 50.3865 8.3444 50.1717 10.3294C50.0351 11.536 50.6012 12.6647 51.6357 13.0928C53.3534 13.8129 55.3638 12.8593 55.3638 10.6797" fill="white"/>
<path d="M88.6048 11.0288V13.1694H92.5086V14.1035H87.4727V7.17554H92.5086C92.5086 7.33122 92.5281 7.48691 92.5281 7.62313C92.5281 7.75936 92.5281 7.91505 92.5086 8.09019H88.6048V10.0752H92.411V11.0288H88.6048Z" fill="white"/>
<path d="M69.7285 13.1116C69.9627 12.8392 70.1775 12.5862 70.4117 12.3137C70.8997 12.8002 71.4462 13.1505 72.1099 13.2868C72.6174 13.3841 73.1249 13.3841 73.6128 13.2089C74.0813 13.0338 74.3545 12.7029 74.3545 12.2943C74.3545 11.8272 74.0618 11.5742 73.6714 11.438C73.1444 11.2628 72.6174 11.1461 72.0903 10.9709C71.6804 10.8347 71.251 10.7179 70.8801 10.5233C69.7871 9.93952 69.6505 8.57727 70.5679 7.74046C70.9582 7.39017 71.4267 7.19556 71.9342 7.11772C72.8126 6.96203 73.6714 7.03987 74.4717 7.42909C74.8035 7.58477 75.0768 7.83777 75.4281 8.0713C75.1744 8.36321 74.9596 8.61619 74.7254 8.88864C74.2765 8.44104 73.769 8.16859 73.1639 8.05183C72.6954 7.97399 72.2465 7.97399 71.7975 8.14913C71.4462 8.30482 71.1925 8.53835 71.1729 8.94702C71.1729 9.33623 71.4462 9.53084 71.7585 9.64761C72.2465 9.82275 72.754 9.93952 73.2615 10.0952C73.7104 10.2509 74.1789 10.3871 74.6083 10.5817C75.9551 11.2434 75.838 13.1505 74.6278 13.8511C73.769 14.3376 72.8516 14.3571 71.9342 14.2403C71.0949 14.1236 70.3726 13.7733 69.748 13.0922" fill="white"/>
<path d="M80.7388 8.10965H78.4355V7.17554H84.2132V8.10965H81.8514V14.1619H80.7388V8.10965Z" fill="white"/>
<path d="M116.732 7.17554H115.639V14.1619H116.732V7.17554Z" fill="white"/>
</svg>
