<svg width="179" height="41" viewBox="0 0 179 41" fill="none" xmlns="http://www.w3.org/2000/svg">
<path d="M0 5C0 2.23858 2.23858 0 5 0H173.748C177.504 0 179.919 3.98566 178.18 7.31457L172.503 18.1854C171.746 19.6356 171.746 21.3644 172.503 22.8146L178.18 33.6854C179.919 37.0144 177.504 41 173.748 41H5.00001C2.23858 41 0 38.7614 0 36V5Z" fill="#18BCDA"/>
<path d="M31.768 16.008H32.2C32.872 16.008 33.144 15.272 33.448 13.256L34.456 6.808L33.448 6.696L33.4 5.896C34.008 5.832 34.712 5.8 35.304 5.8H41.576V6.712L40.616 6.92V16.008H41.24C41.736 16.008 41.96 16.28 41.96 16.936C41.96 17.352 41.88 18.632 41.768 19.368L40.776 19.432L40.6 17H32.68L32.52 19.368L31.416 19.432V16.072L31.768 16.008ZM34.952 13.512C34.76 14.696 34.584 15.512 34.264 16.008H38.936V6.792H36.008L34.952 13.512ZM42.6623 16.664L42.8063 15.896C43.0623 16.04 43.3023 16.088 43.4783 16.088C44.1343 16.088 44.4223 15.4 44.6943 13.56L45.2063 10.008L44.2943 9.896L44.2463 9.096C44.8383 9.032 45.4623 9 46.0703 9H51.1743V9.912L50.2943 10.12V16.088H51.1583V17H47.8143V16.088L48.6943 15.88V9.992H46.6943L46.1183 13.816C45.7983 15.912 45.4303 17.064 44.0863 17.064C43.6703 17.064 43.1263 16.952 42.6623 16.664ZM56.2784 17V16.088L57.1424 15.912V13.624H55.6864L54.5504 16.344C54.3744 16.936 53.9904 17.064 53.5584 17.064C53.1424 17.064 52.6304 17 52.1824 16.872L52.2304 16.04L53.1904 15.912L54.3904 13.48C53.2864 13.176 52.6944 12.408 52.6944 11.32C52.6944 9.896 53.7024 9 55.5904 9H59.6224V9.912L58.7424 10.12V16.088H59.5904V17H56.2784ZM55.9104 12.664H57.1424V9.976H55.8944C54.8704 9.976 54.2784 10.472 54.2784 11.32C54.2784 12.168 54.8704 12.664 55.9104 12.664ZM67.9193 9V9.912L67.0553 10.12V16.008H70.0953V9.912H69.2473V9H72.5593V9.912L71.6953 10.12V16.008H74.7353V9.912H73.8873V9H77.1993V9.912L76.3193 10.12V16.088H77.1833V17H64.5753V16.088L65.4553 15.88V9.912H64.6073V9H67.9193ZM78.3096 9.912V9H82.3576C84.0216 9 85.0296 9.8 85.0296 11.08C85.0296 11.88 84.6136 12.472 83.9256 12.808C84.8536 13.128 85.4136 13.816 85.4136 14.76C85.4136 16.136 84.2776 17 82.4216 17H78.3096V16.088L79.1896 15.88V9.912H78.3096ZM80.7896 16.04H82.2136C83.2376 16.04 83.8296 15.528 83.8296 14.68C83.8296 13.832 83.2376 13.304 82.1976 13.304H80.7896V16.04ZM80.7896 12.376H82.1016C83.0616 12.376 83.5576 11.912 83.5576 11.16C83.5576 10.408 83.0616 9.96 82.1176 9.96H80.7896V12.376ZM89.9665 9V9.912L89.0865 10.12V14.28L92.6385 10.216V9.912H91.7905V9H95.1185V9.912L94.2385 10.12V16.088H95.1025V17H91.7745V16.088L92.6385 15.88V11.72L89.0865 15.784V16.088H89.9505V17H86.6065V16.088L87.4865 15.88V9.912H86.6385V9H89.9665ZM96.0879 19.16V16.072L96.4399 16.008H96.7759C97.1919 16.008 97.4799 15.688 97.6239 14.744L98.3119 10.008L97.4319 9.896L97.3839 9.096C97.9919 9.032 98.6159 9 99.2079 9H104.408V9.912L103.528 10.12V16.008H103.992C104.504 16.008 104.728 16.248 104.728 16.872C104.728 17.288 104.632 18.36 104.52 19.096L103.544 19.144L103.368 17H97.3199L97.1599 19.08L96.0879 19.16ZM99.8159 9.992L99.0799 14.936C99.0159 15.4 98.8719 15.736 98.6799 16.008H101.992V9.992H99.8159ZM109.044 9V9.912L108.212 10.072V13.064L111.076 9.912H110.244V9H113.508V9.912L112.532 10.12L110.484 12.28L112.788 15.912L113.732 16.04L113.796 16.872C113.204 16.984 112.644 17.064 112.292 17.064C111.844 17.064 111.636 16.824 111.364 16.344L109.428 13.16L108.212 14.424V16.088H109.076V17H105.732V16.088L106.612 15.88V9.912H105.764V9H109.044ZM114.358 13C114.358 10.488 115.782 8.904 118.006 8.904C120.246 8.904 121.67 10.488 121.67 13C121.67 15.512 120.246 17.096 118.006 17.096C115.782 17.096 114.358 15.512 114.358 13ZM115.958 13C115.958 14.872 116.742 16.024 118.006 16.024C119.286 16.024 120.07 14.872 120.07 13C120.07 11.128 119.286 9.976 118.006 9.976C116.742 9.976 115.958 11.128 115.958 13ZM128.969 9.608V11.256L127.881 11.336L127.737 10.104C127.401 10.024 127.049 9.976 126.761 9.976C125.241 9.976 124.521 11.08 124.521 12.872C124.521 14.872 125.337 16.024 126.937 16.024C127.545 16.024 128.233 15.88 128.697 15.544L129.145 16.344C128.521 16.84 127.577 17.096 126.633 17.096C124.313 17.096 122.921 15.512 122.921 12.984C122.921 10.456 124.313 8.904 126.601 8.904C127.465 8.904 128.393 9.128 128.969 9.608ZM136.471 11.128L136.375 9.992H134.663V16.088H135.527V17H132.183V16.088L133.063 15.88V9.992H131.335L131.255 11.048L130.263 11.128V9H137.479V11.048L136.471 11.128ZM138.56 17V16.088L139.44 15.88V10.056L138.608 9.928L138.56 9.096C139.168 8.984 139.952 8.904 140.304 8.904C140.816 8.904 141.04 9.16 141.04 9.624V16.088H141.904V17H138.56ZM139.136 6.584C139.136 6.008 139.568 5.576 140.144 5.576C140.72 5.576 141.136 6.008 141.136 6.584C141.136 7.16 140.72 7.576 140.144 7.576C139.568 7.576 139.136 7.16 139.136 6.584ZM31.288 35.192V31.688L31.656 31.608H31.976C32.36 31.608 32.632 31.24 32.76 30.376L33.32 26.408L32.552 26.248L32.504 25.128C33.224 25.032 33.976 25 34.712 25H39.912V26.264L39.176 26.52V31.608H39.432C40.024 31.608 40.328 31.896 40.328 32.616C40.328 33.08 40.2 34.248 40.056 35.112L38.648 35.176L38.44 33H33.016L32.824 35.096L31.288 35.192ZM35.48 26.392L34.856 30.616C34.808 31.016 34.696 31.336 34.536 31.608H36.936V26.392H35.48ZM41.057 29C41.057 26.456 42.529 24.872 44.833 24.872C47.137 24.872 48.625 26.456 48.625 29C48.625 31.544 47.137 33.128 44.833 33.128C42.529 33.128 41.057 31.544 41.057 29ZM43.377 29C43.377 30.632 43.937 31.624 44.833 31.624C45.745 31.624 46.289 30.632 46.289 29C46.289 27.368 45.745 26.376 44.833 26.376C43.937 26.376 43.377 27.368 43.377 29ZM53.4224 33V31.736L54.6384 31.48V23.256H53.3264L53.2624 22.072C54.0624 21.784 55.3744 21.672 55.9024 21.672C56.6224 21.672 56.9744 21.912 56.9744 22.6V31.736H58.0784V33H53.4224ZM59.3092 27.4C59.3092 23.88 60.8773 21.672 63.3093 21.672C65.7573 21.672 67.3093 23.88 67.3093 27.4C67.3093 30.92 65.7573 33.128 63.3093 33.128C60.8773 33.128 59.3092 30.92 59.3092 27.4ZM61.6453 27.4C61.6453 30.024 62.2853 31.624 63.3093 31.624C64.3493 31.624 64.9893 30.024 64.9893 27.4C64.9893 24.776 64.3493 23.176 63.3093 23.176C62.2853 23.176 61.6453 24.776 61.6453 27.4ZM68.3717 27.4C68.3717 23.88 69.9398 21.672 72.3718 21.672C74.8198 21.672 76.3718 23.88 76.3718 27.4C76.3718 30.92 74.8198 33.128 72.3718 33.128C69.9398 33.128 68.3717 30.92 68.3717 27.4ZM70.7078 27.4C70.7078 30.024 71.3478 31.624 72.3718 31.624C73.4118 31.624 74.0518 30.024 74.0518 27.4C74.0518 24.776 73.4118 23.176 72.3718 23.176C71.3478 23.176 70.7078 24.776 70.7078 27.4ZM90.4178 21.8H94.0018V23.064L93.1218 23.32V31.736H93.9698V33H89.9698V31.736L90.8498 31.48V25.096L88.1458 30.744H86.8658L84.1298 25.096V31.736H84.9778V33H80.9778V31.736L81.8578 31.48V23.256L81.0418 23.112L80.9778 21.928C81.7458 21.784 82.9298 21.672 83.4578 21.672C84.2578 21.672 84.5938 21.976 84.8818 22.568L87.4898 27.608L90.4178 21.8ZM101.495 20.552V22.392C99.8466 23.848 97.4946 22.36 97.1106 25.912C97.7986 25.288 98.7266 24.872 99.6386 24.872C101.479 24.872 102.615 26.52 102.615 28.984C102.615 31.544 101.383 33.128 98.7746 33.128C96.5506 33.128 94.9826 31.96 94.9826 27.496C94.9826 21.672 97.6866 22.04 99.7666 21.432L99.9426 20.648L101.495 20.552ZM98.8866 26.376C98.2946 26.376 97.6546 26.744 97.3506 27.208V27.736C97.3506 30.68 97.9586 31.624 98.8866 31.624C99.8946 31.624 100.279 30.616 100.279 29.032C100.279 27.256 99.7666 26.376 98.8866 26.376ZM103.463 33V31.736L104.199 31.48V26.456L103.527 26.312L103.447 25.128C104.215 24.984 105.159 24.872 105.591 24.872C106.263 24.872 106.535 25.208 106.535 25.8V31.736H107.239V33H103.463ZM103.943 22.552C103.943 21.768 104.503 21.208 105.287 21.208C106.071 21.208 106.631 21.768 106.631 22.552C106.631 23.336 106.071 23.896 105.287 23.896C104.503 23.896 103.943 23.336 103.943 22.552ZM114.328 27.416L114.232 26.392H113.096V31.736H113.8V33H110.024V31.736L110.76 31.48V26.392H109.608L109.496 27.32L108.072 27.416V25H115.767V27.32L114.328 27.416ZM116.328 37.128L115.16 36.808L120.968 20.872L122.136 21.192L116.328 37.128ZM127.235 25.64V27.416L125.667 27.528L125.507 26.424C125.315 26.392 125.123 26.376 124.979 26.376C123.795 26.376 123.315 27.304 123.315 28.808C123.315 30.632 123.939 31.624 125.299 31.624C125.795 31.624 126.387 31.496 126.803 31.176L127.427 32.312C126.803 32.872 125.859 33.128 124.851 33.128C122.419 33.128 120.995 31.544 120.995 28.984C120.995 26.44 122.419 24.872 124.771 24.872C125.683 24.872 126.675 25.112 127.235 25.64Z" fill="white"/>
</svg>
