<svg width="271" height="41" viewBox="0 0 271 41" fill="none" xmlns="http://www.w3.org/2000/svg">
<path d="M0 5C0 2.23858 2.23858 0 5 0H265.662C269.843 0 272.178 4.82654 269.582 8.10423L262.223 17.3958C260.783 19.2146 260.783 21.7854 262.223 23.6042L269.582 32.8958C272.178 36.1735 269.843 41 265.662 41H5C2.23858 41 0 38.7614 0 36V5Z" fill="#18BCDA"/>
<path d="M31.768 16.008H32.2C32.872 16.008 33.144 15.272 33.448 13.256L34.456 6.808L33.448 6.696L33.4 5.896C34.008 5.832 34.712 5.8 35.304 5.8H41.576V6.712L40.616 6.92V16.008H41.24C41.736 16.008 41.96 16.28 41.96 16.936C41.96 17.352 41.88 18.632 41.768 19.368L40.776 19.432L40.6 17H32.68L32.52 19.368L31.416 19.432V16.072L31.768 16.008ZM34.952 13.512C34.76 14.696 34.584 15.512 34.264 16.008H38.936V6.792H36.008L34.952 13.512ZM42.6623 16.664L42.8063 15.896C43.0623 16.04 43.3023 16.088 43.4783 16.088C44.1343 16.088 44.4223 15.4 44.6943 13.56L45.2063 10.008L44.2943 9.896L44.2463 9.096C44.8383 9.032 45.4623 9 46.0703 9H51.1743V9.912L50.2943 10.12V16.088H51.1583V17H47.8143V16.088L48.6943 15.88V9.992H46.6943L46.1183 13.816C45.7983 15.912 45.4303 17.064 44.0863 17.064C43.6703 17.064 43.1263 16.952 42.6623 16.664ZM56.2784 17V16.088L57.1424 15.912V13.624H55.6864L54.5504 16.344C54.3744 16.936 53.9904 17.064 53.5584 17.064C53.1424 17.064 52.6304 17 52.1824 16.872L52.2304 16.04L53.1904 15.912L54.3904 13.48C53.2864 13.176 52.6944 12.408 52.6944 11.32C52.6944 9.896 53.7024 9 55.5904 9H59.6224V9.912L58.7424 10.12V16.088H59.5904V17H56.2784ZM55.9104 12.664H57.1424V9.976H55.8944C54.8704 9.976 54.2784 10.472 54.2784 11.32C54.2784 12.168 54.8704 12.664 55.9104 12.664ZM71.0233 4.568V5.992C69.5193 7.56 66.7033 5.736 66.2873 10.088C66.9753 9.4 67.9833 8.904 69.0393 8.904C70.9273 8.904 72.1433 10.488 72.1433 13.032C72.1433 15.512 70.9913 17.096 68.4793 17.096C66.3193 17.096 64.8153 15.944 64.8153 11.528C64.8153 5.192 67.9513 6.232 69.8073 5.384L69.9513 4.632L71.0233 4.568ZM68.5433 9.976C67.6793 9.976 66.8633 10.504 66.4313 11.064V11.72C66.4313 15.048 67.2953 16.024 68.5593 16.024C69.9833 16.024 70.5433 14.856 70.5433 13.064C70.5433 11.032 69.7913 9.976 68.5433 9.976ZM81.2691 9V9.912L80.4371 10.12L77.1571 18.52C76.4211 20.392 75.7811 21.096 74.6451 21.096C74.0371 21.096 73.4131 20.888 72.9331 20.456L73.2691 19.672C73.5891 19.928 73.9731 20.024 74.2771 20.024C74.9171 20.024 75.2531 19.592 75.7011 18.52L76.3251 17L73.5891 10.088L72.6931 9.96L72.6291 9.128C73.2211 9.016 73.8771 8.936 74.1811 8.936C74.7411 8.936 74.9331 9.208 75.0611 9.656L77.0451 15.304L78.8851 9.912H77.9731V9H81.2691ZM81.3535 19.16V16.072L81.7055 16.008H82.0415C82.4575 16.008 82.7455 15.688 82.8895 14.744L83.5775 10.008L82.6975 9.896L82.6495 9.096C83.2575 9.032 83.8815 9 84.4735 9H89.6735V9.912L88.7935 10.12V16.008H89.2575C89.7695 16.008 89.9935 16.248 89.9935 16.872C89.9935 17.288 89.8975 18.36 89.7855 19.096L88.8095 19.144L88.6335 17H82.5855L82.4255 19.08L81.3535 19.16ZM85.0815 9.992L84.3455 14.936C84.2815 15.4 84.1375 15.736 83.9455 16.008H87.2575V9.992H85.0815ZM94.3571 9V9.912L93.4771 10.12V14.28L97.0291 10.216V9.912H96.1811V9H99.5091V9.912L98.6291 10.12V16.088H99.4931V17H96.1651V16.088L97.0291 15.88V11.72L93.4771 15.784V16.088H94.3411V17H90.9971V16.088L91.8771 15.88V9.912H91.0291V9H94.3571ZM103.967 9V9.912L103.087 10.12V12.344H106.639V9.912H105.775V9H109.119V9.912L108.239 10.12V16.088H109.087V17H105.759V16.088L106.639 15.88V13.336H103.087V16.088H103.951V17H100.607V16.088L101.487 15.88V9.912H100.639V9H103.967ZM113.512 9V9.912L112.68 10.072V13.064L115.544 9.912H114.712V9H117.976V9.912L117 10.12L114.952 12.28L117.256 15.912L118.2 16.04L118.264 16.872C117.672 16.984 117.112 17.064 116.76 17.064C116.312 17.064 116.104 16.824 115.832 16.344L113.896 13.16L112.68 14.424V16.088H113.544V17H110.2V16.088L111.08 15.88V9.912H110.232V9H113.512ZM127.253 9V9.912L126.422 10.12L123.141 18.52C122.406 20.392 121.766 21.096 120.63 21.096C120.022 21.096 119.398 20.888 118.918 20.456L119.254 19.672C119.574 19.928 119.958 20.024 120.262 20.024C120.902 20.024 121.238 19.592 121.686 18.52L122.31 17L119.574 10.088L118.678 9.96L118.614 9.128C119.206 9.016 119.862 8.936 120.166 8.936C120.726 8.936 120.918 9.208 121.046 9.656L123.03 15.304L124.87 9.912H123.958V9H127.253ZM138.096 11.128L138 9.992H136.288V16.088H137.152V17H133.808V16.088L134.688 15.88V9.992H132.96L132.88 11.048L131.888 11.128V9H139.104V11.048L138.096 11.128ZM140.894 10.52L140.446 9.72C141.214 9.144 142.174 8.904 143.07 8.904C144.99 8.904 146.03 9.992 146.03 11.736V15.624C146.03 15.976 146.158 16.104 146.414 16.104C146.558 16.104 146.734 16.056 146.926 15.976L147.038 16.728C146.526 16.952 146.014 17.064 145.598 17.064C144.942 17.064 144.59 16.76 144.462 16.28C143.854 16.792 143.054 17.096 142.254 17.096C140.894 17.096 140.014 16.232 140.014 15.016C140.014 13.848 140.846 13.064 142.222 12.888L144.43 12.584V11.736C144.43 10.648 143.838 9.976 142.67 9.976C142.014 9.976 141.39 10.184 140.894 10.52ZM142.718 16.024C143.294 16.024 144.014 15.8 144.43 15.336V13.432L142.622 13.72C141.854 13.832 141.438 14.28 141.438 14.92C141.438 15.624 141.95 16.024 142.718 16.024ZM155.153 9V9.912L154.321 10.072V13.064L157.185 9.912H156.353V9H159.617V9.912L158.641 10.12L156.593 12.28L158.897 15.912L159.841 16.04L159.905 16.872C159.313 16.984 158.753 17.064 158.401 17.064C157.953 17.064 157.745 16.824 157.473 16.344L155.537 13.16L154.321 14.424V16.088H155.185V17H151.841V16.088L152.721 15.88V9.912H151.873V9H155.153ZM160.622 9.912V9H164.67C166.334 9 167.342 9.8 167.342 11.08C167.342 11.88 166.926 12.472 166.238 12.808C167.166 13.128 167.726 13.816 167.726 14.76C167.726 16.136 166.59 17 164.734 17H160.622V16.088L161.502 15.88V9.912H160.622ZM163.102 16.04H164.526C165.55 16.04 166.142 15.528 166.142 14.68C166.142 13.832 165.55 13.304 164.51 13.304H163.102V16.04ZM163.102 12.376H164.414C165.374 12.376 165.87 11.912 165.87 11.16C165.87 10.408 165.374 9.96 164.43 9.96H163.102V12.376ZM169.863 10.52L169.415 9.72C170.183 9.144 171.143 8.904 172.039 8.904C173.959 8.904 174.999 9.992 174.999 11.736V15.624C174.999 15.976 175.127 16.104 175.383 16.104C175.527 16.104 175.703 16.056 175.895 15.976L176.007 16.728C175.495 16.952 174.983 17.064 174.567 17.064C173.911 17.064 173.559 16.76 173.431 16.28C172.823 16.792 172.023 17.096 171.223 17.096C169.863 17.096 168.983 16.232 168.983 15.016C168.983 13.848 169.815 13.064 171.191 12.888L173.399 12.584V11.736C173.399 10.648 172.807 9.976 171.639 9.976C170.983 9.976 170.359 10.184 169.863 10.52ZM171.687 16.024C172.263 16.024 172.983 15.8 173.399 15.336V13.432L171.591 13.72C170.823 13.832 170.407 14.28 170.407 14.92C170.407 15.624 170.919 16.024 171.687 16.024ZM176.95 21V20.088L177.83 19.88V10.056L176.998 9.928L176.95 9.096C177.558 8.984 178.358 8.904 178.678 8.904C179.206 8.904 179.43 9.144 179.43 9.624V9.688C180.006 9.176 180.71 8.904 181.494 8.904C183.398 8.904 184.694 10.504 184.694 13C184.694 15.512 183.414 17.096 181.318 17.096C180.678 17.096 179.974 16.952 179.43 16.68V20.088H180.646V21H176.95ZM181.062 9.976C180.454 9.976 179.83 10.2 179.43 10.68V15.576C179.814 15.864 180.422 16.024 180.95 16.024C182.326 16.024 183.094 14.888 183.094 12.984C183.094 11.128 182.342 9.976 181.062 9.976ZM191.83 11.128L191.734 9.992H190.022V16.088H190.886V17H187.542V16.088L188.422 15.88V9.992H186.694L186.614 11.048L185.622 11.128V9H192.838V11.048L191.83 11.128ZM197.279 9V9.912L196.399 10.12V14.28L199.951 10.216V9.912H199.103V9H202.431V9.912L201.551 10.12V16.088H202.415V17H199.087V16.088L199.951 15.88V11.72L196.399 15.784V16.088H197.263V17H193.919V16.088L194.799 15.88V9.912H193.951V9H197.279ZM203.528 21V20.088L204.408 19.88V10.056L203.576 9.928L203.528 9.096C204.136 8.984 204.936 8.904 205.256 8.904C205.784 8.904 206.008 9.144 206.008 9.624V9.688C206.584 9.176 207.288 8.904 208.072 8.904C209.976 8.904 211.272 10.504 211.272 13C211.272 15.512 209.992 17.096 207.896 17.096C207.256 17.096 206.552 16.952 206.008 16.68V20.088H207.224V21H203.528ZM207.64 9.976C207.032 9.976 206.408 10.2 206.008 10.68V15.576C206.392 15.864 207 16.024 207.528 16.024C208.904 16.024 209.672 14.888 209.672 12.984C209.672 11.128 208.92 9.976 207.64 9.976ZM215.795 9V9.912L214.915 10.12V14.28L218.467 10.216V9.912H217.619V9H220.947V9.912L220.067 10.12V16.088H220.931V17H217.603V16.088L218.467 15.88V11.72L214.915 15.784V16.088H215.779V17H212.435V16.088L213.315 15.88V9.912H212.467V9H215.795ZM38.104 20.552V22.392C36.456 23.848 34.104 22.36 33.72 25.912C34.408 25.288 35.336 24.872 36.248 24.872C38.088 24.872 39.224 26.52 39.224 28.984C39.224 31.544 37.992 33.128 35.384 33.128C33.16 33.128 31.592 31.96 31.592 27.496C31.592 21.672 34.296 22.04 36.376 21.432L36.552 20.648L38.104 20.552ZM35.496 26.376C34.904 26.376 34.264 26.744 33.96 27.208V27.736C33.96 30.68 34.568 31.624 35.496 31.624C36.504 31.624 36.888 30.616 36.888 29.032C36.888 27.256 36.376 26.376 35.496 26.376ZM40.0723 33V31.736L40.8083 31.48V26.456L40.1363 26.312L40.0563 25.128C40.8243 24.984 41.7682 24.872 42.2003 24.872C42.8723 24.872 43.1443 25.208 43.1443 25.8V31.736H43.8483V33H40.0723ZM40.5523 22.552C40.5523 21.768 41.1123 21.208 41.8963 21.208C42.6803 21.208 43.2403 21.768 43.2403 22.552C43.2403 23.336 42.6803 23.896 41.8963 23.896C41.1123 23.896 40.5523 23.336 40.5523 22.552ZM44.4569 32.632L44.6489 31.576C44.8569 31.688 45.0489 31.72 45.2089 31.72C45.8169 31.72 46.1049 31.08 46.3449 29.464L46.7769 26.408L45.9609 26.248L45.8969 25.128C46.6169 25.032 47.3849 25 48.1049 25H53.3369V26.264L52.6009 26.52V31.736H53.3049V33H49.5289V31.736L50.2649 31.48V26.392H48.9209L48.4089 29.832C48.0889 31.928 47.6729 33.096 46.1529 33.096C45.6569 33.096 45.0329 32.968 44.4569 32.632ZM57.974 25V26.264L57.238 26.52V28.152H58.182C60.198 28.152 61.462 29.08 61.462 30.584C61.462 32.056 60.198 33 58.182 33H54.166V31.736L54.902 31.48V26.264H54.198V25H57.974ZM57.942 29.48H57.238V31.672H57.942C58.71 31.672 59.158 31.256 59.158 30.584C59.158 29.896 58.71 29.48 57.942 29.48ZM66.0986 25V26.264L65.3786 26.52V31.608H67.6026V26.264H66.9146V25H70.6426V26.264L69.9226 26.52V31.608H72.1466V26.264H71.4746V25H75.2186V26.264L74.4826 26.52V31.736H75.1866V33H62.3066V31.736L63.0426 31.48V26.264H62.3386V25H66.0986ZM82.6646 29.224H78.3766C78.3446 30.888 79.2086 31.624 80.5526 31.624C81.1446 31.624 81.7526 31.464 82.1366 31.224L82.8086 32.392C82.1046 32.888 81.1926 33.128 80.2006 33.128C77.7846 33.128 76.0726 31.672 76.0726 28.92C76.0726 26.472 77.4166 24.872 79.7846 24.872C81.7046 24.872 82.8246 25.928 82.8246 27.832C82.8246 28.2 82.7766 28.728 82.6646 29.224ZM79.7846 26.376C78.9526 26.376 78.4886 27.048 78.4086 28.024H80.8566C80.8886 27.832 80.9046 27.672 80.9046 27.528C80.9046 26.792 80.4246 26.376 79.7846 26.376ZM94.373 21.8V24.344L92.949 24.44L92.837 23.24H90.453L90.245 26.264H91.301C93.541 26.264 95.237 27.448 95.237 29.656C95.237 32.008 93.269 33.128 90.965 33.128C89.829 33.128 88.757 32.856 87.669 32.088L88.469 30.952C89.189 31.416 89.909 31.624 90.581 31.624C91.893 31.624 92.821 30.84 92.821 29.576C92.821 28.408 92.037 27.656 90.997 27.656H88.277L88.693 21.8H94.373ZM95.8717 27.4C95.8717 23.88 97.4398 21.672 99.8718 21.672C102.32 21.672 103.872 23.88 103.872 27.4C103.872 30.92 102.32 33.128 99.8718 33.128C97.4398 33.128 95.8717 30.92 95.8717 27.4ZM98.2078 27.4C98.2078 30.024 98.8478 31.624 99.8718 31.624C100.912 31.624 101.552 30.024 101.552 27.4C101.552 24.776 100.912 23.176 99.8718 23.176C98.8478 23.176 98.2078 24.776 98.2078 27.4ZM112.254 25V26.264L111.582 26.472V28.584L113.63 26.264H112.99V25H116.67V26.264L115.726 26.52L113.998 28.328L116.014 31.496L116.862 31.64L116.942 32.824C116.206 32.968 115.534 33.08 115.102 33.08C114.542 33.08 114.286 32.76 113.934 32.152L112.446 29.576L111.582 30.488V31.736H112.286V33H108.51V31.736L109.246 31.48V26.264H108.542V25H112.254ZM117.416 26.264V25H121.784C123.512 25 124.584 25.816 124.584 27.112C124.584 27.864 124.2 28.424 123.592 28.792C124.472 29.144 124.984 29.832 124.984 30.728C124.984 32.12 123.768 33 121.816 33H117.416V31.736L118.152 31.48V26.264H117.416ZM120.488 31.672H121.464C122.232 31.672 122.68 31.256 122.68 30.584C122.68 29.896 122.232 29.48 121.464 29.48H120.488V31.672ZM120.488 28.2H121.352C122.088 28.2 122.456 27.848 122.456 27.256C122.456 26.68 122.088 26.328 121.368 26.328H120.488V28.2ZM126.061 31.784C126.061 31 126.621 30.44 127.405 30.44C128.189 30.44 128.749 31 128.749 31.784C128.749 32.568 128.189 33.128 127.405 33.128C126.621 33.128 126.061 32.568 126.061 31.784ZM136.64 25H140.032V26.264L139.28 26.52V31.736H139.984V33H136.512V31.736L137.248 31.48V27.688L135.6 31.304H134.192L132.528 27.688V31.736H133.232V33H129.76V31.736L130.496 31.48V26.456L129.824 26.312L129.744 25.128C130.512 24.984 131.408 24.872 131.936 24.872C132.736 24.872 133.152 25.16 133.408 25.768L134.88 28.84L136.64 25Z" fill="white"/>
</svg>
