<svg width="228" height="30" viewBox="0 0 228 30" fill="none" xmlns="http://www.w3.org/2000/svg">
<rect width="228" height="30" rx="15" fill="white"/>
<path d="M27.16 15.02V19.96C26.02 20.76 24.56 21.12 23.1 21.12C19.26 21.12 16.98 18.38 16.98 14C16.98 9.62 19.28 6.88 23.06 6.88C24.56 6.88 25.98 7.3 27.06 8.08V10.7L25.74 10.8L25.58 8.76C24.98 8.4 24.28 8.22 23.54 8.22C20.58 8.22 19.06 10.42 19.06 14C19.06 17.56 20.54 19.78 23.48 19.78C24.14 19.78 24.8 19.6 25.34 19.26V14.76H23.26V13.62H28.24V14.76L27.16 15.02ZM29.4339 21V19.86L30.6339 19.6V8.14H29.4739V7H34.8539C37.6939 7 39.5539 8.5 39.5539 10.94C39.5539 13.38 37.6939 14.88 34.8539 14.88H32.7339V19.86H34.3539V21H29.4339ZM34.8539 8.24H32.7339V13.62H34.8539C36.4339 13.62 37.4739 12.58 37.4739 10.94C37.4739 9.28 36.4339 8.24 34.8539 8.24ZM41.062 14C41.062 9.62 43.342 6.88 46.942 6.88C50.542 6.88 52.822 9.62 52.822 14C52.822 18.38 50.542 21.12 46.942 21.12C43.342 21.12 41.062 18.38 41.062 14ZM43.142 14C43.142 17.58 44.602 19.78 46.942 19.78C49.302 19.78 50.742 17.58 50.742 14C50.742 10.42 49.302 8.22 46.942 8.22C44.602 8.22 43.142 10.42 43.142 14ZM57.873 7.7L64.173 17.46V8.14H62.993V7H67.173V8.14L65.973 8.4V21H64.153L57.493 10.52V19.86H58.653V21H54.473V19.86L55.673 19.6V8.32L54.493 8.16L54.413 7.12C55.113 6.98 56.133 6.9 56.613 6.9C57.233 6.9 57.573 7.2 57.873 7.7ZM73.4197 15.08L73.5197 13.98H76.4597V11.04L77.5597 10.94V13.98H80.5997L80.4997 15.08H77.5597V18L76.4597 18.12V15.08H73.4197Z" fill="#717271"/>
<path d="M86.965 6.81952H89.0516L94.035 13.768L98.9982 6.81952H101.044V21H98.9576V10.1418L93.9945 17.0295L89.0516 10.1215V21H86.965V6.81952ZM104.969 6.81952H114.814V8.76427H107.055V12.9576H113.619V14.8619H107.055V19.0552H114.976V21H104.969V6.81952ZM116.615 13.9098C116.615 12.4782 116.919 11.202 117.526 10.081C118.147 8.9601 119.005 8.08901 120.099 7.46777C121.193 6.83303 122.435 6.51565 123.826 6.51565C125.19 6.51565 126.392 6.79926 127.432 7.36648C128.486 7.9202 129.269 8.67649 129.782 9.63536L127.979 10.7698C127.588 10.0675 127.02 9.51381 126.278 9.10866C125.535 8.7035 124.691 8.50092 123.745 8.50092C122.773 8.50092 121.909 8.73051 121.152 9.18969C120.41 9.64886 119.829 10.2904 119.41 11.1142C118.992 11.9245 118.782 12.8564 118.782 13.9098C118.782 15.0037 118.985 15.9626 119.39 16.7864C119.809 17.6102 120.396 18.2517 121.152 18.7109C121.922 19.1565 122.807 19.3794 123.806 19.3794C124.711 19.3794 125.515 19.1971 126.217 18.8324C126.919 18.4543 127.48 17.9343 127.898 17.2726C128.317 16.5973 128.553 15.8275 128.607 14.9632H123.968V13.14H130.755C130.768 13.302 130.775 13.6194 130.775 14.0921C130.775 15.4831 130.478 16.7256 129.884 17.8195C129.289 18.9134 128.459 19.771 127.392 20.3923C126.338 21 125.143 21.3039 123.806 21.3039C122.375 21.3039 121.112 21 120.018 20.3923C118.938 19.771 118.1 18.9067 117.506 17.7993C116.912 16.6783 116.615 15.3818 116.615 13.9098ZM140.471 21.3039C139.053 21.3039 137.79 20.9932 136.682 20.372C135.575 19.7373 134.711 18.8594 134.089 17.7385C133.468 16.6176 133.158 15.3413 133.158 13.9098C133.158 12.5052 133.468 11.2425 134.089 10.1215C134.724 8.98711 135.602 8.10252 136.723 7.46777C137.844 6.83303 139.107 6.51565 140.511 6.51565C141.929 6.51565 143.192 6.83303 144.299 7.46777C145.407 8.08901 146.271 8.9601 146.892 10.081C147.514 11.202 147.824 12.4782 147.824 13.9098C147.824 15.3143 147.507 16.5838 146.872 17.7182C146.251 18.8392 145.38 19.717 144.259 20.3517C143.138 20.9865 141.875 21.3039 140.471 21.3039ZM135.345 13.9098C135.345 14.9362 135.562 15.8613 135.994 16.6851C136.439 17.4954 137.047 18.1369 137.817 18.6096C138.6 19.0688 139.485 19.2983 140.471 19.2983C141.457 19.2983 142.341 19.0688 143.124 18.6096C143.908 18.1369 144.522 17.4954 144.968 16.6851C145.414 15.8613 145.636 14.9362 145.636 13.9098C145.636 12.8834 145.414 11.965 144.968 11.1547C144.536 10.3309 143.928 9.68938 143.145 9.2302C142.375 8.75752 141.497 8.52118 140.511 8.52118C139.525 8.52118 138.641 8.75752 137.857 9.2302C137.074 9.68938 136.46 10.3309 136.014 11.1547C135.568 11.965 135.345 12.8834 135.345 13.9098ZM150.302 13.9098C150.302 12.4782 150.606 11.202 151.214 10.081C151.835 8.9601 152.693 8.08901 153.786 7.46777C154.88 6.83303 156.123 6.51565 157.514 6.51565C158.878 6.51565 160.08 6.79926 161.12 7.36648C162.173 7.9202 162.957 8.67649 163.47 9.63536L161.667 10.7698C161.275 10.0675 160.708 9.51381 159.965 9.10866C159.222 8.7035 158.378 8.50092 157.433 8.50092C156.461 8.50092 155.596 8.73051 154.84 9.18969C154.097 9.64886 153.516 10.2904 153.098 11.1142C152.679 11.9245 152.47 12.8564 152.47 13.9098C152.47 15.0037 152.672 15.9626 153.077 16.7864C153.496 17.6102 154.084 18.2517 154.84 18.7109C155.61 19.1565 156.494 19.3794 157.494 19.3794C158.399 19.3794 159.202 19.1971 159.904 18.8324C160.607 18.4543 161.167 17.9343 161.586 17.2726C162.004 16.5973 162.241 15.8275 162.295 14.9632H157.656V13.14H164.442C164.456 13.302 164.462 13.6194 164.462 14.0921C164.462 15.4831 164.165 16.7256 163.571 17.8195C162.977 18.9134 162.146 19.771 161.079 20.3923C160.026 21 158.831 21.3039 157.494 21.3039C156.062 21.3039 154.799 21 153.705 20.3923C152.625 19.771 151.788 18.9067 151.193 17.7993C150.599 16.6783 150.302 15.3818 150.302 13.9098ZM174.158 21.3039C172.74 21.3039 171.477 20.9932 170.37 20.372C169.263 19.7373 168.398 18.8594 167.777 17.7385C167.156 16.6176 166.845 15.3413 166.845 13.9098C166.845 12.5052 167.156 11.2425 167.777 10.1215C168.412 8.98711 169.29 8.10252 170.41 7.46777C171.531 6.83303 172.794 6.51565 174.199 6.51565C175.617 6.51565 176.879 6.83303 177.987 7.46777C179.094 8.08901 179.959 8.9601 180.58 10.081C181.201 11.202 181.512 12.4782 181.512 13.9098C181.512 15.3143 181.194 16.5838 180.56 17.7182C179.938 18.8392 179.067 19.717 177.946 20.3517C176.825 20.9865 175.563 21.3039 174.158 21.3039ZM169.033 13.9098C169.033 14.9362 169.249 15.8613 169.681 16.6851C170.127 17.4954 170.735 18.1369 171.504 18.6096C172.288 19.0688 173.172 19.2983 174.158 19.2983C175.144 19.2983 176.029 19.0688 176.812 18.6096C177.595 18.1369 178.21 17.4954 178.655 16.6851C179.101 15.8613 179.324 14.9362 179.324 13.9098C179.324 12.8834 179.101 11.965 178.655 11.1547C178.223 10.3309 177.616 9.68938 176.832 9.2302C176.062 8.75752 175.185 8.52118 174.199 8.52118C173.213 8.52118 172.328 8.75752 171.545 9.2302C170.762 9.68938 170.147 10.3309 169.701 11.1547C169.256 11.965 169.033 12.8834 169.033 13.9098ZM192.264 21V8.82505H187.26V6.81952H199.395V8.82505H194.371V21H192.264ZM202.771 6.81952L207.674 18.6298L212.556 6.81952H214.723L208.788 21H206.438L200.502 6.81952H202.771Z" fill="#717271"/>
</svg>
