<svg width="91" height="30" viewBox="0 0 91 30" fill="none" xmlns="http://www.w3.org/2000/svg">
<rect width="91" height="30" rx="15" fill="white"/>
<path d="M30.16 15.02V19.96C29.02 20.76 27.56 21.12 26.1 21.12C22.26 21.12 19.98 18.38 19.98 14C19.98 9.62 22.28 6.88 26.06 6.88C27.56 6.88 28.98 7.3 30.06 8.08V10.7L28.74 10.8L28.58 8.76C27.98 8.4 27.28 8.22 26.54 8.22C23.58 8.22 22.06 10.42 22.06 14C22.06 17.56 23.54 19.78 26.48 19.78C27.14 19.78 27.8 19.6 28.34 19.26V14.76H26.26V13.62H31.24V14.76L30.16 15.02ZM32.4339 21V19.86L33.6339 19.6V8.14H32.4739V7H37.8539C40.6939 7 42.5539 8.5 42.5539 10.94C42.5539 13.38 40.6939 14.88 37.8539 14.88H35.7339V19.86H37.3539V21H32.4339ZM37.8539 8.24H35.7339V13.62H37.8539C39.4339 13.62 40.4739 12.58 40.4739 10.94C40.4739 9.28 39.4339 8.24 37.8539 8.24ZM44.062 14C44.062 9.62 46.342 6.88 49.942 6.88C53.542 6.88 55.822 9.62 55.822 14C55.822 18.38 53.542 21.12 49.942 21.12C46.342 21.12 44.062 18.38 44.062 14ZM46.142 14C46.142 17.58 47.602 19.78 49.942 19.78C52.302 19.78 53.742 17.58 53.742 14C53.742 10.42 52.302 8.22 49.942 8.22C47.602 8.22 46.142 10.42 46.142 14ZM60.873 7.7L67.173 17.46V8.14H65.993V7H70.173V8.14L68.973 8.4V21H67.153L60.493 10.52V19.86H61.653V21H57.473V19.86L58.673 19.6V8.32L57.493 8.16L57.413 7.12C58.113 6.98 59.133 6.9 59.613 6.9C60.233 6.9 60.573 7.2 60.873 7.7Z" fill="#717271"/>
</svg>
