<svg xmlns="http://www.w3.org/2000/svg" width="194" height="60" viewBox="0 0 194 60" fill="none">
  <g clip-path="url(#clip0_571_189)">
    <path d="M56.7997 53.8886L56.8192 41.8195H51.9092V38.0823H66.353V41.8195H61.4755L61.482 53.8886H56.7997Z" fill="white"/>
    <path d="M72.5055 50.1003C73.1689 50.7338 74.1249 51.0473 75.367 51.0473C76.2579 51.0473 77.0253 50.8298 77.6627 50.3882C78.3065 49.9531 78.6967 49.4859 78.8463 48.9996H82.7287C82.1044 50.8938 81.1549 52.2504 79.8738 53.0631C78.5861 53.8758 77.0253 54.2854 75.2109 54.2854C73.9493 54.2854 72.8047 54.087 71.7967 53.6903C70.7757 53.2935 69.9172 52.7304 69.2214 51.9944C68.519 51.2585 67.9727 50.3882 67.589 49.3643C67.2054 48.3468 67.0103 47.2206 67.0103 46.0047C67.0103 44.7888 67.2054 43.7201 67.6021 42.7026C67.9988 41.6852 68.558 40.7956 69.2864 40.0597C70.0083 39.3174 70.8732 38.7287 71.8812 38.3063C72.8827 37.8776 73.9948 37.6664 75.2174 37.6664C76.5831 37.6664 77.7732 37.9224 78.7877 38.4471C79.8022 38.9654 80.6347 39.663 81.2915 40.5397C81.9418 41.4164 82.4166 42.4147 82.7092 43.5346C82.9954 44.6608 83.0994 45.8319 83.0149 47.0542H71.426C71.491 48.462 71.8487 49.4795 72.512 50.113M77.4936 41.7875C76.9603 41.218 76.1604 40.93 75.0874 40.93C74.3785 40.93 73.7932 41.0452 73.3315 41.282C72.8632 41.5188 72.486 41.8131 72.2064 42.1523C71.9267 42.4979 71.7251 42.869 71.6211 43.253C71.504 43.6433 71.4325 43.9889 71.413 44.2897H78.5861C78.378 43.189 78.0138 42.3571 77.4871 41.7875" fill="white"/>
    <path d="M103.858 50.1003C104.521 50.7338 105.477 51.0473 106.719 51.0473C107.61 51.0473 108.378 50.8298 109.015 50.3882C109.659 49.9531 110.049 49.4859 110.199 48.9996H114.081C113.463 50.8938 112.507 52.2504 111.226 53.0631C109.945 53.8758 108.391 54.2854 106.563 54.2854C105.308 54.2854 104.164 54.087 103.149 53.6903C102.128 53.2935 101.27 52.7304 100.574 51.9944C99.8714 51.2585 99.3251 50.3882 98.9414 49.3643C98.5642 48.3468 98.3691 47.2206 98.3691 46.0047C98.3691 44.7888 98.5642 43.7201 98.9544 42.7026C99.3511 41.6852 99.9104 40.7956 100.639 40.0597C101.367 39.3174 102.226 38.7287 103.234 38.3063C104.235 37.8776 105.36 37.6664 106.57 37.6664C107.942 37.6664 109.132 37.9224 110.147 38.4471C111.161 38.9654 111.994 39.663 112.65 40.5397C113.301 41.4164 113.775 42.4147 114.062 43.5346C114.348 44.6608 114.458 45.8319 114.374 47.0542H102.785C102.85 48.462 103.208 49.4795 103.871 50.113M108.846 41.7875C108.319 41.218 107.513 40.93 106.44 40.93C105.737 40.93 105.146 41.0452 104.684 41.282C104.222 41.5188 103.851 41.8131 103.565 42.1523C103.286 42.4979 103.091 42.869 102.98 43.253C102.863 43.6433 102.798 43.9889 102.772 44.2897H109.952C109.743 43.189 109.379 42.3571 108.846 41.7875Z" fill="white"/>
    <path d="M116.175 38.0823H120.708V43.6881L126.183 38.0823H131.549L125.566 43.8161L132.557 53.8886H127.061L122.47 46.8302L120.708 48.494V53.8886H116.175V38.0823Z" fill="white"/>
    <path d="M87.3914 53.8886L90.6951 42.6834L94.0053 53.8886H98.3755L94.3109 40.1685C93.8817 38.7159 92.7631 37.8648 91.0723 37.692C91.0267 37.692 90.9747 37.692 90.9292 37.692C90.8642 37.692 90.7991 37.6792 90.7341 37.6792H90.6626C90.591 37.6792 90.5325 37.6792 90.461 37.692C90.4154 37.692 90.3699 37.692 90.3179 37.692C88.6075 37.8712 87.5084 38.7159 87.0792 40.1685L83.0342 53.8886H87.3979H87.3914Z" fill="white"/>
    <path d="M155.13 42.6834L158.447 53.8886H162.81L166.12 42.6834L168.455 53.8886H172.825L169.736 40.1685C169.307 38.7159 168.195 37.852 166.491 37.692C166.446 37.692 166.4 37.692 166.348 37.692C166.283 37.692 166.218 37.6856 166.153 37.6856H166.075C166.01 37.6856 165.945 37.6856 165.88 37.692C165.828 37.692 165.782 37.692 165.737 37.692C164.033 37.8584 162.927 38.7159 162.498 40.1685L160.625 47.4957L158.739 40.1685C158.317 38.7159 157.204 37.852 155.501 37.692C155.449 37.692 155.403 37.692 155.358 37.692C155.292 37.692 155.221 37.6856 155.156 37.6856H155.078C155.013 37.6856 154.948 37.6856 154.883 37.692C154.837 37.692 154.785 37.692 154.74 37.692C153.029 37.8584 151.924 38.7159 151.501 40.1685L148.438 53.8886H152.795L155.117 42.6834H155.13Z" fill="white"/>
    <path d="M132.141 42.5427C132.531 41.5124 133.09 40.6357 133.818 39.9189C134.547 39.1958 135.412 38.6327 136.426 38.2359C137.434 37.8392 138.579 37.6408 139.841 37.6408C141.102 37.6408 142.24 37.8392 143.274 38.2359C144.302 38.6327 145.173 39.1958 145.902 39.9189C146.623 40.6421 147.183 41.5124 147.573 42.5427C147.97 43.573 148.165 44.7248 148.165 45.9855C148.165 47.2462 147.97 48.3916 147.573 49.4091C147.183 50.4266 146.623 51.2969 145.902 52.02C145.173 52.7432 144.302 53.2999 143.274 53.6903C142.247 54.0742 141.109 54.2662 139.841 54.2662C138.572 54.2662 137.434 54.0742 136.426 53.6903C135.405 53.2999 134.54 52.7432 133.818 52.02C133.09 51.2969 132.531 50.4266 132.141 49.4091C131.75 48.3916 131.549 47.2462 131.549 45.9855C131.549 44.7248 131.75 43.573 132.141 42.5427ZM136.147 47.8285C136.27 48.43 136.478 48.9676 136.777 49.4539C137.077 49.9339 137.48 50.3178 137.974 50.5994C138.475 50.8874 139.093 51.0218 139.841 51.0218C140.588 51.0218 141.213 50.881 141.72 50.5994C142.227 50.3178 142.63 49.9339 142.936 49.4539C143.235 48.9676 143.443 48.4364 143.573 47.8285C143.697 47.227 143.762 46.6062 143.762 45.9791C143.762 45.352 143.704 44.7248 143.573 44.1105C143.45 43.4962 143.235 42.9586 142.936 42.4851C142.637 42.0179 142.234 41.6404 141.72 41.3396C141.213 41.0452 140.582 40.898 139.841 40.898C139.099 40.898 138.475 41.0516 137.974 41.3396C137.48 41.6404 137.077 42.0179 136.777 42.4851C136.478 42.9586 136.27 43.4962 136.147 44.1105C136.017 44.7184 135.958 45.3456 135.958 45.9791C135.958 46.6126 136.023 47.227 136.147 47.8285Z" fill="white"/>
    <path d="M17.4614 38.0823H21.9877V43.6881L27.4635 38.0823H32.8287L26.8457 43.8161L33.8367 53.8886H28.348L23.7501 46.8302L21.9877 48.494V53.8886H17.4614V38.0823Z" fill="white"/>
    <path d="M51.3047 46.3694C51.3047 45.1088 51.1096 43.9633 50.7129 42.9458C50.3228 41.9283 49.7635 41.0516 49.0416 40.3285C48.3132 39.6054 47.4418 39.055 46.4143 38.6647C45.3932 38.2743 44.2487 38.0823 42.987 38.0823C41.0555 38.0823 39.2606 39.1766 39.1046 39.2406V38.0823H34.6953V59.616H39.1046V53.5495C39.2606 53.6135 41.0555 54.7014 42.987 54.7014C44.2487 54.7014 45.3932 54.5094 46.4143 54.1254C47.4418 53.7351 48.3197 53.1847 49.0416 52.4616C49.7635 51.7385 50.3228 50.8618 50.7129 49.8443C51.1096 48.8268 51.3047 47.6813 51.3047 46.4206V46.3567V46.3694ZM46.7069 48.2828C46.5833 48.8844 46.3687 49.4283 46.0696 49.9019C45.7704 50.3818 45.3672 50.7658 44.8535 51.0473C44.3462 51.3353 43.7219 51.4761 42.974 51.4761C42.2261 51.4761 41.6083 51.3289 41.1076 51.0473C40.6133 50.7658 40.2166 50.3818 39.911 49.9019C39.6118 49.4283 39.3972 48.878 39.2736 48.2828C39.1566 47.7261 39.1046 47.1566 39.0915 46.5806V46.2223C39.1046 45.6399 39.1631 45.0768 39.2736 44.52C39.3972 43.9185 39.6118 43.381 39.911 42.901C40.2166 42.4211 40.6133 42.0435 41.1076 41.7555C41.6083 41.4676 42.2261 41.3204 42.974 41.3204C43.7219 41.3204 44.3462 41.4612 44.8535 41.7555C45.3607 42.0371 45.7704 42.4211 46.0696 42.901C46.3687 43.381 46.5833 43.9249 46.7069 44.52C46.8305 45.1216 46.8955 45.7359 46.8955 46.3694C46.8955 46.3822 46.8955 46.4078 46.8955 46.427C46.8955 47.067 46.8305 47.6877 46.7069 48.2892" fill="white"/>
    <path d="M10.3728 38.0823V46.971C10.3728 48.0141 10.0996 48.8076 9.61188 49.3323C9.11763 49.8635 8.38276 50.1898 7.25118 50.1898C6.36023 50.1898 5.63186 49.9595 5.13761 49.5115C4.64336 49.0636 4.31819 48.3852 4.30519 47.2654V38.0759H0.0065033C0.0065033 38.0759 0 43.5538 0 46.8046C0 50.0555 0.676343 51.0409 1.85994 52.1928C2.87446 53.1783 4.38973 53.9078 6.57484 53.9078C8.75995 53.9078 10.1452 52.6792 10.4053 52.4616C10.4703 53.5047 10.3533 54.5798 9.34525 55.3797C8.72743 55.8724 6.63337 56.9539 3.31018 55.5013L2.3672 58.9889C3.57682 59.616 5.36522 60.0256 7.34223 59.9936C8.74694 59.9744 10.6524 59.4689 12.1157 58.3298C13.5789 57.2035 14.6845 55.4501 14.6845 52.5128V38.0759H10.3728V38.0823Z" fill="white"/>
    <path d="M193.955 14.904C193.903 15.1216 193.772 15.2688 193.571 15.3648C193.402 15.4352 193.233 15.4991 193.07 15.5823C192.888 15.6783 192.875 15.7871 193.057 15.8703C193.603 16.1327 193.538 16.5422 193.142 16.875C192.836 17.131 192.81 17.4637 192.921 17.8093C192.999 18.0653 193.096 18.3212 193.213 18.5644C193.714 19.6203 192.882 20.7722 191.704 20.7658C191.418 20.7658 191.145 20.7402 190.859 20.7402C188.024 19.3387 184.824 18.0589 181.345 16.9582C177.865 15.8575 174.119 14.9296 170.172 14.2385C159.39 12.3507 149.342 12.5683 142.052 14.4561C142 13.4962 142.175 12.5747 142.709 11.7235C143.209 10.9236 143.905 10.3029 144.666 9.76536C144.959 9.56058 145.271 9.3814 145.583 9.20222C145.908 9.01024 146.051 8.73507 146.019 8.36391C145.941 7.468 145.733 6.61689 145.212 5.84898C144.861 5.33703 144.699 4.75469 144.712 4.12756C144.725 3.7244 144.939 3.55802 145.336 3.62841C145.453 3.65401 145.57 3.68601 145.681 3.7116C146.103 3.7884 146.272 3.7116 146.441 3.32764C146.63 2.88609 146.936 2.57252 147.391 2.43814C147.872 2.29735 148.36 2.16937 148.854 2.09258C150.33 1.8686 151.768 2.11817 153.179 2.50213C154.265 2.7901 155.351 3.11007 156.359 3.60921C156.977 3.92278 157.614 3.88439 158.251 3.6988C158.525 3.61561 158.739 3.66681 158.98 3.7884C159.207 3.89718 159.461 3.98037 159.708 4.05077C159.864 4.09556 160.02 4.05077 160.111 3.90998C160.306 3.59642 160.599 3.60921 160.911 3.66041C161.23 3.718 161.464 3.90998 161.692 4.11476C161.965 4.37073 162.29 4.47952 162.661 4.41553C162.888 4.37713 163.109 4.32594 163.331 4.28114C163.825 4.17875 164.267 4.28754 164.644 4.62031C164.735 4.6971 164.82 4.78029 164.917 4.83788C165.067 4.93387 165.19 4.88908 165.229 4.7227C165.268 4.55631 165.301 4.37073 165.268 4.20435C165.06 2.86689 166.153 1.51664 167.675 1.24787C168.117 1.17107 168.572 1.10068 169.021 1.10068C169.964 1.11348 170.829 0.844709 171.694 0.531143C172.325 0.307166 172.968 0.095989 173.638 0.0191972C174.64 -0.0831919 175.394 0.287969 175.921 1.11348C176.194 1.54223 176.461 1.97739 176.721 2.41894C176.929 2.7645 176.942 3.01408 176.636 3.27645C176.109 3.7244 176.357 4.87628 176.753 5.26664C176.942 5.45862 177.189 5.52261 177.449 5.52901C177.8 5.52901 178.145 5.49061 178.49 5.52901C179.296 5.6058 179.92 6.27133 179.94 7.07764C179.946 7.27602 179.927 7.4744 179.914 7.67918L179.901 8.09514C179.901 8.37031 179.914 8.65188 179.972 8.92065C180.044 9.23421 180.233 9.3494 180.564 9.3302C180.597 9.3302 180.629 9.3302 180.662 9.31741C181.267 9.10623 181.832 9.29181 182.405 9.47099C182.743 9.57978 183.088 9.65657 183.432 9.72056C183.79 9.77816 184.128 9.67577 184.447 9.49019C184.603 9.4006 184.765 9.3174 184.934 9.24061C185.624 8.93985 186.203 9.18942 186.456 9.88054C186.541 10.1173 186.599 10.3669 186.69 10.5973C186.749 10.7509 186.84 10.898 186.944 11.026C187.087 11.186 187.282 11.2436 187.477 11.1412C188.108 10.8276 188.732 10.9108 189.357 11.154C190.241 11.506 191.132 11.8451 192.01 12.2035C192.712 12.4915 193.33 12.901 193.701 13.5793C193.922 13.9953 194.059 14.4241 193.942 14.904" fill="#00B3DC"/>
    <path d="M190.852 20.7402C190.722 20.7402 190.592 20.7594 190.462 20.7722C190.234 20.7978 190.072 20.913 189.974 21.1177C189.948 21.1753 189.916 21.2329 189.883 21.2905C189.727 21.6105 189.474 21.7961 189.116 21.8601C188.563 21.9625 188.342 22.2504 188.381 22.8136C188.394 22.9863 188.401 23.1591 188.401 23.3319C188.388 23.7223 188.212 23.9654 187.835 24.0742C187.562 24.151 187.275 24.1958 186.996 24.247C186.163 24.4134 185.39 24.7206 184.674 25.1685C184.043 25.5653 183.373 25.7509 182.619 25.6165C181.949 25.5013 181.416 25.7061 181.026 26.2756C180.805 26.5956 180.512 26.8323 180.128 26.9731C179.758 27.1139 179.491 27.3635 179.348 27.741C179.296 27.8818 179.224 28.0226 179.146 28.157C178.977 28.4386 178.743 28.6241 178.405 28.6817C178.327 28.6945 178.249 28.7073 178.177 28.7265C177.989 28.7649 177.807 28.8289 177.761 29.0337C177.716 29.2321 177.846 29.3793 177.982 29.5009C178.073 29.5776 178.171 29.6544 178.275 29.6992C178.821 29.9552 179.062 30.4032 179.12 30.9791C179.192 31.6254 179.524 31.8558 180.167 31.7214C180.616 31.6318 181.006 31.4078 181.39 31.1647C181.611 31.0239 181.819 30.8639 182.053 30.7551C182.639 30.4671 183.204 30.7807 183.282 31.427C183.419 32.5725 182.444 33.3276 181.338 32.9309C181.039 32.8221 180.746 32.6877 180.441 32.5981C180.089 32.4893 179.907 32.5661 179.771 32.8989C179.55 33.4364 179.12 33.7244 178.594 33.9036C178.509 33.9356 178.424 33.974 178.333 33.9868C177.651 34.0892 177.13 34.4667 176.649 34.9211C176.194 35.337 175.674 35.593 175.036 35.5482C174.516 35.5162 174.106 35.2282 174.067 34.8059C174.041 34.5563 174.087 34.2939 174.119 34.038C174.132 33.9164 174.191 33.8076 174.243 33.6924C174.405 33.3276 174.353 32.9949 174.113 32.6813C173.645 32.0734 173.04 31.6958 172.285 31.523C172.045 31.4654 171.811 31.3695 171.609 31.2415C171.316 31.0559 171.323 30.7423 171.622 30.5695C171.882 30.416 172.175 30.3072 172.467 30.2176C173.072 30.0256 173.658 29.7824 174.197 29.4561C174.353 29.3665 174.49 29.2321 174.588 29.0913C174.744 28.8545 174.666 28.6561 174.386 28.5921C174.048 28.5218 173.703 28.4962 173.456 28.4706C172.871 28.5218 172.389 28.5666 171.902 28.5921C170.926 28.6497 170.211 28.2082 169.665 27.4403C169.56 27.2995 169.385 27.1907 169.222 27.1139C168.962 26.9795 168.852 26.8643 168.904 26.6724C168.956 26.474 169.177 26.314 169.424 26.346C169.632 26.378 169.827 26.4548 170.029 26.5124C170.107 26.538 170.185 26.5828 170.269 26.5956C170.347 26.602 170.425 26.5764 170.503 26.5636C170.484 26.474 170.49 26.3588 170.432 26.3076C170.295 26.1924 170.139 26.0836 169.97 26.0196C169.261 25.7381 168.526 25.7381 167.792 25.8596C167.59 25.8916 167.395 25.9492 167.2 26.0068C166.53 26.2116 166.101 26.6212 165.958 27.3187C165.906 27.5811 165.821 27.8434 165.763 28.1058C165.574 28.8481 165.099 29.2961 164.351 29.4945C164.124 29.552 163.903 29.6352 163.688 29.7312C163.246 29.9232 163.096 30.2176 163.194 30.6847C163.22 30.7935 163.259 30.9087 163.285 31.0175C163.311 31.1135 163.343 31.2095 163.356 31.3183C163.382 31.5166 163.402 31.7214 163.187 31.8302C162.992 31.9326 162.856 31.7726 162.719 31.6766C162.68 31.651 162.641 31.619 162.615 31.587C162.264 31.2223 161.861 31.2223 161.431 31.4014C161.126 31.5294 160.827 31.651 160.521 31.7662C160.183 31.8942 159.845 31.907 159.506 31.7534C159.22 31.6254 158.934 31.5038 158.667 31.3439C158.362 31.1583 158.362 30.9663 158.589 30.6975C159.181 29.9744 159.773 29.2513 160.365 28.5282C160.423 28.4578 160.475 28.381 160.547 28.3234C160.866 28.0866 160.794 27.7986 160.677 27.5043C160.599 27.3059 160.508 27.0947 160.501 26.8835C160.482 26.3396 160.846 26.1092 161.353 26.3076C161.711 26.4484 162.056 26.6276 162.42 26.7427C162.68 26.8195 162.973 26.8451 163.252 26.8323C163.681 26.8131 163.825 26.5764 163.642 26.186C163.506 25.898 163.343 25.6101 163.155 25.3541C162.53 24.4838 162.088 23.5239 161.594 22.5832C161.34 22.1032 161.327 21.5657 161.282 21.0346C161.236 20.5674 161.009 20.2474 160.566 20.0811C159.981 19.8571 159.389 19.6523 158.811 19.4027C158.407 19.2299 158.017 19.0316 157.653 18.7948C156.964 18.3468 156.216 18.2701 155.429 18.3532C154.323 18.4748 153.439 18.9932 152.717 19.8059C152.327 20.241 151.845 20.5546 151.234 20.593C151.02 20.6122 150.798 20.593 150.59 20.5546C150.259 20.497 149.999 20.5674 149.784 20.8298C149.686 20.9514 149.576 21.0602 149.459 21.1625C149.14 21.4185 148.808 21.4377 148.464 21.2009C148.256 21.0602 148.061 20.9002 147.872 20.7274C147.566 20.4586 147.209 20.4074 146.825 20.4906C146.539 20.5546 146.253 20.6442 145.973 20.7082C145.602 20.785 145.258 20.7082 144.932 20.5226C144.893 20.497 144.854 20.4778 144.815 20.4522C144.269 20.0235 143.651 19.9531 142.975 20.0491C141.954 20.1962 140.855 19.4219 140.614 18.43C140.523 18.0653 140.673 17.7197 140.718 17.3613C140.829 16.5422 141.356 15.9855 141.934 15.4544C142.078 15.32 142.123 15.1984 142.104 15C142.091 14.9104 142.084 14.8144 142.078 14.7248C142.071 14.6352 142.058 14.5456 142.058 14.4561C149.348 12.5747 159.396 12.3507 170.178 14.2385C174.126 14.9296 177.872 15.8575 181.351 16.9582C184.83 18.0589 188.03 19.3387 190.865 20.7402" fill="#FFDD00"/>
  </g>
  <defs>
    <clipPath id="clip0_571_189">
      <rect width="194" height="60" fill="white"/>
    </clipPath>
  </defs>
</svg>