<svg width="185" height="129" viewBox="0 0 185 129" fill="none" xmlns="http://www.w3.org/2000/svg">
<g id="Group 29">
<path id="Vector" d="M92.0782 128.226C71.6459 128.226 51.2136 128.303 30.7854 128.173C25.4076 128.141 19.9852 127.564 15.0617 125.084C7.57497 121.316 2.89882 115.356 1.27251 107.03C0.0598796 100.83 0.0720464 94.5618 0.0639352 88.3015C0.0477126 70.5032 -0.151013 52.7008 0.246439 34.9024C0.376219 29.105 1.03729 23.3644 2.17692 17.6603C4.69547 5.05453 18.6144 -2.59015 29.7877 0.807937C35.8833 2.65922 41.6423 5.2088 47.1945 8.2618C58.096 14.2622 68.9327 20.3845 79.8545 26.3524C88.1401 30.8792 96.442 30.7127 104.703 26.0885C115.86 19.8445 126.997 13.5599 138.26 7.51479C144.12 4.36841 150.155 1.51841 156.822 0.328876C163.997 -0.954033 169.922 1.65644 175.247 6.08167C180.179 10.1821 181.817 15.9146 182.713 21.9556C183.776 29.1091 183.971 36.3193 184.019 43.5296C184.109 56.9474 184.259 70.3611 184.137 83.7788C184.064 91.5818 184.226 99.4133 182.766 107.155C180.815 117.504 172.952 125.262 162.606 127.162C156.66 128.254 150.678 128.364 144.684 128.372C127.151 128.4 109.619 128.384 92.0863 128.384V128.226H92.0782Z" fill="#18BCDA"/>
</g>
</svg>
