<svg width="161" height="166" viewBox="0 0 161 166" fill="none" xmlns="http://www.w3.org/2000/svg">
<g id="Group 16">
<g id="Group">
<g id="OBJECTS">
<g id="Group_2">
<g id="Group_3">
<path id="Vector" d="M14.2892 87.5755C10.5504 87.5755 6.81157 86.1022 4.00877 83.1766C-1.47722 77.4512 -1.31602 68.3335 4.35717 62.8021C24.97 42.7265 52.1087 31.6689 80.7763 31.6689C109.444 31.6689 135.569 42.3281 156.025 61.6801C161.782 67.1276 162.068 76.2453 156.67 82.0493C151.267 87.8534 142.225 88.1418 136.468 82.6995C121.326 68.3755 101.55 60.49 80.7763 60.49C60.0023 60.49 39.4727 68.6743 24.216 83.5331C21.4444 86.2333 17.8616 87.5808 14.2892 87.5808V87.5755Z" fill="white"/>
<g id="Vector_2" style="mix-blend-mode:multiply" opacity="0.21">
<path d="M156.67 73.6343C151.267 79.4383 142.224 79.7267 136.468 74.2844C121.326 59.9604 101.55 52.0749 80.7759 52.0749C60.002 52.0749 39.4724 60.2593 24.2156 75.1181C21.444 77.8182 17.8612 79.1657 14.2888 79.1657C10.7164 79.1657 6.8112 77.6924 4.0084 74.7668C2.3808 73.068 1.2576 71.0757 0.618003 68.9627C-0.843196 73.8073 0.269603 79.281 4.0084 83.1819C6.8112 86.1075 10.55 87.5808 14.2888 87.5808C18.0276 87.5808 21.444 86.2386 24.2156 83.5332C39.4724 68.6744 59.5548 60.49 80.7759 60.49C101.997 60.49 121.331 68.3755 136.468 82.6995C142.224 88.1418 151.267 87.8534 156.67 82.0494C160.299 78.1538 161.355 72.7587 159.915 67.9875C159.296 70.0323 158.219 71.9722 156.67 73.6343Z" fill="white"/>
</g>
</g>
<g id="Group_4">
<path id="Vector_3" d="M119.953 126.668C116.297 126.668 112.637 125.263 109.849 122.447C102.086 114.619 91.7587 110.304 80.7815 110.304C69.8043 110.304 59.4771 114.614 51.7135 122.447C46.1339 128.073 37.0859 128.073 31.5011 122.447C25.9215 116.821 25.9215 107.698 31.5011 102.067C44.6623 88.7971 62.1655 81.4883 80.7815 81.4883C99.3975 81.4883 116.895 88.7971 130.062 102.067C135.641 107.693 135.641 116.816 130.062 122.447C127.269 125.263 123.614 126.668 119.958 126.668H119.953Z" fill="white"/>
<g id="Vector_4" style="mix-blend-mode:multiply" opacity="0.21">
<path d="M130.057 116.328C127.265 119.144 123.609 120.549 119.953 120.549C116.298 120.549 112.637 119.144 109.85 116.328C102.086 108.501 91.7591 104.185 80.7819 104.185C69.8047 104.185 59.4775 108.495 51.7139 116.328C46.1343 121.954 37.0863 121.954 31.5015 116.328C29.4891 114.299 28.2047 111.814 27.6431 109.198C26.6499 113.827 27.9343 118.85 31.5015 122.447C37.0811 128.073 46.1291 128.073 51.7139 122.447C59.4775 114.619 69.8047 110.304 80.7819 110.304C91.7591 110.304 102.086 114.614 109.85 122.447C112.642 125.263 116.298 126.668 119.953 126.668C123.609 126.668 127.27 125.263 130.057 122.447C133.624 118.85 134.909 113.827 133.915 109.198C133.354 111.809 132.075 114.294 130.057 116.328Z" fill="white"/>
</g>
</g>
<g id="Group_5">
<path id="Vector_5" d="M79.2633 165.996C92.1781 165.996 102.648 155.44 102.648 142.418C102.648 129.396 92.1781 118.84 79.2633 118.84C66.3484 118.84 55.8789 129.396 55.8789 142.418C55.8789 155.44 66.3484 165.996 79.2633 165.996Z" fill="white"/>
<g id="Vector_6" style="mix-blend-mode:multiply" opacity="0.21">
<path d="M88.2596 120.649C90.3136 121.613 92.2376 122.95 93.9328 124.654C101.712 132.498 101.712 145.207 93.9328 153.051C86.1536 160.894 73.5488 160.894 65.7696 153.051C57.9904 145.207 57.9904 132.498 65.7696 124.654C69.1236 121.273 73.372 119.354 77.7452 118.887C65.5356 119.679 55.874 129.903 55.874 142.413C55.874 154.922 66.3468 165.99 79.2584 165.99C92.17 165.99 102.643 155.431 102.643 142.413C102.643 132.608 96.7044 124.198 88.2544 120.643L88.2596 120.649Z" fill="white"/>
</g>
</g>
</g>
<g id="Group_6">
<g id="Vector_7" style="mix-blend-mode:multiply" opacity="0.21">
<path d="M109.589 62.2987C109.589 62.2987 111.242 61.3445 111.164 60.6315C111.086 59.9184 112.423 44.2627 111.398 42.2756C111.398 42.2756 110.691 41.3213 110.057 43.1511C109.428 44.981 108.954 62.5399 107.852 63.0957C106.75 63.6514 108.72 63.4942 109.584 62.2987H109.589Z" fill="#1272B2"/>
</g>
<g id="Vector_8" style="mix-blend-mode:multiply" opacity="0.21">
<path d="M115.897 63.5728C115.897 63.5728 118.892 59.8398 117.946 57.0557C117 54.2769 114.873 39.7327 115.346 39.1769C115.819 38.6212 124.644 35.3653 125.117 35.8424C125.59 36.3195 125.668 36.7966 125.273 37.1951C124.878 37.5935 118.731 40.5296 117.551 40.7708C117.551 40.7708 119.844 59.0428 119.678 60.0757C119.678 60.0757 117.473 63.4103 115.897 63.5728Z" fill="#1272B2"/>
</g>
<g id="Group_7">
<g id="Group_8">
<path id="Vector_9" d="M118.143 0.0218978C118.143 0.0218978 114.503 -0.449976 113.754 4.30547C113.006 9.06091 114.966 11.8869 114.41 13.1557C113.848 14.4245 110.021 22.6194 119.079 23.1385C128.138 23.6575 129.677 21.3034 130.051 19.6571C130.426 18.0108 130.051 11.5094 125.101 10.5237C125.101 10.5237 123.515 7.79209 123.749 6.57046C123.983 5.34883 122.766 -0.444733 118.143 0.0271409V0.0218978Z" fill="#0A1731"/>
<g id="Group_9">
<path id="Vector_10" d="M109.475 59.5409C109.475 59.5409 109.833 61.5228 109.677 61.764C109.516 62.0052 106.505 65.4026 105.788 65.4026C105.07 65.4026 104.425 64.4746 106.23 61.6381C106.23 61.6381 106.833 60.7888 106.672 59.6982C106.672 59.6982 107.956 57.4752 109.48 59.5357L109.475 59.5409Z" fill="#F6A36A"/>
<path id="Vector_11" d="M105.388 62.907C105.554 62.7549 106.526 63.6253 107.457 62.692C108.383 61.7587 109.594 60.3169 109.813 60.6787C110.026 61.0404 110.099 61.4704 110.026 61.9003C109.953 62.3302 106.386 66.5037 104.821 66.1419C103.25 65.7801 104.535 63.6987 105.393 62.907H105.388Z" fill="#0A1731"/>
</g>
<g id="Group_10">
<path id="Vector_12" d="M118.855 59.0743C118.855 59.0743 119.214 61.0562 119.058 61.2974C118.897 61.5385 115.886 64.936 115.169 64.936C114.451 64.936 113.806 64.008 115.611 61.1715C115.611 61.1715 116.214 60.3222 116.053 59.2316C116.053 59.2316 117.337 57.0086 118.861 59.0691L118.855 59.0743Z" fill="#F6A36A"/>
<path id="Vector_13" d="M114.872 62.1153C115.038 61.9632 116.011 62.8336 116.942 61.9003C117.867 60.967 119.079 59.5252 119.297 59.887C119.51 60.2487 119.583 60.6787 119.51 61.1086C119.438 61.5385 115.87 65.712 114.305 65.3502C112.735 64.9885 114.019 62.907 114.877 62.1153H114.872Z" fill="#0A1731"/>
</g>
<g id="Group_11">
<path id="Vector_14" d="M116.931 29.3672C116.931 29.3672 105.99 35.5907 105.694 37.1217C105.398 38.6527 107.358 40.6607 108.892 40.1522C110.421 39.6436 118.034 36.1412 119.76 34.6103C121.486 33.0793 120.623 28.6437 116.931 29.3672Z" fill="#0A1731"/>
<path id="Vector_15" d="M121.45 29.729C121.45 29.729 110.073 35.8424 110.026 37.5254C109.979 39.2084 112.616 41.5887 114.274 41.1378C115.933 40.6817 124.004 37.3576 125.699 35.7794C127.389 34.2065 125.553 29.1994 121.45 29.729Z" fill="#0A1731"/>
<path id="Vector_16" d="M110.894 39.1193C110.894 39.1193 111.924 41.2847 111.201 44.7031C110.478 48.1216 109.849 59.4204 109.849 59.4204L106.719 59.6039C106.719 59.6039 105.159 38.5164 105.648 37.2528C106.136 35.984 110.822 35.6327 110.894 39.1193Z" fill="#0A1731"/>
<path id="Vector_17" d="M115.621 38.6003C115.621 38.6003 117.088 40.493 117.108 43.9901C117.129 47.482 118.913 58.6601 118.913 58.6601L115.897 59.5148C115.897 59.5148 109.896 39.2556 110.104 37.9134C110.312 36.5712 114.815 35.2185 115.626 38.6055L115.621 38.6003Z" fill="#0A1731"/>
<path id="Vector_18" d="M123.509 37.1217C123.509 37.1217 128.361 35.7795 126 30.6623C126 30.6623 121.897 32.964 114.004 30.9349C114.004 30.9349 113.146 38.4902 123.514 37.1217H123.509Z" fill="#0A1731"/>
<g id="Group_12" opacity="0.3">
<path id="Vector_19" d="M116.843 41.206C116.417 39.1979 114.409 37.8714 114.389 37.8609L114.472 37.7299C114.472 37.7299 116.552 39.0983 116.994 41.1745L116.843 41.206Z" fill="#67AFE9"/>
</g>
<g id="Group_13" opacity="0.4">
<path id="Vector_20" d="M111.342 43.6178C110.707 42.1812 109.979 37.7246 109.948 37.5359V37.5149V37.4939C110.531 35.9734 113.531 34.4215 113.661 34.3586L113.734 34.5001C113.703 34.5159 110.687 36.0731 110.104 37.5359C110.161 37.8767 110.879 42.1864 111.482 43.5601L111.342 43.623V43.6178Z" fill="#67AFE9"/>
</g>
</g>
<g id="Group_14">
<g id="Group_15">
<path id="Vector_21" d="M124.852 13.3498C124.852 13.3498 127.447 13.1453 128.523 22.5409C128.523 22.5409 128.139 24.8425 126.74 23.4794C125.341 22.1214 122.445 13.1348 124.852 13.3446V13.3498Z" fill="#FF8BB1"/>
<path id="Vector_22" d="M114.81 14.325C114.81 14.325 112.538 14.0733 110.921 24.5175C110.921 24.5175 111.098 27.0813 112.429 25.5818C113.755 24.0823 116.948 14.1153 114.81 14.325Z" fill="#FF8BB1"/>
<path id="Vector_23" d="M123.167 25.0156L123.89 22.6143H123.916L124.165 21.6915L124.191 21.6023L125.309 17.518C125.309 17.518 126.687 14.4718 125.273 13.6486C124.145 12.988 122.169 12.7416 121.415 12.7101C120.328 13.6434 119.033 13.3236 117.707 12.8045C116.771 13.2554 114.977 14.1887 114.577 14.3145C114.005 14.4928 113.984 16.8731 114.509 18.488C114.53 18.5509 114.551 18.6138 114.571 18.6767C114.551 18.6977 114.53 18.7187 114.509 18.7396C113.791 19.4212 114.161 21.8645 115.903 22.8659C115.955 23.0285 115.986 23.1228 115.986 23.1228H116.022C116.235 23.8097 116.532 24.9264 116.412 25.5556C116.1 25.9383 113.698 28.9374 114.005 30.935C114.005 30.935 121.279 33.0165 126.001 30.6623C126.001 30.6623 125.148 26.9974 123.172 25.0156H123.167Z" fill="#FF8BB1"/>
<g id="Vector_24" style="mix-blend-mode:multiply" opacity="0.33">
<path d="M115.658 14.5557C116.095 14.8808 116.615 15.059 117.14 15.1796C118.086 15.3946 119.1 15.4942 120.062 15.3736C121.056 15.253 122.054 14.9175 122.86 14.2988C123.364 13.916 123.624 13.5123 123.739 13.0667C122.824 12.8307 121.882 12.7259 121.409 12.7101C120.322 13.6434 119.028 13.3236 117.702 12.8045C117.02 13.1296 115.887 13.7168 115.164 14.0576C115.325 14.2778 115.585 14.498 115.653 14.5505L115.658 14.5557Z" fill="#DD5829"/>
</g>
<g id="Vector_25" style="mix-blend-mode:multiply" opacity="0.23">
<path d="M125.996 30.6623C125.996 30.6623 125.143 26.9974 123.167 25.0155L123.89 22.6142H123.916L124.166 21.6915L124.192 21.6023L125.278 17.6281C124.914 16.978 124.587 16.3226 124.342 15.6357C124.218 17.4551 123.76 19.2901 123.349 21.0151C123.115 22.006 122.86 23.0284 122.335 23.9093C121.867 24.6957 121.207 25.2725 120.427 25.7129C120.936 25.7863 121.41 25.9645 121.763 26.363C122.179 26.8296 122.361 27.4693 122.522 28.0618C122.845 29.2467 122.912 30.4631 122.668 31.6375C123.833 31.475 124.972 31.1761 125.996 30.6675V30.6623Z" fill="#DD5829"/>
</g>
<g id="Group_16">
<g id="Group_17">
<path id="Vector_26" d="M117.649 9.92081C117.649 9.92081 118.029 12.2173 117.759 12.7258C117.488 13.2344 120.416 14.2516 121.373 12.8831C121.373 12.8831 120.827 9.93654 121.237 9.41748C121.237 9.41748 119.001 7.54047 117.649 9.92081Z" fill="#F0CF9A"/>
<g id="Group_18">
<path id="Vector_27" d="M117.649 9.92081C117.649 9.92081 118.029 12.2173 117.759 12.7258C117.488 13.2344 120.416 14.2516 121.373 12.8831C121.373 12.8831 120.827 9.93654 121.237 9.41748C121.237 9.41748 119.001 7.54047 117.649 9.92081Z" fill="#F6A36A"/>
<g id="Vector_28" style="mix-blend-mode:multiply" opacity="0.3">
<path d="M117.847 12.2745C118.955 11.8865 120.094 11.5353 121.113 10.9795C121.056 10.2979 121.061 9.64251 121.233 9.4223C121.233 9.4223 118.997 7.5453 117.645 9.92564C117.645 9.92564 117.894 11.4356 117.842 12.2745H117.847Z" fill="#D85369"/>
</g>
</g>
</g>
<g id="Group_19">
<path id="Vector_29" d="M122.288 4.79313C122.189 2.26598 120.255 0.305082 117.967 0.415186C115.679 0.525289 113.9 2.66445 113.999 5.1916C114.009 5.40656 113.931 6.14583 113.968 6.35031C113.968 6.35031 113.739 6.72781 113.708 7.19444C113.671 7.66107 114.893 10.4976 117.275 11.8975C117.275 11.8975 120.447 10.4609 121.659 8.94038C121.659 8.94038 122.137 7.63486 122.241 6.16681C122.241 6.0934 122.236 6.02524 122.205 5.95184C122.277 5.57958 122.309 5.1916 122.293 4.78788L122.288 4.79313Z" fill="#F6A36A"/>
<g id="Group_20">
<path id="Vector_30" d="M122.194 5.96232C122.194 5.96232 123.187 5.49045 123.151 6.53906C123.114 7.59291 122.449 8.42655 121.689 8.24305C121.689 8.24305 121.819 6.40798 122.194 5.96232Z" fill="#F6A36A"/>
<g id="Vector_31" style="mix-blend-mode:multiply" opacity="0.3">
<path d="M122.075 6.23498C122.075 6.23498 122.714 5.89418 122.683 6.63345C122.652 7.37272 122.215 7.97043 121.731 7.84459C121.731 7.84459 121.825 6.54956 122.069 6.22974L122.075 6.23498Z" fill="#D85369"/>
</g>
</g>
<g id="Group_21">
<path id="Vector_32" d="M115.585 5.02385C114.81 4.73548 114.212 4.88228 113.791 5.12346C113.791 5.19687 113.801 5.27551 113.801 5.34891C114.732 4.93471 115.429 5.22832 115.538 5.17065C115.679 5.09725 115.59 5.02385 115.59 5.02385H115.585Z" fill="#0A1731"/>
<g id="Group_22">
<g id="Vector_33" style="mix-blend-mode:multiply" opacity="0.7">
<path d="M115.985 5.4328C115.985 5.4328 115.996 5.67398 115.975 6.03575C115.965 6.21401 115.944 6.42374 115.913 6.64919C115.876 6.87464 115.835 7.11057 115.746 7.34651L115.71 7.43564L115.658 7.51953C115.647 7.54575 115.611 7.57721 115.585 7.60342L115.554 7.62964L115.523 7.66109C115.476 7.70828 115.471 7.81314 115.512 7.90227C115.59 8.08578 115.757 8.21686 115.907 8.29026C115.944 8.31123 115.985 8.32696 116.022 8.33745C116.058 8.35318 116.095 8.36366 116.126 8.3689C116.193 8.38988 116.256 8.39512 116.308 8.40036C116.36 8.40036 116.401 8.40036 116.427 8.40036C116.453 8.40036 116.469 8.40036 116.469 8.40036C116.469 8.40036 116.453 8.40036 116.427 8.41085C116.401 8.41085 116.36 8.42658 116.308 8.43182C116.256 8.43182 116.188 8.43706 116.115 8.43182C116.079 8.43182 116.037 8.42133 115.996 8.41085C115.954 8.40561 115.913 8.38988 115.871 8.37415C115.783 8.34269 115.694 8.2955 115.606 8.22734C115.523 8.15918 115.439 8.07529 115.382 7.95995C115.367 7.93373 115.356 7.90227 115.346 7.87082C115.335 7.83936 115.33 7.80266 115.33 7.76595C115.325 7.72925 115.341 7.69255 115.346 7.65585C115.361 7.61915 115.387 7.57196 115.408 7.55099L115.439 7.51953L115.465 7.49856L115.476 7.48807C115.476 7.48807 115.507 7.46186 115.517 7.43564L115.559 7.36748L115.59 7.28884C115.632 7.18398 115.663 7.07387 115.694 6.95853C115.72 6.84842 115.746 6.73307 115.767 6.62821C115.809 6.40801 115.845 6.20353 115.876 6.03051C115.939 5.67398 115.975 5.43804 115.975 5.43804L115.985 5.4328Z" fill="#D85369"/>
</g>
<path id="Vector_34" d="M120 5.71592C120 5.71592 119.059 4.32651 117.359 5.0081C117.359 5.0081 117.27 5.08675 117.416 5.15491C117.561 5.22307 118.627 4.70401 120 5.72116V5.71592Z" fill="#0A1731"/>
</g>
</g>
</g>
</g>
<path id="Vector_35" d="M128.112 23.5737C128.112 23.5737 128.388 24.6223 118.934 28.9741L117.582 27.506C117.582 27.506 124.727 21.4713 126.911 21.5132C129.095 21.5552 128.44 23.2906 128.107 23.579L128.112 23.5737Z" fill="#FF8BB1"/>
<g id="Vector_36" style="mix-blend-mode:multiply" opacity="0.33">
<path d="M114.296 20.9732C114.296 20.9732 113.807 19.9875 114.946 17.8536C114.946 17.8536 115.679 16.9517 115.596 15.7983C115.596 15.7983 116.001 16.9465 115.268 18.1786C114.535 19.4107 114.129 20.0661 114.29 20.9679L114.296 20.9732Z" fill="#DD5829"/>
</g>
<g id="Vector_37" style="mix-blend-mode:multiply" opacity="0.23">
<path d="M118.954 28.7538C119.516 28.4759 120.083 28.2138 120.65 27.9464L122.355 27.1652L124.066 26.3997C124.352 26.2739 124.638 26.1428 124.919 26.0117C125.2 25.8754 125.491 25.7548 125.751 25.5818C125.246 25.9593 124.674 26.2319 124.118 26.5151C123.556 26.7982 122.99 27.0551 122.418 27.3172C121.846 27.5689 121.274 27.8206 120.696 28.0617C120.119 28.3029 119.537 28.5336 118.949 28.7538H118.954Z" fill="#DD5829"/>
</g>
<g id="Vector_38" style="mix-blend-mode:multiply" opacity="0.23">
<path d="M117.582 27.5008C118.133 27.0027 118.7 26.5203 119.272 26.0484C119.844 25.5713 120.426 25.1099 121.003 24.6486C121.591 24.1924 122.178 23.7415 122.787 23.3063C123.088 23.0914 123.395 22.8764 123.702 22.6719C123.863 22.5723 124.014 22.4675 124.175 22.3783L124.42 22.242L124.674 22.1319L124.43 22.263L124.196 22.415C124.04 22.5146 123.894 22.63 123.744 22.7348C123.442 22.9551 123.146 23.1753 122.854 23.406C122.267 23.8569 121.679 24.313 121.097 24.7744L119.339 26.1428C118.752 26.599 118.164 27.0551 117.571 27.5008H117.582Z" fill="#DD5829"/>
</g>
</g>
<path id="Vector_39" d="M116.927 1.2488C116.901 1.44279 117.957 3.88605 119.87 4.77737C121.784 5.67393 121.269 7.98087 120.806 8.91937C120.806 8.91937 122.049 7.51948 122.34 6.05143C122.632 4.58862 122.866 0.771682 118.518 0.158246C118.518 0.158246 117.12 -0.077691 116.932 1.24356L116.927 1.2488Z" fill="#0A1731"/>
<path id="Vector_40" d="M117.629 2.14013C117.629 2.14013 115.248 5.39082 113.849 5.6687C113.849 5.6687 113.053 1.05482 117.629 0.158264C117.629 0.158264 118.238 1.47427 117.629 2.13489V2.14013Z" fill="#0A1731"/>
<path id="Vector_41" d="M117.161 6.2926C117.161 6.2926 118.102 6.87458 119.101 6.24017C119.101 6.24017 118.212 7.24159 117.161 6.2926Z" fill="#0A1731"/>
<path id="Vector_42" d="M113.708 6.24017C113.708 6.24017 114.498 6.82215 115.33 6.18774C115.33 6.18774 114.587 7.18917 113.708 6.24017Z" fill="#0A1731"/>
</g>
<g id="Group_23">
<path id="Vector_43" d="M120.072 35.2971L125.486 33.483L110.608 32.8119L105.757 34.3271L120.072 35.2971Z" fill="#EAD4CE"/>
<path id="Vector_44" d="M120.073 35.2971L104.504 34.2433L104.608 23.1437L119.885 23.9564L120.073 35.2971Z" fill="white"/>
<path id="Vector_45" opacity="0.47" d="M104.925 33.6036L105.024 23.1647L104.608 23.1437L104.504 34.2433L120.073 35.2971L120.062 34.626L104.925 33.6036Z" fill="#CC9A8F"/>
<path id="Vector_46" d="M119.886 23.9564L120.302 23.8777L120.385 35.2552L120.073 35.2971L119.886 23.9564Z" fill="#EFCFC7"/>
<path id="Vector_47" d="M120.385 35.2552L125.486 33.483L125.569 33.1475L120.385 34.7466V35.2552Z" fill="#CC9A8F"/>
<path id="Vector_48" d="M112.782 29.0159C112.782 29.6661 112.371 30.1956 111.862 30.1956C111.352 30.1956 110.941 29.6661 110.941 29.0159C110.941 28.3658 111.352 27.8362 111.862 27.8362C112.371 27.8362 112.782 28.3658 112.782 29.0159Z" fill="#CC9A8F"/>
</g>
</g>
<path id="Vector_49" d="M116.204 9.50658C116.204 9.50658 116.068 9.72679 116.188 9.85787C116.308 9.98894 117.082 9.92078 117.384 9.33881C117.384 9.33881 116.588 9.61669 116.204 9.50658Z" fill="#E86B87"/>
<path id="Vector_50" d="M115.923 9.18676C115.923 9.18676 115.923 9.4961 116.048 9.53804C116.172 9.57999 117.264 9.56426 117.488 9.25492C117.488 9.25492 116.162 9.07141 115.923 9.18676Z" fill="#D85369"/>
</g>
</g>
</g>
</g>
</g>
</svg>
