<svg width="170" height="174" viewBox="0 0 170 174" fill="none" xmlns="http://www.w3.org/2000/svg">
<g id="Group">
<g id="OBJECTS">
<g id="Group_2">
<g id="Group_3">
<path id="Vector" d="M15.1003 91.796C11.1493 91.796 7.19835 90.2518 4.23649 87.1851C-1.56083 81.1838 -1.39049 71.6268 4.60466 65.8288C26.3872 44.7857 55.0661 33.1952 85.3606 33.1952C115.655 33.1952 143.262 44.368 164.88 64.6527C170.963 70.3627 171.265 79.9198 165.561 86.0036C159.852 92.0873 150.296 92.3896 144.213 86.685C128.211 71.6707 107.313 63.4052 85.3606 63.4052C63.4077 63.4052 41.713 71.984 25.5904 87.5588C22.6615 90.3891 18.8754 91.8015 15.1003 91.8015V91.796Z" fill="white"/>
<g id="Vector_2" style="mix-blend-mode:multiply" opacity="0.21">
<path d="M165.561 77.1829C159.852 83.2667 150.296 83.569 144.213 77.8644C128.211 62.8501 107.313 54.5845 85.3601 54.5845C63.4072 54.5845 41.7126 63.1634 25.59 78.7382C22.6611 81.5685 18.875 82.9809 15.0998 82.9809C11.3247 82.9809 7.1979 81.4366 4.23604 78.37C2.51608 76.5894 1.32914 74.501 0.65324 72.2862C-0.890881 77.3643 0.285069 83.1018 4.23604 87.1906C7.1979 90.2573 11.1489 91.8016 15.0998 91.8016C19.0508 91.8016 22.6611 90.3946 25.59 87.5589C41.7126 71.984 62.9346 63.4052 85.3601 63.4052C107.786 63.4052 128.216 71.6707 144.213 86.685C150.296 92.3896 159.852 92.0873 165.561 86.0036C169.397 81.9202 170.512 76.2651 168.99 71.264C168.336 73.4074 167.199 75.4408 165.561 77.1829Z" fill="white"/>
</g>
</g>
<g id="Group_4">
<path id="Vector_3" d="M126.761 132.772C122.898 132.772 119.029 131.299 116.084 128.348C107.88 120.143 96.9665 115.62 85.3664 115.62C73.7662 115.62 62.853 120.138 54.6488 128.348C48.7526 134.245 39.1911 134.245 33.2894 128.348C27.3931 122.451 27.3931 112.889 33.2894 106.986C47.1974 93.0766 65.6939 85.4155 85.3664 85.4155C105.039 85.4155 123.53 93.0766 137.443 106.986C143.34 112.883 143.34 122.446 137.443 128.348C134.492 131.299 130.629 132.772 126.766 132.772H126.761Z" fill="white"/>
<g id="Vector_4" style="mix-blend-mode:multiply" opacity="0.21">
<path d="M137.438 121.935C134.487 124.886 130.624 126.359 126.761 126.359C122.898 126.359 119.03 124.886 116.084 121.935C107.88 113.729 96.9668 109.206 85.3667 109.206C73.7666 109.206 62.8533 113.724 54.6491 121.935C48.7529 127.831 39.1914 127.831 33.2897 121.935C31.1631 119.808 29.8058 117.203 29.2123 114.46C28.1628 119.313 29.5201 124.578 33.2897 128.348C39.1859 134.245 48.7474 134.245 54.6491 128.348C62.8533 120.143 73.7666 115.62 85.3667 115.62C96.9668 115.62 107.88 120.137 116.084 128.348C119.035 131.299 122.898 132.772 126.761 132.772C130.624 132.772 134.493 131.299 137.438 128.348C141.208 124.578 142.565 119.313 141.516 114.46C140.922 117.197 139.57 119.802 137.438 121.935Z" fill="white"/>
</g>
</g>
<g id="Group_5">
<path id="Vector_5" d="M83.7612 173.996C97.409 173.996 108.473 162.931 108.473 149.281C108.473 135.632 97.409 124.567 83.7612 124.567C70.1135 124.567 59.0498 135.632 59.0498 149.281C59.0498 162.931 70.1135 173.996 83.7612 173.996Z" fill="white"/>
<g id="Vector_6" style="mix-blend-mode:multiply" opacity="0.21">
<path d="M93.2684 126.463C95.4389 127.474 97.4721 128.876 99.2635 130.662C107.484 138.883 107.484 152.205 99.2635 160.427C91.0428 168.648 77.7227 168.648 69.5021 160.427C61.2814 152.205 61.2814 138.883 69.5021 130.662C73.0464 127.117 77.5359 125.106 82.1573 124.616C69.2548 125.446 59.0449 136.163 59.0449 149.276C59.0449 162.389 70.112 173.99 83.7564 173.99C97.4007 173.99 108.468 162.922 108.468 149.276C108.468 138.999 102.192 130.184 93.2629 126.458L93.2684 126.463Z" fill="white"/>
</g>
</g>
</g>
<g id="Group_6">
<g id="Vector_7" style="mix-blend-mode:multiply" opacity="0.21">
<path d="M115.809 65.3013C115.809 65.3013 117.557 64.3011 117.474 63.5536C117.392 62.8062 118.804 46.396 117.722 44.3131C117.722 44.3131 116.974 43.3129 116.304 45.2309C115.639 47.1489 115.139 65.5541 113.974 66.1366C112.809 66.7192 114.892 66.5543 115.804 65.3013H115.809Z" fill="white"/>
</g>
<g id="Vector_8" style="mix-blend-mode:multiply" opacity="0.21">
<path d="M122.474 66.6367C122.474 66.6367 125.64 62.7237 124.639 59.8055C123.639 56.8928 121.392 41.6476 121.892 41.0651C122.392 40.4826 131.717 37.0697 132.217 37.5698C132.717 38.0699 132.8 38.57 132.382 38.9877C131.964 39.4054 125.469 42.483 124.222 42.7358C124.222 42.7358 126.645 61.8884 126.469 62.971C126.469 62.971 124.139 66.4663 122.474 66.6367Z" fill="white"/>
</g>
<g id="Group_7">
<g id="Group_8">
<path id="Vector_9" d="M124.849 0.0230811C124.849 0.0230811 121.002 -0.471533 120.211 4.51308C119.42 9.4977 121.491 12.4599 120.903 13.7899C120.31 15.1198 116.265 23.7096 125.838 24.2537C135.41 24.7978 137.037 22.3302 137.432 20.6046C137.828 18.8789 137.432 12.0642 132.201 11.031C132.201 11.031 130.525 8.16774 130.772 6.88724C131.02 5.60673 129.734 -0.466038 124.849 0.0285768V0.0230811Z" fill="#0A1731"/>
<g id="Group_9">
<path id="Vector_10" d="M115.688 62.4105C115.688 62.4105 116.067 64.4879 115.902 64.7407C115.732 64.9935 112.55 68.5547 111.792 68.5547C111.034 68.5547 110.352 67.582 112.259 64.6088C112.259 64.6088 112.896 63.7185 112.726 62.5754C112.726 62.5754 114.083 60.2452 115.693 62.405L115.688 62.4105Z" fill="#F6A36A"/>
<path id="Vector_11" d="M111.369 65.9388C111.545 65.7794 112.572 66.6917 113.556 65.7135C114.534 64.7352 115.815 63.2239 116.045 63.6031C116.271 63.9823 116.348 64.433 116.271 64.8836C116.194 65.3343 112.424 69.7088 110.77 69.3296C109.111 68.9504 110.468 66.7686 111.375 65.9388H111.369Z" fill="#0A1731"/>
</g>
<g id="Group_10">
<path id="Vector_12" d="M125.602 61.9214C125.602 61.9214 125.981 63.9988 125.816 64.2516C125.646 64.5044 122.464 68.0656 121.706 68.0656C120.948 68.0656 120.266 67.0929 122.173 64.1197C122.173 64.1197 122.81 63.2294 122.64 62.0863C122.64 62.0863 123.997 59.7561 125.607 61.9159L125.602 61.9214Z" fill="#F6A36A"/>
<path id="Vector_13" d="M121.393 65.1089C121.568 64.9495 122.596 65.8618 123.58 64.8836C124.558 63.9053 125.838 62.394 126.069 62.7732C126.294 63.1524 126.371 63.6031 126.294 64.0537C126.217 64.5044 122.448 68.8789 120.794 68.4997C119.134 68.1205 120.491 65.9387 121.398 65.1089H121.393Z" fill="#0A1731"/>
</g>
<g id="Group_11">
<path id="Vector_14" d="M123.569 30.7826C123.569 30.7826 112.007 37.306 111.694 38.9108C111.381 40.5155 113.452 42.6204 115.073 42.0873C116.689 41.5542 124.734 37.8831 126.558 36.2783C128.382 34.6736 127.47 30.0242 123.569 30.7826Z" fill="#0A1731"/>
<path id="Vector_15" d="M128.344 31.1618C128.344 31.1618 116.321 37.5698 116.271 39.334C116.222 41.0981 119.008 43.5931 120.761 43.1205C122.514 42.6424 131.042 39.1581 132.833 37.5039C134.619 35.8552 132.68 30.6068 128.344 31.1618Z" fill="#0A1731"/>
<path id="Vector_16" d="M117.189 41.0046C117.189 41.0046 118.277 43.2744 117.513 46.8576C116.749 50.4408 116.084 62.284 116.084 62.284L112.776 62.4764C112.776 62.4764 111.128 40.3726 111.644 39.0481C112.161 37.7182 117.112 37.35 117.189 41.0046Z" fill="#0A1731"/>
<path id="Vector_17" d="M122.184 40.4605C122.184 40.4605 123.733 42.4445 123.755 46.1102C123.777 49.7703 125.662 61.4872 125.662 61.4872L122.475 62.383C122.475 62.383 116.133 41.1475 116.353 39.7406C116.573 38.3337 121.332 36.9158 122.189 40.466L122.184 40.4605Z" fill="#0A1731"/>
<path id="Vector_18" d="M130.519 38.9108C130.519 38.9108 135.646 37.5039 133.152 32.1401C133.152 32.1401 128.816 34.5527 120.474 32.4259C120.474 32.4259 119.568 40.3452 130.525 38.9108H130.519Z" fill="#0A1731"/>
<g id="Group_12" opacity="0.3">
<path id="Vector_19" d="M123.476 43.1919C123.025 41.0871 120.904 39.6967 120.882 39.6857L120.97 39.5483C120.97 39.5483 123.168 40.9827 123.635 43.159L123.476 43.1919Z" fill="#67AFE9"/>
</g>
<g id="Group_13" opacity="0.4">
<path id="Vector_20" d="M117.661 45.72C116.991 44.2141 116.221 39.5428 116.188 39.3449V39.3229V39.301C116.804 37.7072 119.975 36.0805 120.112 36.0145L120.189 36.1629C120.156 36.1794 116.969 37.8116 116.353 39.3449C116.414 39.7022 117.172 44.2196 117.81 45.6595L117.661 45.7255V45.72Z" fill="#67AFE9"/>
</g>
</g>
<g id="Group_14">
<g id="Group_15">
<path id="Vector_21" d="M131.937 13.9932C131.937 13.9932 134.679 13.7789 135.816 23.6272C135.816 23.6272 135.41 26.0398 133.932 24.611C132.453 23.1876 129.393 13.7679 131.937 13.9877V13.9932Z" fill="#FF8BB1"/>
<path id="Vector_22" d="M121.326 15.0154C121.326 15.0154 118.925 14.7516 117.216 25.6991C117.216 25.6991 117.403 28.3865 118.809 26.8148C120.211 25.243 123.585 14.7956 121.326 15.0154Z" fill="#FF8BB1"/>
<path id="Vector_23" d="M130.157 26.2212L130.921 23.7042H130.948L131.212 22.7369L131.24 22.6435L132.421 18.3623C132.421 18.3623 133.877 15.1693 132.383 14.3065C131.19 13.614 129.102 13.3557 128.305 13.3228C127.157 14.301 125.789 13.9658 124.387 13.4217C123.398 13.8943 121.502 14.8725 121.079 15.0044C120.475 15.1913 120.453 17.6864 121.008 19.379C121.03 19.445 121.052 19.5109 121.074 19.5769C121.052 19.5989 121.03 19.6208 121.008 19.6428C120.25 20.3573 120.64 22.9183 122.481 23.968C122.535 24.1383 122.568 24.2373 122.568 24.2373H122.607C122.832 24.9572 123.145 26.1278 123.019 26.7873C122.689 27.1885 120.151 30.332 120.475 32.4259C120.475 32.4259 128.162 34.6077 133.152 32.1401C133.152 32.1401 132.251 28.2986 130.163 26.2212H130.157Z" fill="#FF8BB1"/>
<g id="Vector_24" style="mix-blend-mode:multiply" opacity="0.33">
<path d="M122.222 15.2572C122.684 15.598 123.233 15.7848 123.788 15.9112C124.788 16.1366 125.86 16.241 126.877 16.1146C127.926 15.9882 128.981 15.6365 129.833 14.988C130.366 14.5868 130.641 14.1636 130.762 13.6965C129.794 13.4492 128.8 13.3392 128.3 13.3228C127.151 14.301 125.783 13.9658 124.382 13.4217C123.662 13.7624 122.464 14.3779 121.7 14.7352C121.871 14.966 122.145 15.1968 122.217 15.2518L122.222 15.2572Z" fill="#DD5829"/>
</g>
<g id="Vector_25" style="mix-blend-mode:multiply" opacity="0.23">
<path d="M133.146 32.1401C133.146 32.1401 132.245 28.2986 130.157 26.2212L130.92 23.7041H130.948L131.212 22.7369L131.239 22.6435L132.388 18.4777C132.003 17.7962 131.657 17.1093 131.399 16.3893C131.267 18.2964 130.783 20.2199 130.349 22.028C130.102 23.0666 129.832 24.1383 129.277 25.0616C128.783 25.8859 128.085 26.4905 127.261 26.9521C127.799 27.0291 128.299 27.2159 128.673 27.6336C129.113 28.1227 129.305 28.7932 129.475 29.4142C129.816 30.6562 129.887 31.9312 129.629 33.1623C130.86 32.9919 132.063 32.6787 133.146 32.1456V32.1401Z" fill="#DD5829"/>
</g>
<g id="Group_16">
<g id="Group_17">
<path id="Vector_26" d="M124.325 10.3991C124.325 10.3991 124.726 12.8062 124.441 13.3393C124.155 13.8723 127.249 14.9385 128.26 13.5041C128.26 13.5041 127.683 10.4155 128.117 9.87146C128.117 9.87146 125.754 7.904 124.325 10.3991Z" fill="#F0CF9A"/>
<g id="Group_18">
<path id="Vector_27" d="M124.325 10.3991C124.325 10.3991 124.726 12.8062 124.441 13.3393C124.155 13.8723 127.249 14.9385 128.26 13.5041C128.26 13.5041 127.683 10.4155 128.117 9.87146C128.117 9.87146 125.754 7.904 124.325 10.3991Z" fill="#F6A36A"/>
<g id="Vector_28" style="mix-blend-mode:multiply" opacity="0.3">
<path d="M124.535 12.8662C125.705 12.4595 126.908 12.0913 127.986 11.5088C127.925 10.7943 127.931 10.1074 128.112 9.87653C128.112 9.87653 125.749 7.90906 124.32 10.4041C124.32 10.4041 124.584 11.9869 124.529 12.8662H124.535Z" fill="#D85369"/>
</g>
</g>
</g>
<g id="Group_19">
<path id="Vector_29" d="M129.228 5.02422C129.123 2.37529 127.079 0.319886 124.661 0.435296C122.244 0.550706 120.364 2.79296 120.469 5.4419C120.48 5.66722 120.397 6.44212 120.436 6.65645C120.436 6.65645 120.194 7.05214 120.161 7.54126C120.123 8.03038 121.414 11.0036 123.931 12.4709C123.931 12.4709 127.283 10.9651 128.563 9.37134C128.563 9.37134 129.069 8.0029 129.178 6.4641C129.178 6.38716 129.173 6.31572 129.14 6.23878C129.217 5.84858 129.25 5.4419 129.233 5.01873L129.228 5.02422Z" fill="#F6A36A"/>
<g id="Group_20">
<path id="Vector_30" d="M129.129 6.24977C129.129 6.24977 130.178 5.75516 130.14 6.8543C130.101 7.95894 129.398 8.83276 128.596 8.64041C128.596 8.64041 128.733 6.71691 129.129 6.24977Z" fill="#F6A36A"/>
<g id="Vector_31" style="mix-blend-mode:multiply" opacity="0.3">
<path d="M129.002 6.53557C129.002 6.53557 129.678 6.17835 129.645 6.95325C129.612 7.72814 129.151 8.35466 128.64 8.22276C128.64 8.22276 128.739 6.86532 128.997 6.53008L129.002 6.53557Z" fill="#D85369"/>
</g>
</g>
<g id="Group_21">
<path id="Vector_32" d="M122.145 5.26601C121.326 4.96374 120.694 5.11762 120.249 5.37043C120.249 5.44737 120.26 5.5298 120.26 5.60674C121.244 5.17258 121.98 5.48034 122.095 5.41989C122.244 5.34295 122.15 5.26601 122.15 5.26601H122.145Z" fill="#0A1731"/>
<g id="Group_22">
<g id="Vector_33" style="mix-blend-mode:multiply" opacity="0.7">
<path d="M122.568 5.6947C122.568 5.6947 122.579 5.94751 122.557 6.32671C122.546 6.51356 122.524 6.73339 122.491 6.96971C122.452 7.20603 122.408 7.45333 122.315 7.70064L122.276 7.79407L122.221 7.882C122.21 7.90948 122.172 7.94245 122.144 7.96993L122.111 7.99741L122.078 8.03038C122.029 8.07984 122.023 8.18976 122.067 8.28319C122.15 8.47554 122.326 8.61293 122.485 8.68987C122.524 8.71185 122.568 8.72834 122.606 8.73933C122.644 8.75582 122.683 8.76681 122.716 8.77231C122.787 8.79429 122.853 8.79978 122.908 8.80528C122.963 8.80528 123.007 8.80528 123.035 8.80528C123.062 8.80528 123.079 8.80528 123.079 8.80528C123.079 8.80528 123.062 8.80528 123.035 8.81627C123.007 8.81627 122.963 8.83276 122.908 8.83825C122.853 8.83825 122.782 8.84375 122.705 8.83825C122.666 8.83825 122.622 8.82726 122.579 8.81627C122.535 8.81078 122.491 8.79429 122.447 8.7778C122.353 8.74483 122.26 8.69537 122.166 8.62392C122.078 8.55248 121.991 8.46454 121.93 8.34364C121.914 8.31616 121.903 8.28319 121.892 8.25021C121.881 8.21724 121.875 8.17877 121.875 8.1403C121.87 8.10183 121.886 8.06336 121.892 8.02489C121.908 7.98642 121.936 7.93696 121.958 7.91497L121.991 7.882L122.018 7.86002L122.029 7.84902C122.029 7.84902 122.062 7.82155 122.073 7.79407L122.117 7.72262L122.15 7.64019C122.194 7.53027 122.227 7.41486 122.26 7.29396C122.287 7.17855 122.315 7.05764 122.337 6.94773C122.381 6.71691 122.419 6.50257 122.452 6.32121C122.518 5.94751 122.557 5.7002 122.557 5.7002L122.568 5.6947Z" fill="#D85369"/>
</g>
<path id="Vector_34" d="M126.81 5.99146C126.81 5.99146 125.815 4.53509 124.018 5.24953C124.018 5.24953 123.925 5.33197 124.079 5.40341C124.233 5.47486 125.359 4.93078 126.81 5.99695V5.99146Z" fill="#0A1731"/>
</g>
</g>
</g>
</g>
<path id="Vector_35" d="M135.382 24.7099C135.382 24.7099 135.674 25.8091 125.684 30.3705L124.255 28.8317C124.255 28.8317 131.805 22.5061 134.113 22.5501C136.421 22.5941 135.729 24.4131 135.377 24.7154L135.382 24.7099Z" fill="#FF8BB1"/>
<g id="Vector_36" style="mix-blend-mode:multiply" opacity="0.33">
<path d="M120.782 21.984C120.782 21.984 120.266 20.9508 121.469 18.7141C121.469 18.7141 122.244 17.7688 122.156 16.5598C122.156 16.5598 122.584 17.7633 121.81 19.0548C121.035 20.3463 120.606 21.0333 120.777 21.9785L120.782 21.984Z" fill="#DD5829"/>
</g>
<g id="Vector_37" style="mix-blend-mode:multiply" opacity="0.23">
<path d="M125.706 30.1397C126.299 29.8484 126.898 29.5736 127.497 29.2933L129.299 28.4745L131.107 27.6721C131.41 27.5402 131.712 27.4028 132.009 27.2654C132.305 27.1225 132.613 26.9961 132.888 26.8148C132.355 27.2105 131.75 27.4962 131.162 27.793C130.569 28.0898 129.97 28.3591 129.365 28.6338C128.761 28.8976 128.157 29.1614 127.547 29.4142C126.937 29.667 126.321 29.9088 125.7 30.1397H125.706Z" fill="#DD5829"/>
</g>
<g id="Vector_38" style="mix-blend-mode:multiply" opacity="0.23">
<path d="M124.255 28.8262C124.838 28.3041 125.437 27.7985 126.041 27.3038C126.645 26.8037 127.261 26.3201 127.871 25.8365C128.492 25.3584 129.113 24.8857 129.756 24.4296C130.074 24.2043 130.399 23.9789 130.723 23.7646C130.893 23.6602 131.053 23.5503 131.223 23.4568L131.481 23.314L131.75 23.1985L131.492 23.3359L131.245 23.4953C131.08 23.5997 130.926 23.7206 130.767 23.8306C130.448 24.0614 130.135 24.2922 129.827 24.534C129.206 25.0066 128.585 25.4848 127.97 25.9684L126.112 27.4028C125.492 27.8809 124.871 28.359 124.244 28.8262H124.255Z" fill="#DD5829"/>
</g>
</g>
<path id="Vector_39" d="M123.563 1.3091C123.536 1.51244 124.651 4.07345 126.673 5.00772C128.695 5.94749 128.151 8.3656 127.662 9.34934C127.662 9.34934 128.976 7.88198 129.283 6.34318C129.591 4.80987 129.838 0.80899 125.244 0.165991C125.244 0.165991 123.766 -0.081316 123.568 1.30361L123.563 1.3091Z" fill="#0A1731"/>
<path id="Vector_40" d="M124.305 2.2434C124.305 2.2434 121.788 5.65074 120.31 5.94202C120.31 5.94202 119.469 1.10578 124.305 0.166016C124.305 0.166016 124.948 1.54544 124.305 2.2379V2.2434Z" fill="#0A1731"/>
<path id="Vector_41" d="M123.81 6.59597C123.81 6.59597 124.804 7.206 125.859 6.54102C125.859 6.54102 124.92 7.5907 123.81 6.59597Z" fill="#0A1731"/>
<path id="Vector_42" d="M120.161 6.54104C120.161 6.54104 120.996 7.15107 121.876 6.48608C121.876 6.48608 121.09 7.53577 120.161 6.54104Z" fill="#0A1731"/>
</g>
<g id="Group_23">
<path id="Vector_43" d="M126.887 36.9983L132.607 35.0968L116.886 34.3933L111.759 35.9816L126.887 36.9983Z" fill="#EAD4CE"/>
<path id="Vector_44" d="M126.887 36.9983L110.435 35.8937L110.544 24.2592L126.689 25.1111L126.887 36.9983Z" fill="white"/>
<path id="Vector_45" opacity="0.47" d="M110.88 35.2232L110.984 24.2812L110.544 24.2592L110.435 35.8937L126.887 36.9983L126.876 36.2948L110.88 35.2232Z" fill="#CC9A8F"/>
<path id="Vector_46" d="M126.689 25.1111L127.129 25.0286L127.217 36.9543L126.887 36.9983L126.689 25.1111Z" fill="#EFCFC7"/>
<path id="Vector_47" d="M127.217 36.9543L132.607 35.0968L132.695 34.7451L127.217 36.4213V36.9543Z" fill="#CC9A8F"/>
<path id="Vector_48" d="M119.183 30.4144C119.183 31.0959 118.748 31.6509 118.21 31.6509C117.671 31.6509 117.237 31.0959 117.237 30.4144C117.237 29.7329 117.671 29.1779 118.21 29.1779C118.748 29.1779 119.183 29.7329 119.183 30.4144Z" fill="#CC9A8F"/>
</g>
</g>
<path id="Vector_49" d="M122.799 9.96486C122.799 9.96486 122.656 10.1957 122.783 10.3331C122.909 10.4705 123.728 10.399 124.047 9.789C124.047 9.789 123.206 10.0803 122.799 9.96486Z" fill="#E86B87"/>
<path id="Vector_50" d="M122.502 9.62957C122.502 9.62957 122.502 9.95382 122.634 9.99779C122.766 10.0418 123.92 10.0253 124.156 9.70102C124.156 9.70102 122.755 9.50867 122.502 9.62957Z" fill="#D85369"/>
</g>
</g>
<g id="Group_24">
<path id="Vector_51" d="M70.9801 58.6239H67.6281C64.4959 58.6239 61.9352 61.1849 61.9352 64.3175C61.9352 66.1201 62.7869 67.7303 64.1003 68.7745C64.2047 70.088 64.0728 72.1324 62.2704 72.3577C59.7262 72.6765 65.6279 73.8965 67.6666 70.011H70.9801C74.1123 70.011 76.673 67.45 76.673 64.3175C76.673 61.1849 74.1123 58.6239 70.9801 58.6239Z" fill="#DD5829"/>
<g id="Group_25">
<path id="Vector_52" d="M66.7656 62.96C66.7656 62.6523 66.9744 62.4324 67.2657 62.4324C67.5569 62.4324 67.7492 62.6523 67.7602 62.96C67.7602 63.2513 67.5679 63.4766 67.2602 63.4766C66.9689 63.4766 66.7656 63.2513 66.7656 62.96ZM66.7656 65.9167C66.7656 65.609 66.9744 65.3891 67.2657 65.3891C67.5569 65.3891 67.7492 65.609 67.7602 65.9167C67.7602 66.208 67.5679 66.4333 67.2602 66.4333C66.9689 66.4333 66.7656 66.208 66.7656 65.9167Z" fill="white"/>
<path id="Vector_53" d="M68.2324 67.3566C68.8259 66.5268 69.2875 65.4386 69.2875 63.9328C69.2875 62.427 68.8369 61.3608 68.2324 60.5309H68.8039C69.3424 61.2179 69.9029 62.2896 69.9029 63.9383C69.9029 65.587 69.3424 66.6422 68.8039 67.3566H68.2324Z" fill="white"/>
</g>
</g>
<g id="Group_26">
<path id="Vector_54" d="M105.401 8.99207H108.457C111.314 8.99207 113.65 11.3277 113.65 14.1855C113.65 15.8287 112.875 17.2961 111.671 18.2524C111.578 19.4504 111.699 21.3135 113.342 21.5223C115.661 21.8136 110.281 22.9237 108.418 19.3845H105.396C102.539 19.3845 100.203 17.0488 100.203 14.191C100.203 11.3332 102.539 8.99756 105.396 8.99756L105.401 8.99207Z" fill="#F33F36"/>
<path id="Vector_55" d="M109.836 12.207C108.688 10.7452 107.369 12.3609 106.979 12.905C106.589 12.3609 105.27 10.7452 104.121 12.207C102.83 13.8503 105.435 16.8234 106.863 17.34V17.406C106.902 17.4005 106.935 17.3895 106.973 17.3785C107.012 17.3895 107.05 17.4005 107.083 17.406V17.34C108.517 16.8234 111.117 13.8503 109.825 12.207H109.836Z" fill="white"/>
</g>
<g id="Group_27">
<path id="Vector_56" d="M143.147 125.26H139.806C136.685 125.26 134.129 127.815 134.129 130.937C134.129 132.734 134.976 134.338 136.289 135.383C136.393 136.691 136.262 138.73 134.465 138.955C131.931 139.274 137.811 140.488 139.844 136.614H143.147C146.268 136.614 148.823 134.058 148.823 130.937C148.823 127.815 146.268 125.26 143.147 125.26Z" fill="#FF8BB1"/>
<g id="Group_28">
<path id="Vector_57" d="M139.108 134.591C139.936 134.591 140.608 134.139 140.608 133.58C140.608 133.022 139.936 132.569 139.108 132.569C138.279 132.569 137.607 133.022 137.607 133.58C137.607 134.139 138.279 134.591 139.108 134.591Z" fill="#385087"/>
<path id="Vector_58" d="M144.586 132.217C144.586 132.778 143.916 133.228 143.086 133.228C142.256 133.228 141.586 132.772 141.586 132.217C141.586 131.662 142.256 131.206 143.086 131.206C143.916 131.206 144.586 131.662 144.586 132.217Z" fill="#385087"/>
<path id="Vector_59" d="M140.608 128.689H139.976V133.58H140.608V128.689Z" fill="#385087"/>
<path id="Vector_60" d="M144.581 127.326H143.949V132.217H144.581V127.326Z" fill="#385087"/>
<path id="Vector_61" d="M144.586 127.326H139.976V128.931H144.586V127.326Z" fill="#385087"/>
</g>
</g>
<g id="Group_29">
<path id="Vector_62" d="M51.5704 74.2703C51.3946 74.5725 51.0045 74.6769 50.7022 74.5011L45.6083 71.5609C45.306 71.385 45.2016 70.9948 45.3775 70.6925C45.5533 70.3903 45.9435 70.2859 46.2457 70.4617L51.3397 73.4019C51.6419 73.5778 51.7463 73.968 51.5704 74.2703Z" fill="white"/>
<g id="Group_30">
<g id="Vector_63" style="mix-blend-mode:multiply" opacity="0.21">
<path d="M38.7451 100.095C38.7451 100.095 39.1902 104.085 43.8446 102.974C48.4989 101.864 65.5667 91.4444 92.8333 93.4393C120.1 95.4343 124.535 97.8744 126.309 99.4242C128.084 100.974 132.294 102.969 132.294 100.974C132.294 98.979 89.5088 73.259 38.7451 100.089V100.095Z" fill="white"/>
</g>
<g id="Group_31">
<g id="Group_32">
<g id="Group_33">
<path id="Vector_64" d="M124.75 96.2256C124.75 96.2256 127.634 98.0997 128.475 99.1384C129.316 100.177 130.486 99.4132 131.541 97.3138C132.591 95.2144 132.992 94.5385 133.679 93.6756C134.366 92.8128 134.926 89.6967 134.926 89.6967C134.926 89.6967 133.871 88.713 132.179 90.9827C130.486 93.2524 128.492 94.7967 126.601 93.6921C124.717 92.582 124.414 94.9451 124.75 96.2311V96.2256Z" fill="#FCD246"/>
<path id="Vector_65" d="M128.838 99.6275C128.838 99.6275 130.057 100.534 131.112 98.6383C132.168 96.7423 135.811 91.373 134.926 89.6913C134.926 89.6913 134.388 89.0263 133.294 89.7737C133.294 89.7737 132.734 90.1859 132.552 90.4991C132.376 90.8124 132.86 91.4059 133.448 91.6587C134.036 91.906 131.266 98.5723 128.832 99.622L128.838 99.6275Z" fill="white"/>
<path id="Vector_66" d="M128.651 93.9229C128.651 93.9229 128.783 95.1485 129.509 95.2804C129.509 95.2804 129.767 94.8682 129.069 93.7526L128.651 93.9229Z" fill="white"/>
<path id="Vector_67" d="M129.58 93.3844C129.58 93.3844 129.811 94.5934 130.542 94.6704C130.542 94.6704 130.767 94.2417 129.987 93.181L129.586 93.3844H129.58Z" fill="white"/>
<path id="Vector_68" d="M130.465 92.7908C130.465 92.7908 130.921 93.9339 131.652 93.868C131.652 93.868 131.795 93.4064 130.822 92.5161L130.465 92.7908Z" fill="white"/>
<path id="Vector_69" d="M129.536 97.0005C129.684 97.3633 129.508 97.7699 129.151 97.9183C128.788 98.0667 128.382 97.8908 128.233 97.5336C128.085 97.1709 128.261 96.7642 128.618 96.6158C128.981 96.4674 129.387 96.6433 129.536 97.0005Z" fill="white"/>
</g>
<path id="Vector_70" d="M102.994 89.0922C102.994 89.0922 105.357 92.0489 109.671 93.2965C113.985 94.5385 124.744 96.5554 125.453 96.7972C126.162 97.0335 128.173 95.143 126.991 93.3679C126.991 93.3679 105.363 83.1843 103.352 83.8933C101.34 84.6022 102.522 88.7405 102.994 89.0977V89.0922Z" fill="#178B8E"/>
<path id="Vector_71" d="M83.3381 90.0485C83.3381 90.0485 105.555 91.1751 106.269 87.6523C106.978 84.1241 103.159 81.5301 87.1517 79.5461C87.1517 79.5461 77.9803 84.0252 83.3381 90.054V90.0485Z" fill="#178B8E"/>
</g>
<g id="Group_34">
<g id="Group_35">
<path id="Vector_72" d="M109.561 89.977C109.561 89.977 111.632 92.8623 112.077 94.1922C112.522 95.5222 113.863 95.176 115.534 93.4503C117.204 91.7247 117.798 91.1916 118.721 90.5706C119.644 89.9495 121.194 87.0423 121.194 87.0423C121.194 87.0423 120.534 85.6904 118.21 87.3611C115.885 89.0318 113.517 89.8671 112.121 88.103C110.726 86.3334 109.67 88.5866 109.561 89.9825V89.977Z" fill="#FCD246"/>
<path id="Vector_73" d="M112.254 94.8022C112.254 94.8022 113.094 96.1322 114.699 94.6154C116.303 93.1041 121.463 89.0262 121.189 87.0368C121.189 87.0368 120.908 86.185 119.639 86.5477C119.639 86.5477 118.98 86.762 118.71 87.0148C118.441 87.2676 118.699 88.0315 119.166 88.4822C119.633 88.9383 114.864 94.6099 112.248 94.8022H112.254Z" fill="white"/>
<path id="Vector_74" d="M113.952 89.0482C113.952 89.0482 113.671 90.3177 114.303 90.7024C114.303 90.7024 114.682 90.3837 114.397 89.0262L113.952 89.0482Z" fill="white"/>
<path id="Vector_75" d="M114.995 88.8339C114.995 88.8339 114.808 90.1199 115.468 90.4496C115.468 90.4496 115.819 90.1034 115.435 88.7734L114.995 88.8339Z" fill="white"/>
<path id="Vector_76" d="M116.018 88.5536C116.018 88.5536 116.067 89.8561 116.77 90.0484C116.77 90.0484 117.056 89.6363 116.441 88.4052L116.018 88.5536Z" fill="white"/>
<path id="Vector_77" d="M113.765 92.4281C113.781 92.8403 113.484 93.1865 113.1 93.2085C112.715 93.2305 112.391 92.9117 112.369 92.4996C112.352 92.0874 112.649 91.7411 113.034 91.7192C113.418 91.6972 113.743 92.0159 113.765 92.4281Z" fill="white"/>
</g>
<path id="Vector_78" d="M85.8991 90.2188C85.8991 90.2188 102.56 73.7372 100.434 70.8409C98.307 67.9447 93.2296 69.5219 80.9865 80.0243C80.9865 80.0243 77.8378 90.1254 85.8991 90.2188Z" fill="#60C1C6"/>
<path id="Vector_79" d="M81.5687 79.7C81.5687 79.7 79.3596 79.5131 76.2109 79.9748C77.1561 83.591 78.5683 87.0148 79.2717 90.6804C80.9752 90.653 82.8765 90.5925 84.6074 90.4661C89.2673 90.1254 79.7773 88.4492 81.5687 79.7Z" fill="#60C1C6"/>
<path id="Vector_80" d="M97.0205 73.8361C97.0205 73.8361 97.4161 77.1555 99.9274 80.0792C102.439 83.0029 109.159 89.4714 109.56 89.977C109.961 90.4826 112.192 89.977 112.121 88.0975C112.121 88.0975 101.235 70.4672 99.5153 70.077C97.7898 69.6868 96.8446 73.3524 97.026 73.8361H97.0205Z" fill="#60C1C6"/>
</g>
<g id="Group_36">
<path id="Vector_81" d="M51.989 95.5497C51.989 95.5497 54.0002 94.5385 55.874 95.1925C57.7478 95.8465 56.6268 91.0597 54.5772 90.4717L50.9009 92.3567C50.9009 92.3567 49.2414 95.242 51.9835 95.5497H51.989Z" fill="#F6A36A"/>
<g id="Vector_82" style="mix-blend-mode:multiply" opacity="0.35">
<path d="M52.2906 91.6478L50.9058 92.3567C50.9058 92.3567 49.2463 95.242 51.9884 95.5497C51.9884 95.5497 52.4994 95.2914 53.2467 95.1211C52.994 93.945 52.7027 92.7744 52.2851 91.6478H52.2906Z" fill="#F6A36A"/>
</g>
<g id="Group_37">
<path id="Vector_83" d="M51.6263 95.187L50.857 89.4659L47.7028 89.1856L47.0599 91.4224L46.884 89.1032C46.884 89.1032 42.0703 90.1804 39.9987 93.1096C39.9987 93.1096 39.2843 99.5341 43.9936 99.9628C48.7029 100.391 51.4175 96.1103 51.6318 95.1815L51.6263 95.187Z" fill="#F6A36A"/>
<path id="Vector_84" d="M40.1356 92.615C40.1356 92.615 37.9925 94.1868 37.8496 95.187C37.7067 96.1872 38.8497 100.254 42.3446 101.897C42.3446 101.897 50.84 100.826 52.1204 95.4013C52.1204 95.4013 52.1204 94.6869 51.6203 95.187C51.1203 95.6871 48.1969 97.9019 46.7682 97.759C45.3394 97.6161 41.0588 100.903 40.1301 92.6205L40.1356 92.615Z" fill="#0A1731"/>
<path id="Vector_85" d="M43.4219 98.3415C43.4219 98.3415 45.8507 95.841 46.1365 95.4123C46.1365 95.4123 46.7794 95.5552 46.3508 96.1982C45.9221 96.8412 45.4221 97.1984 46.2079 97.6271C46.9937 98.0557 48.4938 97.1984 48.5653 96.484C48.6367 95.7695 50.4941 96.1982 51.137 95.6266C51.7799 95.0551 45.7848 101.122 43.4274 98.3415" fill="#0A1731"/>
<path id="Vector_86" d="M43.1357 90.5431C43.1357 90.5431 44.4216 87.8997 44.8502 88.2569C45.2788 88.6141 45.636 89.6858 45.636 89.6858C45.636 89.6858 43.2072 91.1861 43.1357 90.5431Z" fill="#F6A36A"/>
<path id="Vector_87" d="M41.3447 91.7467L41.8448 91.1751C41.8448 91.1751 41.2733 92.6754 43.3449 93.1756C43.3449 93.1756 41.9877 93.9614 41.3447 91.7467Z" fill="#0A1731"/>
<path id="Vector_88" d="M43.1081 91.0102C43.1905 91.1311 43.0586 91.3674 42.8114 91.5268C42.5641 91.6917 42.3003 91.7247 42.2179 91.5983C42.1355 91.4774 42.2673 91.241 42.5146 91.0817C42.7619 90.9168 43.0257 90.8838 43.1081 91.0102Z" fill="#0A1731"/>
<path id="Vector_89" d="M46.8785 89.1087L47.0544 91.4279L47.6973 89.1912C47.6973 89.1912 47.3511 88.9329 46.873 89.1142L46.8785 89.1087Z" fill="#F4ECD7"/>
</g>
</g>
<g id="Group_38">
<path id="Vector_90" d="M74.9902 80.2441C74.9902 80.2441 77.0179 79.5297 78.2049 79.6286C79.3918 79.722 80.249 88.3723 80.6886 90.4607L78.1224 90.7135C78.1224 90.7135 77.529 82.1237 74.9902 80.2441Z" fill="#F4ECD7"/>
<path id="Vector_91" d="M75.2486 80.0793C74.1991 80.0793 57.9336 84.6517 53.7354 90.5102C53.7354 90.5102 55.7081 93.7966 56.1367 95.819C57.8841 95.9454 59.6096 95.7586 61.3241 95.4068C63.4617 94.3242 66.7972 92.8623 69.2095 92.4996C72.3582 92.0325 78.3863 93.9065 78.6501 91.0927C78.9139 88.2789 76.2872 80.0793 75.2431 80.0793H75.2486Z" fill="#FCD246"/>
<g id="Vector_92" style="mix-blend-mode:multiply">
<path d="M59.9171 90.2958C59.6204 88.9603 59.1698 87.6798 58.8071 86.3663C58.3345 86.6411 57.8784 86.9214 57.4443 87.2127C57.5103 87.383 57.5652 87.5644 57.5872 87.7677C57.818 89.7077 58.5653 91.5543 58.8786 93.4888C58.9994 94.2362 59.0654 94.9946 59.1423 95.7475C59.5654 95.7036 59.9886 95.6431 60.4117 95.5772C60.3897 93.8075 60.3073 92.0324 59.9171 90.3013V90.2958Z" fill="#FCD246"/>
</g>
<g id="Vector_93" style="mix-blend-mode:multiply">
<path d="M63.5664 83.9812C63.2422 84.1241 62.918 84.267 62.5938 84.4154C62.9619 86.3279 63.7477 88.136 64.1214 90.054C64.3742 91.34 64.4896 92.637 64.5445 93.9394C65.0885 93.7141 65.6435 93.5108 66.1985 93.3129C65.5941 90.1254 65.0336 86.9049 63.5664 83.9812Z" fill="#FCD246"/>
</g>
<g id="Vector_94" style="mix-blend-mode:multiply">
<path d="M75.5238 80.486C75.4578 80.3596 75.4139 80.2387 75.3754 80.1123C75.3314 80.0903 75.293 80.0738 75.2545 80.0738C75.0567 80.0738 74.2984 80.2442 73.1719 80.5519C73.7763 82.4809 75.1281 84.2615 75.7271 86.196C76.3645 88.2679 76.7986 90.3947 77.0624 92.5436C77.4855 92.4556 77.8427 92.3128 78.112 92.1039C78.1394 88.147 77.3591 83.9703 75.5238 80.4805V80.486Z" fill="#FCD246"/>
</g>
<g id="Vector_95" style="mix-blend-mode:multiply">
<path d="M71.1717 85.8332C70.5563 84.3989 69.798 83.1678 69.2704 81.7774C68.6715 81.9807 68.056 82.2006 67.4131 82.4369C68.8803 85.6409 69.5727 88.9933 70.254 92.4281C71.0563 92.4116 71.952 92.4776 72.8532 92.5435C72.562 90.2463 72.0674 87.9381 71.1662 85.8332H71.1717Z" fill="#FCD246"/>
</g>
<path id="Vector_96" d="M56.6699 95.9234L55.1588 96.1048L53.208 90.8618L54.5378 89.356L54.6257 90.8618L56.6699 95.9234Z" fill="#F4ECD7"/>
</g>
<g id="Group_39">
<g id="Group_40">
<g id="Group_41">
<path id="Vector_97" d="M52.4505 75.1551C52.4505 75.1551 49.8073 75.2375 49.8073 74.3747C49.8073 73.5118 51.2526 74.2043 51.2526 74.2043C51.2526 74.2043 48.9391 71.6488 48.0709 71.5059C47.1972 71.363 49.2743 69.0109 53.7363 72.8524C53.7363 72.8524 54.4672 75.5288 52.4505 75.1496V75.1551Z" fill="#F6A36A"/>
<path id="Vector_98" d="M56.7144 93.4448C56.7144 93.4448 61.3358 94.9452 66.5671 81.4367C66.5671 81.4367 66.677 77.8315 63.6712 79.2109C60.6709 80.5958 52.2854 92.6534 56.7089 93.4448H56.7144Z" fill="#FCD246"/>
<path id="Vector_99" d="M66.0237 79.2659C66.0237 79.2659 66.3095 77.3753 53.7147 72.8469L52.7256 75.0946C52.7256 75.0946 61.776 83.9372 64.6115 83.1843C67.4469 82.4314 66.4743 79.6451 66.0182 79.2604L66.0237 79.2659Z" fill="#FCD246"/>
</g>
<path id="Vector_100" opacity="0.46" d="M56.2256 93.5877C56.2256 93.5877 60.3689 93.8075 62.7208 89.4989C65.0727 85.1902 65.9684 82.7556 65.9684 82.7556C65.9684 82.7556 63.6165 89.1636 63.056 90.3837C62.4955 91.5982 60.7041 93.5877 56.2256 93.5877Z" fill="#DD5829"/>
</g>
<path id="Vector_101" d="M52.4502 75.1551L53.7415 72.5721L54.9834 73.1931L53.6536 76.1223L52.4502 75.1551Z" fill="#F4ECD7"/>
</g>
</g>
</g>
</g>
</g>
</g>
</svg>
