<svg width="166" height="174" viewBox="0 0 166 174" fill="none" xmlns="http://www.w3.org/2000/svg">
<g id="Group">
<g id="OBJECTS">
<g id="Group_2">
<g id="Group_3">
<path id="Vector" d="M14.713 93.7472C10.8633 93.7472 7.01367 92.2395 4.12776 89.2455C-1.52091 83.3863 -1.35493 74.0556 4.48649 68.3949C25.7105 47.8502 53.654 36.5342 83.1717 36.5342C112.689 36.5342 139.589 47.4424 160.652 67.2467C166.579 72.8215 166.874 82.1522 161.316 88.0919C155.753 94.0316 146.442 94.3267 140.515 88.7572C124.924 74.0985 104.562 66.0287 83.1717 66.0287C61.7817 66.0287 40.6434 74.4044 24.9342 89.6104C22.0804 92.3736 18.3913 93.7526 14.713 93.7526V93.7472Z" fill="white"/>
<g id="Vector_2" style="mix-blend-mode:multiply" opacity="0.21">
<path d="M161.316 79.4802C155.753 85.4199 146.442 85.715 140.515 80.1455C124.923 65.4868 104.561 57.417 83.1713 57.417C61.7813 57.417 40.6429 65.7926 24.9337 80.9987C22.08 83.7619 18.3909 85.1409 14.7126 85.1409C11.0343 85.1409 7.01326 83.6332 4.12735 80.6392C2.45149 78.9007 1.29498 76.8618 0.636415 74.6995C-0.868113 79.6573 0.277684 85.2589 4.12735 89.2509C7.01326 92.2449 10.8629 93.7526 14.7126 93.7526C18.5623 93.7526 22.08 92.379 24.9337 89.6104C40.6429 74.4044 61.3208 66.0287 83.1713 66.0287C105.022 66.0287 124.929 74.0985 140.515 88.7573C146.442 94.3267 155.753 94.0316 161.316 88.0919C165.053 84.1053 166.14 78.5842 164.657 73.7015C164.02 75.7941 162.911 77.7793 161.316 79.4802Z" fill="white"/>
</g>
</g>
<g id="Group_4">
<path id="Vector_3" d="M123.511 133.753C119.747 133.753 115.977 132.315 113.107 129.434C105.114 121.423 94.4801 117.007 83.1774 117.007C71.8747 117.007 61.2413 121.417 53.2475 129.434C47.5024 135.191 38.1861 135.191 32.4357 129.434C26.6907 123.676 26.6907 114.34 32.4357 108.578C45.9872 94.9974 64.0094 87.5178 83.1774 87.5178C102.345 87.5178 120.362 94.9974 133.919 108.578C139.664 114.335 139.664 123.671 133.919 129.434C131.044 132.315 127.28 133.753 123.516 133.753H123.511Z" fill="white"/>
<g id="Vector_4" style="mix-blend-mode:multiply" opacity="0.21">
<path d="M133.914 123.172C131.039 126.053 127.275 127.491 123.511 127.491C119.747 127.491 115.978 126.053 113.108 123.172C105.114 115.161 94.4805 110.745 83.1778 110.745C71.8751 110.745 61.2417 115.156 53.2479 123.172C47.5028 128.929 38.1865 128.929 32.4361 123.172C30.3641 121.096 29.0416 118.552 28.4633 115.875C27.4407 120.613 28.7631 125.753 32.4361 129.434C38.1812 135.191 47.4975 135.191 53.2479 129.434C61.2417 121.423 71.8751 117.007 83.1778 117.007C94.4805 117.007 105.114 121.417 113.108 129.434C115.983 132.315 119.747 133.753 123.511 133.753C127.275 133.753 131.044 132.315 133.914 129.434C137.587 125.753 138.91 120.613 137.887 115.875C137.309 118.547 135.992 121.09 133.914 123.172Z" fill="white"/>
</g>
</g>
<g id="Group_5">
<path id="Vector_5" d="M81.613 174C94.9108 174 105.691 163.197 105.691 149.871C105.691 136.545 94.9108 125.742 81.613 125.742C68.3152 125.742 57.5352 136.545 57.5352 149.871C57.5352 163.197 68.3152 174 81.613 174Z" fill="white"/>
<g id="Vector_6" style="mix-blend-mode:multiply" opacity="0.21">
<path d="M90.8762 127.593C92.9911 128.581 94.9721 129.949 96.7176 131.693C104.727 139.719 104.727 152.726 96.7176 160.752C88.7077 168.779 75.7292 168.779 67.7193 160.752C59.7094 152.726 59.7094 139.719 67.7193 131.693C71.1728 128.232 75.5471 126.268 80.05 125.79C67.4784 126.601 57.5303 137.063 57.5303 149.866C57.5303 162.668 68.3136 173.995 81.6081 173.995C94.9025 173.995 105.686 163.188 105.686 149.866C105.686 139.832 99.5714 131.226 90.8708 127.588L90.8762 127.593Z" fill="white"/>
</g>
</g>
</g>
<g id="Group_6">
<g id="Vector_7" style="mix-blend-mode:multiply" opacity="0.21">
<path d="M112.839 67.8798C112.839 67.8798 114.542 66.9033 114.462 66.1736C114.381 65.4439 115.758 49.4223 114.703 47.3887C114.703 47.3887 113.975 46.4122 113.321 48.2848C112.673 50.1574 112.186 68.1266 111.051 68.6954C109.916 69.2641 111.945 69.1032 112.834 67.8798H112.839Z" fill="white"/>
</g>
<g id="Vector_8" style="mix-blend-mode:multiply" opacity="0.21">
<path d="M119.335 69.1783C119.335 69.1783 122.419 65.358 121.444 62.5089C120.47 59.6651 118.28 44.781 118.767 44.2123C119.254 43.6435 128.34 40.3115 128.828 40.7998C129.315 41.288 129.395 41.7763 128.988 42.1841C128.581 42.5919 122.253 45.5966 121.037 45.8434C121.037 45.8434 123.398 64.5424 123.227 65.5994C123.227 65.5994 120.957 69.0119 119.335 69.1783Z" fill="white"/>
</g>
<g id="Group_7">
<g id="Group_8">
<path id="Vector_9" d="M121.647 4.1476C121.647 4.1476 117.899 3.66469 117.128 8.53126C116.357 13.3978 118.376 16.2899 117.803 17.5883C117.225 18.8868 113.284 27.2732 122.611 27.8044C131.938 28.3356 133.523 25.9264 133.909 24.2416C134.294 22.5569 133.909 15.9036 128.811 14.8948C128.811 14.8948 127.178 12.0994 127.419 10.8492C127.66 9.59901 126.407 3.67006 121.647 4.15296V4.1476Z" fill="#0A1731"/>
<g id="Group_9">
<path id="Vector_10" d="M112.722 65.0575C112.722 65.0575 113.091 67.0857 112.93 67.3325C112.764 67.5794 109.664 71.0562 108.926 71.0562C108.187 71.0562 107.523 70.1065 109.381 67.2038C109.381 67.2038 110.002 66.3345 109.836 65.2185C109.836 65.2185 111.158 62.9435 112.727 65.0522L112.722 65.0575Z" fill="#F6A36A"/>
<path id="Vector_11" d="M108.513 68.5022C108.685 68.3466 109.686 69.2373 110.644 68.2822C111.597 67.3272 112.845 65.8516 113.07 66.2219C113.289 66.5921 113.364 67.0321 113.289 67.472C113.214 67.912 109.541 72.183 107.93 71.8128C106.313 71.4426 107.635 69.3124 108.519 68.5022H108.513Z" fill="#0A1731"/>
</g>
<g id="Group_10">
<path id="Vector_12" d="M122.38 64.58C122.38 64.58 122.749 66.6082 122.589 66.855C122.423 67.1018 119.323 70.5787 118.584 70.5787C117.845 70.5787 117.181 69.629 119.039 66.7262C119.039 66.7262 119.66 65.857 119.494 64.741C119.494 64.741 120.816 62.466 122.385 64.5746L122.38 64.58Z" fill="#F6A36A"/>
<path id="Vector_13" d="M118.279 67.692C118.45 67.5364 119.452 68.4271 120.41 67.4721C121.363 66.517 122.61 65.0415 122.835 65.4117C123.055 65.7819 123.13 66.2219 123.055 66.6619C122.98 67.1018 119.307 71.3728 117.695 71.0026C116.078 70.6324 117.401 68.5022 118.284 67.692H118.279Z" fill="#0A1731"/>
</g>
<g id="Group_11">
<path id="Vector_14" d="M120.4 34.1786C120.4 34.1786 109.135 40.5476 108.83 42.1143C108.525 43.6811 110.543 45.7361 112.123 45.2156C113.697 44.6952 121.535 41.111 123.313 39.5442C125.09 37.9775 124.202 33.4382 120.4 34.1786Z" fill="#0A1731"/>
<path id="Vector_15" d="M125.053 34.5489C125.053 34.5489 113.338 40.8051 113.29 42.5275C113.242 44.2498 115.956 46.6858 117.664 46.2243C119.372 45.7575 127.682 42.3558 129.427 40.7407C131.167 39.131 129.277 34.0069 125.053 34.5489Z" fill="#0A1731"/>
<path id="Vector_16" d="M114.184 44.1586C114.184 44.1586 115.244 46.3746 114.5 49.8729C113.755 53.3713 113.107 64.9341 113.107 64.9341L109.884 65.1219C109.884 65.1219 108.278 43.5416 108.781 42.2485C109.285 40.95 114.109 40.5905 114.184 44.1586Z" fill="#0A1731"/>
<path id="Vector_17" d="M119.05 43.6274C119.05 43.6274 120.56 45.5644 120.582 49.1432C120.603 52.7167 122.44 64.1561 122.44 64.1561L119.334 65.0306C119.334 65.0306 113.156 44.2981 113.37 42.9245C113.584 41.5509 118.221 40.1666 119.056 43.6328L119.05 43.6274Z" fill="#0A1731"/>
<path id="Vector_18" d="M127.172 42.109C127.172 42.109 132.168 40.7354 129.737 35.4986C129.737 35.4986 125.513 37.8541 117.385 35.7776C117.385 35.7776 116.502 43.5094 127.178 42.109H127.172Z" fill="#0A1731"/>
<g id="Group_12" opacity="0.3">
<path id="Vector_19" d="M120.308 46.2941C119.869 44.2391 117.803 42.8816 117.781 42.8709L117.867 42.7368C117.867 42.7368 120.009 44.1372 120.464 46.2619L120.308 46.2941Z" fill="#67AFE9"/>
</g>
<g id="Group_13" opacity="0.4">
<path id="Vector_20" d="M114.644 48.7623C113.991 47.2921 113.241 42.7314 113.209 42.5382V42.5168V42.4953C113.809 40.9393 116.898 39.3511 117.032 39.2867L117.107 39.4316C117.075 39.4476 113.969 41.0412 113.37 42.5382C113.429 42.887 114.167 47.2975 114.788 48.7032L114.644 48.7676V48.7623Z" fill="#67AFE9"/>
</g>
</g>
<g id="Group_14">
<g id="Group_15">
<path id="Vector_21" d="M128.554 17.7868C128.554 17.7868 131.226 17.5776 132.334 27.1927C132.334 27.1927 131.938 29.5482 130.498 28.1531C129.058 26.7634 126.075 17.5668 128.554 17.7815V17.7868Z" fill="#FF8BB1"/>
<path id="Vector_22" d="M118.215 18.7848C118.215 18.7848 115.875 18.5273 114.21 29.2155C114.21 29.2155 114.392 31.8393 115.763 30.3047C117.128 28.7702 120.415 18.5702 118.215 18.7848Z" fill="#FF8BB1"/>
<path id="Vector_23" d="M126.819 29.7253L127.564 27.2678H127.59L127.847 26.3235L127.874 26.2323L129.025 22.0525C129.025 22.0525 130.444 18.9351 128.988 18.0927C127.826 17.4166 125.791 17.1645 125.015 17.1323C123.896 18.0873 122.563 17.76 121.197 17.2288C120.234 17.6903 118.386 18.6454 117.974 18.7741C117.385 18.9566 117.364 21.3925 117.905 23.0451C117.926 23.1095 117.947 23.1739 117.969 23.2383C117.947 23.2597 117.926 23.2812 117.905 23.3027C117.166 24.0002 117.546 26.5005 119.34 27.5254C119.393 27.6917 119.425 27.7883 119.425 27.7883H119.463C119.682 28.4912 119.987 29.634 119.864 30.2779C119.543 30.6696 117.069 33.7387 117.385 35.783C117.385 35.783 124.876 37.9131 129.737 35.504C129.737 35.504 128.859 31.7534 126.825 29.7253H126.819Z" fill="#FF8BB1"/>
<g id="Vector_24" style="mix-blend-mode:multiply" opacity="0.33">
<path d="M119.088 19.0209C119.538 19.3536 120.073 19.536 120.614 19.6594C121.588 19.8794 122.632 19.9814 123.623 19.858C124.645 19.7346 125.673 19.3912 126.503 18.758C127.023 18.3663 127.29 17.9532 127.408 17.4971C126.466 17.2557 125.497 17.1484 125.009 17.1323C123.89 18.0873 122.557 17.76 121.192 17.2288C120.491 17.5615 119.323 18.1625 118.579 18.5112C118.745 18.7366 119.013 18.9619 119.082 19.0156L119.088 19.0209Z" fill="#DD5829"/>
</g>
<g id="Vector_25" style="mix-blend-mode:multiply" opacity="0.23">
<path d="M129.731 35.4986C129.731 35.4986 128.853 31.748 126.819 29.7199L127.563 27.2624H127.59L127.847 26.3181L127.874 26.2269L128.993 22.1598C128.618 21.4944 128.28 20.8237 128.029 20.1208C127.9 21.9827 127.429 23.8606 127.006 25.6259C126.765 26.64 126.503 27.6863 125.962 28.5877C125.48 29.3926 124.8 29.9828 123.997 30.4335C124.522 30.5086 125.009 30.691 125.373 31.0988C125.801 31.5763 125.989 32.2309 126.155 32.8372C126.487 34.0499 126.556 35.2947 126.305 36.4966C127.504 36.3302 128.677 36.0244 129.731 35.5039V35.4986Z" fill="#DD5829"/>
</g>
<g id="Group_16">
<g id="Group_17">
<path id="Vector_26" d="M121.138 14.2777C121.138 14.2777 121.529 16.6279 121.25 17.1483C120.972 17.6688 123.986 18.7097 124.971 17.3093C124.971 17.3093 124.409 14.2938 124.832 13.7626C124.832 13.7626 122.53 11.8418 121.138 14.2777Z" fill="#F0CF9A"/>
<g id="Group_18">
<path id="Vector_27" d="M121.138 14.2777C121.138 14.2777 121.529 16.6279 121.25 17.1483C120.972 17.6688 123.986 18.7097 124.971 17.3093C124.971 17.3093 124.409 14.2938 124.832 13.7626C124.832 13.7626 122.53 11.8418 121.138 14.2777Z" fill="#F6A36A"/>
<g id="Vector_28" style="mix-blend-mode:multiply" opacity="0.3">
<path d="M121.342 16.6815C122.482 16.2845 123.655 15.925 124.704 15.3562C124.645 14.6587 124.651 13.988 124.827 13.7626C124.827 13.7626 122.525 11.8418 121.133 14.2777C121.133 14.2777 121.39 15.823 121.336 16.6815H121.342Z" fill="#D85369"/>
</g>
</g>
</g>
<g id="Group_19">
<path id="Vector_29" d="M125.914 9.03024C125.813 6.44404 123.821 4.43732 121.465 4.54999C119.109 4.66267 117.278 6.85182 117.38 9.43803C117.39 9.65801 117.31 10.4146 117.348 10.6238C117.348 10.6238 117.112 11.0101 117.08 11.4877C117.042 11.9652 118.301 14.868 120.753 16.3006C120.753 16.3006 124.019 14.8304 125.266 13.2744C125.266 13.2744 125.759 11.9384 125.866 10.436C125.866 10.3609 125.861 10.2912 125.829 10.216C125.904 9.83508 125.936 9.43803 125.92 9.02488L125.914 9.03024Z" fill="#F6A36A"/>
<g id="Group_20">
<path id="Vector_30" d="M125.818 10.2214C125.818 10.2214 126.841 9.73849 126.803 10.8116C126.766 11.8901 126.081 12.7432 125.299 12.5554C125.299 12.5554 125.433 10.6775 125.818 10.2214Z" fill="#F6A36A"/>
<g id="Vector_31" style="mix-blend-mode:multiply" opacity="0.3">
<path d="M125.695 10.5004C125.695 10.5004 126.354 10.1517 126.322 10.9082C126.289 11.6648 125.84 12.2764 125.342 12.1477C125.342 12.1477 125.438 10.8224 125.69 10.4951L125.695 10.5004Z" fill="#D85369"/>
</g>
</g>
<g id="Group_21">
<path id="Vector_32" d="M119.013 9.26633C118.215 8.97123 117.6 9.12146 117.166 9.36828C117.166 9.44339 117.177 9.52388 117.177 9.599C118.135 9.17512 118.853 9.47559 118.965 9.41657C119.11 9.34145 119.019 9.26633 119.019 9.26633H119.013Z" fill="#0A1731"/>
<g id="Group_22">
<g id="Vector_33" style="mix-blend-mode:multiply" opacity="0.7">
<path d="M119.426 9.68481C119.426 9.68481 119.436 9.93163 119.415 10.3019C119.404 10.4843 119.383 10.6989 119.351 10.9296C119.313 11.1603 119.27 11.4018 119.179 11.6432L119.142 11.7345L119.088 11.8203C119.078 11.8471 119.04 11.8793 119.013 11.9062L118.981 11.933L118.949 11.9652C118.901 12.0135 118.896 12.1208 118.938 12.212C119.019 12.3998 119.19 12.5339 119.345 12.609C119.383 12.6305 119.426 12.6466 119.463 12.6573C119.501 12.6734 119.538 12.6842 119.57 12.6895C119.64 12.711 119.704 12.7164 119.758 12.7217C119.811 12.7217 119.854 12.7217 119.881 12.7217C119.908 12.7217 119.924 12.7217 119.924 12.7217C119.924 12.7217 119.908 12.7217 119.881 12.7325C119.854 12.7325 119.811 12.7486 119.758 12.7539C119.704 12.7539 119.635 12.7593 119.56 12.7539C119.522 12.7539 119.479 12.7432 119.436 12.7325C119.394 12.7271 119.351 12.711 119.308 12.6949C119.217 12.6627 119.126 12.6144 119.035 12.5447C118.949 12.4749 118.864 12.3891 118.805 12.271C118.789 12.2442 118.778 12.212 118.767 12.1798C118.756 12.1476 118.751 12.1101 118.751 12.0725C118.746 12.0349 118.762 11.9974 118.767 11.9598C118.783 11.9223 118.81 11.874 118.831 11.8525L118.864 11.8203L118.89 11.7988L118.901 11.7881C118.901 11.7881 118.933 11.7613 118.944 11.7345L118.987 11.6647L119.019 11.5842C119.062 11.4769 119.094 11.3642 119.126 11.2462C119.153 11.1335 119.179 11.0155 119.201 10.9082C119.244 10.6828 119.281 10.4736 119.313 10.2965C119.378 9.93163 119.415 9.69018 119.415 9.69018L119.426 9.68481Z" fill="#D85369"/>
</g>
<path id="Vector_34" d="M123.559 9.97459C123.559 9.97459 122.59 8.55271 120.839 9.25023C120.839 9.25023 120.748 9.33072 120.898 9.40047C121.048 9.47022 122.145 8.93903 123.559 9.97995V9.97459Z" fill="#0A1731"/>
</g>
</g>
</g>
</g>
<path id="Vector_35" d="M131.911 28.2497C131.911 28.2497 132.194 29.3228 122.46 33.7762L121.068 32.2739C121.068 32.2739 128.425 26.0981 130.674 26.141C132.923 26.184 132.248 27.96 131.905 28.2551L131.911 28.2497Z" fill="#FF8BB1"/>
<g id="Vector_36" style="mix-blend-mode:multiply" opacity="0.33">
<path d="M117.685 25.583C117.685 25.583 117.181 24.5743 118.354 22.3905C118.354 22.3905 119.109 21.4677 119.023 20.2872C119.023 20.2872 119.441 21.4623 118.686 22.7232C117.931 23.9841 117.513 24.6548 117.679 25.5777L117.685 25.583Z" fill="#DD5829"/>
</g>
<g id="Vector_37" style="mix-blend-mode:multiply" opacity="0.23">
<path d="M122.482 33.5509C123.06 33.2665 123.644 32.9983 124.227 32.7246L125.984 31.9252L127.745 31.1418C128.04 31.013 128.334 30.8789 128.623 30.7447C128.912 30.6052 129.212 30.4818 129.48 30.3047C128.96 30.6911 128.372 30.9701 127.799 31.2598C127.22 31.5496 126.637 31.8125 126.048 32.0808C125.459 32.3383 124.87 32.5958 124.276 32.8427C123.681 33.0895 123.082 33.3256 122.477 33.5509H122.482Z" fill="#DD5829"/>
</g>
<g id="Vector_38" style="mix-blend-mode:multiply" opacity="0.23">
<path d="M121.068 32.2685C121.636 31.7588 122.219 31.2651 122.808 30.7822C123.397 30.294 123.997 29.8218 124.591 29.3496C125.196 28.8828 125.801 28.4214 126.428 27.9761C126.738 27.7561 127.054 27.5361 127.37 27.3268C127.536 27.2249 127.691 27.1176 127.857 27.0264L128.109 26.8868L128.371 26.7742L128.12 26.9083L127.879 27.0639C127.718 27.1659 127.568 27.2839 127.413 27.3912C127.102 27.6166 126.797 27.8419 126.497 28.078C125.892 28.5394 125.287 29.0062 124.688 29.4784L122.878 30.8788C122.273 31.3456 121.668 31.8124 121.058 32.2685H121.068Z" fill="#DD5829"/>
</g>
</g>
<path id="Vector_39" d="M120.394 5.39777C120.367 5.5963 121.454 8.09665 123.425 9.0088C125.395 9.92631 124.865 12.2872 124.388 13.2476C124.388 13.2476 125.668 11.815 125.968 10.3126C126.268 8.81564 126.509 4.90951 122.032 4.28174C122.032 4.28174 120.592 4.04029 120.399 5.39241L120.394 5.39777Z" fill="#0A1731"/>
<path id="Vector_40" d="M121.117 6.31529C121.117 6.31529 118.665 9.64195 117.224 9.92632C117.224 9.92632 116.405 5.20462 121.117 4.28711C121.117 4.28711 121.743 5.63387 121.117 6.30993V6.31529Z" fill="#0A1731"/>
<path id="Vector_41" d="M120.635 10.5648C120.635 10.5648 121.604 11.1604 122.632 10.5112C122.632 10.5112 121.716 11.536 120.635 10.5648Z" fill="#0A1731"/>
<path id="Vector_42" d="M117.08 10.5112C117.08 10.5112 117.894 11.1068 118.751 10.4575C118.751 10.4575 117.985 11.4823 117.08 10.5112Z" fill="#0A1731"/>
</g>
<g id="Group_23">
<path id="Vector_43" d="M123.634 40.2471L129.207 38.3906L113.889 37.6985L108.894 39.2545L123.634 40.2471Z" fill="#EAD4CE"/>
<path id="Vector_44" d="M123.634 40.2471L107.604 39.1687L107.711 27.8098L123.441 28.636L123.634 40.2471Z" fill="white"/>
<path id="Vector_45" opacity="0.47" d="M108.037 38.5087L108.139 27.8312L107.711 27.8098L107.604 39.1687L123.634 40.2471L123.623 39.5603L108.037 38.5087Z" fill="#CC9A8F"/>
<path id="Vector_46" d="M123.441 28.636L123.87 28.5609L123.955 40.2042L123.634 40.2471L123.441 28.636Z" fill="#EFCFC7"/>
<path id="Vector_47" d="M123.955 40.2042L129.208 38.3906L129.293 38.0472L123.955 39.6837V40.2042Z" fill="#CC9A8F"/>
<path id="Vector_48" d="M116.128 33.8192C116.128 34.4845 115.705 35.0264 115.18 35.0264C114.655 35.0264 114.232 34.4845 114.232 33.8192C114.232 33.1539 114.655 32.6119 115.18 32.6119C115.705 32.6119 116.128 33.1539 116.128 33.8192Z" fill="#CC9A8F"/>
</g>
</g>
<path id="Vector_49" d="M119.65 13.8485C119.65 13.8485 119.511 14.0739 119.634 14.208C119.757 14.3421 120.555 14.2724 120.865 13.6768C120.865 13.6768 120.046 13.9612 119.65 13.8485Z" fill="#E86B87"/>
<path id="Vector_50" d="M119.361 13.5266C119.361 13.5266 119.361 13.8432 119.49 13.8861C119.618 13.9291 120.743 13.913 120.973 13.5964C120.973 13.5964 119.608 13.4086 119.361 13.5266Z" fill="#D85369"/>
</g>
</g>
<g id="Group_24">
<path id="Vector_51" d="M69.1597 61.3607H65.8936C62.8417 61.3607 60.3467 63.861 60.3467 66.9194C60.3467 68.6793 61.1766 70.2514 62.4562 71.2709C62.558 72.5532 62.4295 74.5492 60.6733 74.7692C58.1943 75.0804 63.9447 76.2716 65.9311 72.4781H69.1597C72.2116 72.4781 74.7066 69.9778 74.7066 66.9194C74.7066 63.861 72.2116 61.3607 69.1597 61.3607Z" fill="#DD5829"/>
<g id="Group_25">
<path id="Vector_52" d="M65.0527 65.5888C65.0527 65.2883 65.2562 65.0737 65.54 65.0737C65.8237 65.0737 66.0111 65.2883 66.0218 65.5888C66.0218 65.8731 65.8344 66.0931 65.5346 66.0931C65.2508 66.0931 65.0527 65.8731 65.0527 65.5888ZM65.0527 68.4754C65.0527 68.175 65.2562 67.9603 65.54 67.9603C65.8237 67.9603 66.0111 68.175 66.0218 68.4754C66.0218 68.7598 65.8344 68.9798 65.5346 68.9798C65.2508 68.9798 65.0527 68.7598 65.0527 68.4754Z" fill="white"/>
<path id="Vector_53" d="M66.4824 69.8866C67.0607 69.0764 67.5104 68.014 67.5104 66.5438C67.5104 65.0737 67.0714 64.0327 66.4824 63.2225H67.0393C67.564 63.8932 68.1101 64.9395 68.1101 66.5492C68.1101 68.1589 67.564 69.189 67.0393 69.8866H66.4824Z" fill="white"/>
</g>
</g>
<g id="Group_26">
<path id="Vector_54" d="M102.699 12.8988H105.676C108.46 12.8988 110.736 15.1792 110.736 17.9693C110.736 19.5736 109.981 21.0062 108.808 21.9398C108.717 23.1095 108.835 24.9284 110.436 25.1323C112.695 25.4167 107.453 26.5005 105.638 23.0451H102.694C99.9093 23.0451 97.6338 20.7647 97.6338 17.9746C97.6338 15.1845 99.9093 12.9042 102.694 12.9042L102.699 12.8988Z" fill="#F33F36"/>
<path id="Vector_55" d="M107.02 16.043C105.901 14.6158 104.616 16.1932 104.235 16.7244C103.855 16.1932 102.57 14.6158 101.451 16.043C100.193 17.6473 102.731 20.5501 104.123 21.0544V21.1188C104.161 21.1135 104.193 21.1027 104.23 21.092C104.268 21.1027 104.305 21.1135 104.337 21.1188V21.0544C105.735 20.5501 108.267 17.6473 107.009 16.043H107.02Z" fill="white"/>
</g>
<g id="Group_27">
<path id="Vector_56" d="M59.6129 0H56.6359C53.8518 0 51.5762 2.28037 51.5762 5.07046C51.5762 6.67477 52.3312 8.10737 53.5037 9.04098C53.5948 10.2107 53.477 12.0296 51.8761 12.2335C49.6166 12.5179 54.8583 13.6017 56.6734 10.1463H59.6182C62.4024 10.1463 64.6779 7.86592 64.6779 5.07583C64.6779 2.28573 62.397 0 59.6129 0Z" fill="#FCD246"/>
<path id="Vector_57" d="M56.9842 8.18249V7.43131C56.5505 7.42594 56.1061 7.2918 55.8438 7.10401L56.0204 6.60501C56.2881 6.78207 56.6736 6.92694 57.0913 6.92694C57.6213 6.92694 57.9747 6.62111 57.9747 6.19723C57.9747 5.77335 57.6856 5.5319 57.1341 5.31191C56.3738 5.01144 55.908 4.66804 55.908 4.02417C55.908 3.3803 56.347 2.93496 57.0324 2.82229V2.07111H57.4928V2.79546C57.9372 2.81155 58.2424 2.9296 58.462 3.05837L58.2745 3.552C58.1193 3.46079 57.8141 3.29982 57.3376 3.29982C56.7647 3.29982 56.5505 3.64322 56.5505 3.94369C56.5505 4.33001 56.8236 4.52317 57.4714 4.79145C58.2371 5.10265 58.6226 5.49434 58.6226 6.1543C58.6226 6.74452 58.2157 7.29717 57.4447 7.42058V8.19858H56.9735L56.9842 8.18249Z" fill="#385087"/>
</g>
<g id="Group_28">
<path id="Vector_58" d="M139.477 126.418H136.221C133.18 126.418 130.69 128.913 130.69 131.961C130.69 133.715 131.515 135.282 132.795 136.302C132.896 137.579 132.768 139.569 131.017 139.789C128.549 140.1 134.278 141.286 136.259 137.503H139.477C142.518 137.503 145.008 135.008 145.008 131.961C145.008 128.913 142.518 126.418 139.477 126.418Z" fill="#FF8BB1"/>
<g id="Group_29">
<path id="Vector_59" d="M135.542 135.529C136.349 135.529 137.003 135.087 137.003 134.542C137.003 133.996 136.349 133.554 135.542 133.554C134.734 133.554 134.08 133.996 134.08 134.542C134.08 135.087 134.734 135.529 135.542 135.529Z" fill="#385087"/>
<path id="Vector_60" d="M140.879 133.211C140.879 133.758 140.226 134.198 139.418 134.198C138.609 134.198 137.956 133.753 137.956 133.211C137.956 132.669 138.609 132.224 139.418 132.224C140.226 132.224 140.879 132.669 140.879 133.211Z" fill="#385087"/>
<path id="Vector_61" d="M137.003 129.766H136.388V134.542H137.003V129.766Z" fill="#385087"/>
<path id="Vector_62" d="M140.875 128.436H140.259V133.211H140.875V128.436Z" fill="#385087"/>
<path id="Vector_63" d="M140.88 128.436H136.388V130.002H140.88V128.436Z" fill="#385087"/>
</g>
</g>
<g id="Group_30">
<g id="Vector_64" style="mix-blend-mode:multiply" opacity="0.21">
<path d="M34.4863 45.2478C34.4863 45.2478 34.663 48.6496 43.9632 46.8628C43.9632 46.8628 52.0106 40.5905 34.4863 45.2478Z" fill="white"/>
</g>
<g id="Group_31">
<g id="Vector_65" style="mix-blend-mode:multiply" opacity="0.38">
<path d="M43.6471 14.9538C43.6471 14.5353 43.69 14.1973 43.8024 14.0363C43.8024 14.0363 41.2913 11.7935 39.835 14.7177C39.835 14.7177 39.8778 14.9699 39.926 15.3294C41.1628 15.1738 42.405 15.0289 43.6471 14.9485V14.9538Z" fill="#F6A36A"/>
</g>
<path id="Vector_66" d="M37.0083 35.5523C37.0083 35.5523 43.5993 34.2002 50.1421 34.9352C50.1421 34.9352 50.5651 36.3518 50.6615 37.9507C50.7579 39.5496 45.8802 40.9608 45.3127 42.9192C45.3127 42.9192 43.6368 43.4987 41.7361 43.1285C41.7361 43.1285 39.6747 40.0433 36.7781 40.215L35.9268 40.2633C35.9268 40.2633 36.1731 35.7562 37.019 35.5469L37.0083 35.5523Z" fill="#0A1731"/>
<g id="Group_32">
<path id="Vector_67" d="M37.1307 48.2901C37.1307 48.2901 31.9693 48.9179 31.9371 49.8515C31.905 50.7851 31.8461 53.0064 34.2608 54.4176L35.064 54.8898L38.6299 51.1231C38.6299 51.1231 39.6632 48.1935 37.1307 48.2901Z" fill="#F33F36"/>
<path id="Vector_68" d="M54.1789 35.7454C54.1789 35.7454 51.6785 36.121 49.0549 38.7179C46.4314 41.3149 36.7617 48.4081 36.7617 48.4081L38.3573 51.1875C38.3573 51.1875 57.9322 40.2954 58.7835 39.1472C59.6348 37.9936 57.3165 33.787 54.1843 35.7454H54.1789Z" fill="#0A1731"/>
</g>
<g id="Group_33">
<path id="Vector_69" d="M39.835 14.4817C39.835 14.4817 40.2954 16.8318 40.0063 17.3576C39.7172 17.8835 42.9779 18.8815 44.0166 17.4596C44.0166 17.4596 43.358 14.4441 43.8078 13.9076C43.8078 13.9076 41.2967 12.0189 39.8403 14.4817H39.835Z" fill="#F6A36A"/>
<path id="Vector_70" d="M40.0112 17.4059C40.0112 17.4059 35.7868 19.1015 34.9997 19.3053C34.2126 19.5146 34.2019 22.0793 34.9462 23.8017C35.6904 25.524 36.8255 28.5019 36.8255 28.5019L48.3102 27.8205L49.9165 22.4335C49.9165 22.4335 51.8012 19.1122 49.8308 18.2698C47.8605 17.422 44.0215 17.4918 44.0215 17.4918C44.0215 17.4918 43.7592 15.7426 40.0166 17.4059H40.0112Z" fill="#F33F36"/>
<path id="Vector_71" d="M36.8206 28.5072C36.8206 28.5072 35.9479 37.0707 35.9961 37.8702C36.0443 38.6696 49.2156 38.5677 50.7254 37.0331C50.7254 37.0331 48.1929 28.636 48.7283 26.8385C49.2638 25.0411 38.4108 22.9539 36.8206 28.5072Z" fill="#F33F36"/>
<path id="Vector_72" d="M50.1146 18.2054C50.1146 18.2054 53.9161 18.7205 53.0219 30.074C53.0219 30.074 51.8654 32.6656 50.2003 30.6588C48.5351 28.6521 46.6933 17.2503 50.1146 18.2V18.2054Z" fill="#F33F36"/>
<path id="Vector_73" d="M45.9439 16.8157C46.1367 16.027 46.3723 15.1953 45.8743 15.1953C45.794 15.1953 45.5852 15.2221 45.3014 15.2651C45.2907 15.2651 45.2746 15.2651 45.2586 15.2704C44.7178 15.3509 43.8933 15.4797 43.0152 15.5977C41.1251 15.6192 38.5712 15.4099 38.2285 15.4421C37.7359 15.4851 38.0465 16.2953 38.3195 17.0625C38.5873 17.8244 38.1429 18.0981 38.1429 18.0981C38.8121 19.3966 40.3863 19.4824 41.9122 19.1605C43.6577 19.477 45.6013 19.3805 46.217 17.8298C46.217 17.8298 45.7458 17.6045 45.9386 16.8157H45.9439Z" fill="#F33F36"/>
<g id="Group_34">
<path id="Vector_74" d="M37.4253 11.6218C37.4253 11.6218 39.1601 16.6547 43.347 14.3207C47.534 11.9867 45.3334 1.85112 40.4236 2.77936C35.5138 3.71297 37.2325 11.1496 37.4199 11.6218H37.4253Z" fill="#F6A36A"/>
<path id="Vector_75" d="M45.1519 8.11809C45.1519 8.11809 46.1049 6.61573 46.726 8.34344C47.3471 10.0712 45.4517 10.9833 45.1626 10.5219C44.8735 10.0551 45.1519 8.11809 45.1519 8.11809Z" fill="#F6A36A"/>
<path id="Vector_76" d="M37.2757 8.58493C37.2757 8.58493 36.1513 7.20598 35.739 8.99808C35.3214 10.7848 37.3131 11.4716 37.5487 10.978C37.779 10.4843 37.2757 8.58493 37.2757 8.58493Z" fill="#F6A36A"/>
<g id="Vector_77" style="mix-blend-mode:multiply" opacity="0.38">
<path d="M37.0451 8.94978C37.0451 8.94978 36.317 8.0591 36.0493 9.21806C35.7816 10.377 37.0666 10.817 37.2165 10.5004C37.3664 10.1785 37.0398 8.95515 37.0398 8.95515L37.0451 8.94978Z" fill="#F6A36A"/>
</g>
<g id="Vector_78" style="mix-blend-mode:multiply" opacity="0.38">
<path d="M45.4304 8.42934C45.4304 8.42934 46.1586 7.53865 46.4263 8.69761C46.694 9.85658 45.409 10.2966 45.2591 9.97998C45.1092 9.65805 45.4358 8.4347 45.4358 8.4347L45.4304 8.42934Z" fill="#F6A36A"/>
</g>
<path id="Vector_79" d="M44.884 3.96516C45.3284 2.774 45.0393 1.84576 42.8601 1.67406C40.6435 1.50236 37.945 2.15159 37.5969 2.59157C37.2489 3.02618 35.3375 5.0329 36.4244 8.08055C36.4244 8.08055 37.2917 8.73514 37.3399 9.60437C37.3881 10.4736 37.7308 8.90684 37.6023 7.9947C37.4738 7.07718 37.9931 4.11539 39.1229 4.24953C39.9688 4.34611 42.496 4.8612 43.9149 4.59829C44.1933 5.11875 44.9697 6.69086 44.8626 7.73178C44.7341 8.99806 44.7341 8.73514 45.0821 9.99605C45.0821 9.99605 45.1678 7.90348 45.7781 7.59764C45.7781 7.59764 45.3445 5.05973 44.8893 3.95979L44.884 3.96516Z" fill="#0A1731"/>
<g id="Group_35">
<path id="Vector_80" d="M38.5557 6.99138C38.9197 6.40116 39.8781 6.23483 40.2958 6.8626C39.7282 6.43872 39.075 6.59432 38.5557 6.99138Z" fill="#0A1731"/>
<path id="Vector_81" d="M42.3408 6.77674C42.7049 6.18653 43.6633 6.01483 44.0809 6.64797C43.5134 6.22409 42.8602 6.37969 42.3408 6.77674Z" fill="#0A1731"/>
<path id="Vector_82" d="M44.1933 8.05377C43.8613 8.66545 42.9136 8.88007 42.4639 8.27376C43.0475 8.66545 43.6953 8.47765 44.1933 8.05377Z" fill="#0A1731"/>
<path id="Vector_83" d="M40.456 8.22546C40.124 8.83714 39.1763 9.05176 38.7266 8.44545C39.3102 8.83714 39.958 8.64934 40.456 8.22546Z" fill="#0A1731"/>
<path id="Vector_84" d="M42.7636 11.1014C42.4316 11.7131 41.4839 11.9277 41.0342 11.3214C41.6178 11.7131 42.2656 11.5253 42.7636 11.1014Z" fill="#0A1731"/>
<g id="Vector_85" style="mix-blend-mode:multiply">
<path d="M41.238 7.39916L41.1416 10.1088C41.1416 10.1088 41.8591 10.6024 42.1803 9.97463L41.8484 7.37233C41.8484 7.37233 41.4414 6.99674 41.238 7.39916Z" fill="#F6A36A"/>
</g>
</g>
</g>
<g id="Vector_86" style="mix-blend-mode:multiply" opacity="0.4">
<path d="M38.7636 15.8231C38.8921 16.5903 38.9991 17.3308 39.2133 18.0766C38.9938 17.7493 38.8814 17.3683 38.801 16.9874C38.7421 16.6011 38.7047 16.2094 38.7582 15.8231H38.7636Z" fill="#1F2B54"/>
</g>
<g id="Vector_87" style="mix-blend-mode:multiply" opacity="0.4">
<path d="M45.5791 15.5655C45.638 15.9518 45.6005 16.3435 45.5363 16.7298C45.456 17.1108 45.3435 17.4971 45.124 17.819C45.3382 17.0732 45.4453 16.3328 45.5738 15.5655H45.5791Z" fill="#1F2B54"/>
</g>
<g id="Vector_88" style="mix-blend-mode:multiply" opacity="0.4">
<path d="M40.4985 16.0806C40.6163 16.7513 40.6699 17.4059 40.7555 18.0766C40.5949 17.7708 40.536 17.4327 40.4878 17.0947C40.4611 16.7567 40.4396 16.4187 40.4985 16.0753V16.0806Z" fill="#1F2B54"/>
</g>
<g id="Vector_89" style="mix-blend-mode:multiply" opacity="0.4">
<path d="M42.6826 16.0806C42.7361 16.3918 42.7308 16.7084 42.7254 17.0196C42.704 17.3308 42.6933 17.642 42.6183 17.9532C42.5648 17.642 42.5701 17.3254 42.5755 17.0142C42.5969 16.703 42.613 16.3918 42.6826 16.0806Z" fill="#1F2B54"/>
</g>
<g id="Vector_90" style="mix-blend-mode:multiply" opacity="0.4">
<path d="M44.1657 15.9518C44.2246 16.2791 44.2192 16.6118 44.1978 16.9391C44.1764 17.1054 44.1603 17.2664 44.1175 17.4327C44.0747 17.5937 44.0211 17.76 43.9033 17.8834C43.9676 17.7332 43.9783 17.5669 43.9997 17.4113C44.0158 17.2503 44.0318 17.0893 44.0425 16.9284C44.08 16.6064 44.0961 16.2791 44.1603 15.9518H44.1657Z" fill="#1F2B54"/>
</g>
</g>
<g id="Group_36">
<path id="Vector_91" d="M48.5351 48.6764C48.5351 48.6764 52.358 52.207 53.0915 51.6329C53.8251 51.0534 55.5491 49.6583 55.0565 46.9004L54.8906 45.9829L49.7184 45.7039C49.7184 45.7039 46.8218 46.8092 48.5351 48.6818V48.6764Z" fill="#F33F36"/>
<path id="Vector_92" d="M31.204 37.2746C31.204 37.2746 33.6294 37.0976 36.5849 39.0453C39.5404 40.9983 49.9597 45.779 49.9597 45.779L48.9692 48.8267C48.9692 48.8267 28.5055 42.5168 27.4935 41.5832C26.4816 40.6496 27.8951 36.0566 31.204 37.2746Z" fill="#0A1731"/>
<path id="Vector_93" opacity="0.42" d="M35.9961 38.836C37.2008 39.335 38.3948 39.8501 39.578 40.3866C40.7667 40.9178 41.9339 41.4812 43.1118 42.0392C44.279 42.6134 45.4462 43.1875 46.5974 43.7938C47.7432 44.4108 48.9104 44.9957 49.9598 45.779C49.4191 45.4142 48.8247 45.1513 48.2465 44.8615L46.4957 44.0084L42.9833 42.3183L39.4817 40.6013C38.3145 40.0272 37.158 39.4369 36.0014 38.836H35.9961Z" fill="white"/>
<path id="Vector_94" opacity="0.42" d="M39.7275 45.9937C40.6324 46.1332 41.5051 46.3639 42.3779 46.6161C43.2452 46.879 44.1073 47.1633 44.9372 47.5389C44.0323 47.3994 43.1596 47.1687 42.2868 46.9165C41.4195 46.6536 40.5574 46.3692 39.7275 45.9937Z" fill="white"/>
</g>
<g id="Group_37">
<path id="Vector_95" d="M53.7501 20.9579H43.7217V33.8782H53.7501V20.9579Z" fill="white"/>
<path id="Vector_96" d="M49.6864 27.418C49.6864 28.0833 49.2634 28.6253 48.7387 28.6253C48.214 28.6253 47.791 28.0833 47.791 27.418C47.791 26.7527 48.214 26.2108 48.7387 26.2108C49.2634 26.2108 49.6864 26.7527 49.6864 27.418Z" fill="#CC9A8F"/>
</g>
<g id="Group_38">
<g id="Group_39">
<path id="Vector_97" d="M42.3733 28.3249C42.3733 28.3249 43.7172 26.903 44.1616 27.5093C44.606 28.1156 43.4923 28.3731 43.4923 28.3731C43.4923 28.3731 46.0195 28.9795 46.5549 28.6307C47.0849 28.2819 47.2081 31.0076 42.8873 30.5999C42.8873 30.5999 41.1257 29.0921 42.3786 28.3249H42.3733Z" fill="#F6A36A"/>
<path id="Vector_98" d="M36.2801 18.758C36.2801 18.758 32.8106 18.3771 30.9688 29.9399C30.9688 29.9399 31.3864 32.8051 33.3192 31.19C35.2521 29.575 39.514 18.6132 36.2801 18.7527V18.758Z" fill="#F33F36"/>
<path id="Vector_99" d="M32.8374 32.5314C32.8374 32.5314 33.6673 34.007 42.8926 30.5998L42.2554 28.5072C42.2554 28.5072 32.7089 27.0371 31.5577 29.0492C30.4066 31.0559 32.3876 32.4992 32.8374 32.5314Z" fill="#F33F36"/>
</g>
<g id="Vector_100" style="mix-blend-mode:multiply" opacity="0.4">
<path d="M37.2166 20.6574C37.1899 21.6661 37.056 22.6641 36.8686 23.6568C36.7669 24.1504 36.6598 24.644 36.5099 25.1269C36.36 25.6098 36.1994 26.0981 35.9316 26.5273C36.0816 26.0444 36.1779 25.5615 36.2797 25.0679L36.5634 23.5977C36.7615 22.6158 36.9543 21.6339 37.2166 20.6628V20.6574Z" fill="#1F2B54"/>
</g>
<g id="Vector_101" style="mix-blend-mode:multiply" opacity="0.4">
<path d="M35.4183 28.0082C35.0274 28.3731 34.6205 28.6897 34.2457 29.0331C34.0529 29.1994 33.8762 29.3765 33.7049 29.5643C33.5389 29.752 33.389 29.9506 33.2926 30.2028C33.2605 29.9291 33.373 29.6555 33.5122 29.4247C33.6514 29.1887 33.8388 28.9848 34.0369 28.8023C34.2403 28.6253 34.4545 28.4643 34.6847 28.3355C34.915 28.2014 35.1559 28.0834 35.4129 28.0136L35.4183 28.0082Z" fill="#1F2B54"/>
</g>
</g>
</g>
</g>
<g id="Group_40">
<path id="Vector_102" d="M50.2493 76.6364C50.078 76.9315 49.6978 77.0335 49.4033 76.8618L44.44 73.9912C44.1455 73.8195 44.0438 73.4385 44.2151 73.1434C44.3865 72.8483 44.7666 72.7464 45.0611 72.9181L50.0244 75.7886C50.3189 75.9603 50.4206 76.3413 50.2493 76.6364Z" fill="white"/>
<g id="Group_41">
<g id="Vector_103" style="mix-blend-mode:multiply" opacity="0.21">
<path d="M37.752 101.849C37.752 101.849 38.1856 105.745 42.7206 104.661C47.2556 103.577 63.8858 93.4038 90.4533 95.3515C117.021 97.2992 121.342 99.6815 123.071 101.195C124.8 102.708 128.902 104.655 128.902 102.708C128.902 100.76 87.214 75.6492 37.752 101.844V101.849Z" fill="white"/>
</g>
<g id="Group_42">
<g id="Group_43">
<g id="Group_44">
<path id="Vector_104" d="M121.55 98.0718C121.55 98.0718 124.361 99.9015 125.18 100.916C126 101.93 127.14 101.184 128.168 99.1342C129.191 97.0846 129.582 96.4246 130.251 95.5822C130.92 94.7398 131.466 91.6975 131.466 91.6975C131.466 91.6975 130.438 90.7371 128.789 92.9531C127.14 95.1691 125.196 96.6768 123.355 95.5983C121.518 94.5145 121.224 96.8217 121.55 98.0772V98.0718Z" fill="#FCD246"/>
<path id="Vector_105" d="M125.534 101.393C125.534 101.393 126.722 102.278 127.75 100.427C128.778 98.5762 132.328 93.3341 131.466 91.6922C131.466 91.6922 130.941 91.043 129.876 91.7727C129.876 91.7727 129.33 92.1751 129.153 92.4809C128.982 92.7868 129.453 93.3662 130.026 93.6131C130.599 93.8545 127.9 100.363 125.528 101.388L125.534 101.393Z" fill="white"/>
<path id="Vector_106" d="M125.352 95.8237C125.352 95.8237 125.48 97.0202 126.187 97.149C126.187 97.149 126.438 96.7466 125.758 95.6573L125.352 95.8237Z" fill="white"/>
<path id="Vector_107" d="M126.257 95.2925C126.257 95.2925 126.482 96.4729 127.194 96.548C127.194 96.548 127.413 96.1295 126.653 95.0939L126.262 95.2925H126.257Z" fill="white"/>
<path id="Vector_108" d="M127.118 94.7184C127.118 94.7184 127.563 95.8344 128.275 95.77C128.275 95.77 128.414 95.3193 127.466 94.4501L127.118 94.7184Z" fill="white"/>
<path id="Vector_109" d="M126.214 98.8284C126.358 99.1825 126.187 99.5795 125.839 99.7244C125.486 99.8693 125.09 99.6976 124.945 99.3488C124.8 98.9947 124.972 98.5977 125.32 98.4528C125.673 98.3079 126.069 98.4796 126.214 98.8284Z" fill="white"/>
</g>
<path id="Vector_110" d="M100.353 91.1074C100.353 91.1074 102.656 93.994 106.859 95.212C111.062 96.4246 121.545 98.3938 122.236 98.6299C122.927 98.8606 124.886 97.0149 123.735 95.2818C123.735 95.2818 102.661 85.3394 100.701 86.0315C98.7417 86.7237 99.8929 90.764 100.353 91.1127V91.1074Z" fill="#178B8E"/>
<path id="Vector_111" d="M81.2012 92.041C81.2012 92.041 102.848 93.1409 103.544 89.7016C104.235 86.2569 100.514 83.7243 84.917 81.7874C84.917 81.7874 75.9809 86.1603 81.2012 92.0463V92.041Z" fill="#178B8E"/>
</g>
<g id="Group_45">
<g id="Group_46">
<path id="Vector_112" d="M106.751 91.9658C106.751 91.9658 108.77 94.7828 109.203 96.0812C109.637 97.3797 110.943 97.0417 112.571 95.3569C114.199 93.6721 114.777 93.1516 115.676 92.5453C116.576 91.939 118.086 89.1006 118.086 89.1006C118.086 89.1006 117.443 87.7807 115.178 89.4118C112.914 91.043 110.606 91.8585 109.246 90.1362C107.886 88.4085 106.858 90.6084 106.751 91.9712V91.9658Z" fill="#FCD246"/>
<path id="Vector_113" d="M109.374 96.6822C109.374 96.6822 110.194 97.9807 111.757 96.4998C113.321 95.0243 118.348 91.043 118.08 89.1007C118.08 89.1007 117.807 88.269 116.571 88.6231C116.571 88.6231 115.928 88.8324 115.666 89.0792C115.403 89.326 115.655 90.0718 116.11 90.5118C116.565 90.9571 111.918 96.4944 109.369 96.6822H109.374Z" fill="white"/>
<path id="Vector_114" d="M111.029 91.0591C111.029 91.0591 110.756 92.2986 111.372 92.6742C111.372 92.6742 111.741 92.363 111.463 91.0377L111.029 91.0591Z" fill="white"/>
<path id="Vector_115" d="M112.046 90.8552C112.046 90.8552 111.864 92.1108 112.507 92.4327C112.507 92.4327 112.849 92.0947 112.475 90.7962L112.046 90.8552Z" fill="white"/>
<path id="Vector_116" d="M113.042 90.5816C113.042 90.5816 113.09 91.8532 113.776 92.041C113.776 92.041 114.054 91.6386 113.454 90.4367L113.042 90.5816Z" fill="white"/>
<path id="Vector_117" d="M110.847 94.3643C110.863 94.7667 110.574 95.1047 110.199 95.1262C109.824 95.1477 109.508 94.8365 109.487 94.434C109.471 94.0316 109.76 93.6936 110.135 93.6721C110.51 93.6507 110.826 93.9619 110.847 94.3643Z" fill="white"/>
</g>
<path id="Vector_118" d="M83.6961 92.2073C83.6961 92.2073 99.93 76.116 97.8579 73.2883C95.7859 70.4607 90.8386 72.0006 78.9095 82.2542C78.9095 82.2542 75.8415 92.1161 83.6961 92.2073Z" fill="#60C1C6"/>
<path id="Vector_119" d="M79.4772 81.9323C79.4772 81.9323 77.3248 81.7498 74.2568 82.2005C75.1778 85.7311 76.5538 89.0738 77.2391 92.6527C78.8989 92.6258 80.7515 92.5668 82.438 92.4434C86.9784 92.1107 77.7317 90.4742 79.4772 81.9323Z" fill="#60C1C6"/>
<path id="Vector_120" d="M94.5328 76.2072C94.5328 76.2072 94.9183 79.448 97.3651 82.3025C99.812 85.1569 106.36 91.4722 106.751 91.9658C107.142 92.4595 109.316 91.9658 109.246 90.1308C109.246 90.1308 98.6394 72.9181 96.9636 72.5371C95.2823 72.1562 94.3614 75.735 94.5381 76.2072H94.5328Z" fill="#60C1C6"/>
</g>
<g id="Group_47">
<path id="Vector_121" d="M50.6563 97.4066C50.6563 97.4066 52.616 96.4193 54.4417 97.0578C56.2675 97.6963 55.1753 93.0229 53.1782 92.4488L49.5962 94.2892C49.5962 94.2892 47.9792 97.1061 50.651 97.4066H50.6563Z" fill="#F6A36A"/>
<g id="Vector_122" style="mix-blend-mode:multiply" opacity="0.35">
<path d="M50.9503 93.597L49.6011 94.2891C49.6011 94.2891 47.9841 97.1061 50.6559 97.4065C50.6559 97.4065 51.1538 97.1544 51.882 96.988C51.6357 95.8398 51.3519 94.6969 50.945 93.597H50.9503Z" fill="#F6A36A"/>
</g>
<g id="Group_48">
<path id="Vector_123" d="M50.3027 97.0524L49.5531 91.4669L46.4798 91.1932L45.8534 93.377L45.6821 91.1127C45.6821 91.1127 40.9918 92.1644 38.9733 95.0242C38.9733 95.0242 38.2772 101.297 42.8658 101.715C47.4543 102.134 50.0993 97.9538 50.3081 97.047L50.3027 97.0524Z" fill="#F6A36A"/>
<path id="Vector_124" d="M39.1069 94.5467C39.1069 94.5467 37.0188 96.0812 36.8796 97.0578C36.7404 98.0343 37.8541 102.005 41.2593 103.609C41.2593 103.609 49.5369 102.563 50.7844 97.267C50.7844 97.267 50.7844 96.5695 50.2972 97.0578C49.81 97.546 46.9615 99.7084 45.5695 99.5689C44.1774 99.4294 40.0064 102.638 39.1016 94.5521L39.1069 94.5467Z" fill="#0A1731"/>
<path id="Vector_125" d="M42.3086 100.138C42.3086 100.138 44.6751 97.6963 44.9536 97.2778C44.9536 97.2778 45.58 97.4173 45.1624 98.045C44.7448 98.6728 44.2575 99.0216 45.0232 99.4401C45.7888 99.8586 47.2505 99.0216 47.3201 98.3241C47.3897 97.6265 49.1994 98.045 49.8259 97.487C50.4523 96.929 44.6109 102.853 42.3139 100.138" fill="#0A1731"/>
<path id="Vector_126" d="M42.0303 92.5239C42.0303 92.5239 43.2832 89.943 43.7008 90.2918C44.1184 90.6406 44.4664 91.6869 44.4664 91.6869C44.4664 91.6869 42.0999 93.1517 42.0303 92.5239Z" fill="#F6A36A"/>
<path id="Vector_127" d="M40.2852 93.699L40.7724 93.1409C40.7724 93.1409 40.2156 94.6057 42.2341 95.094C42.2341 95.094 40.9116 95.8613 40.2852 93.699Z" fill="#0A1731"/>
<path id="Vector_128" d="M42.0036 92.98C42.0839 93.098 41.9554 93.3287 41.7145 93.4843C41.4735 93.6453 41.2165 93.6775 41.1362 93.5541C41.0559 93.436 41.1844 93.2053 41.4253 93.0497C41.6663 92.8887 41.9233 92.8565 42.0036 92.98Z" fill="#0A1731"/>
<path id="Vector_129" d="M45.6762 91.1235L45.8476 93.3877L46.474 91.2039C46.474 91.2039 46.1367 90.9518 45.6709 91.1288L45.6762 91.1235Z" fill="#F4ECD7"/>
</g>
</g>
<g id="Group_49">
<path id="Vector_130" d="M73.0684 82.4688C73.0684 82.4688 75.0441 81.7713 76.2006 81.8679C77.3571 81.9591 78.1923 90.4045 78.6207 92.4434L76.1202 92.6902C76.1202 92.6902 75.542 84.3038 73.0684 82.4688Z" fill="#F4ECD7"/>
<path id="Vector_131" d="M73.3201 82.3079C72.2974 82.3079 56.449 86.772 52.3584 92.4917C52.3584 92.4917 54.2806 95.7003 54.6982 97.6748C56.4008 97.7983 58.082 97.6158 59.7525 97.2724C61.8353 96.2154 65.0853 94.7882 67.4358 94.434C70.5038 93.978 76.3773 95.8076 76.6343 93.0605C76.8913 90.3133 74.332 82.3079 73.3147 82.3079H73.3201Z" fill="#FCD246"/>
<g id="Vector_132" style="mix-blend-mode:multiply">
<path d="M58.382 92.2771C58.0929 90.9732 57.6539 89.723 57.3005 88.4407C56.84 88.709 56.3956 88.9826 55.9727 89.267C56.0369 89.4333 56.0904 89.6104 56.1119 89.8089C56.3367 91.7029 57.0649 93.5058 57.3701 95.3944C57.4879 96.1242 57.5521 96.8646 57.6271 97.5997C58.0394 97.5568 58.4516 97.4977 58.8639 97.4334C58.8425 95.7056 58.7622 93.9726 58.382 92.2824V92.2771Z" fill="#FCD246"/>
</g>
<g id="Vector_133" style="mix-blend-mode:multiply">
<path d="M61.9369 86.1174C61.6211 86.2569 61.3052 86.3964 60.9893 86.5413C61.348 88.4085 62.1136 90.1738 62.4777 92.0464C62.724 93.3019 62.8365 94.5682 62.89 95.8398C63.4201 95.6198 63.9608 95.4213 64.5016 95.2282C63.9126 92.1161 63.3665 88.9719 61.9369 86.1174Z" fill="#FCD246"/>
</g>
<g id="Vector_134" style="mix-blend-mode:multiply">
<path d="M73.5885 82.7049C73.5242 82.5815 73.4814 82.4635 73.4439 82.3401C73.4011 82.3186 73.3636 82.3025 73.3261 82.3025C73.1334 82.3025 72.3945 82.4688 71.2969 82.7693C71.8858 84.6526 73.203 86.3911 73.7866 88.2797C74.4077 90.3026 74.8306 92.379 75.0876 94.477C75.4999 94.3911 75.8479 94.2516 76.1103 94.0477C76.1371 90.1845 75.3768 86.1067 73.5885 82.6995V82.7049Z" fill="#FCD246"/>
</g>
<g id="Vector_135" style="mix-blend-mode:multiply">
<path d="M69.3478 87.9256C68.7481 86.5252 68.0093 85.3233 67.4953 83.9658C66.9117 84.1643 66.312 84.379 65.6855 84.6097C67.1151 87.7378 67.7897 91.0108 68.4537 94.3643C69.2354 94.3482 70.1081 94.4126 70.9862 94.477C70.7024 92.2342 70.2205 89.9806 69.3425 87.9256H69.3478Z" fill="#FCD246"/>
</g>
<path id="Vector_136" d="M55.2179 97.7768L53.7455 97.9485L51.8447 92.8351L53.1404 91.3596L53.2261 92.8351L55.2179 97.7768Z" fill="#F4ECD7"/>
</g>
<g id="Group_50">
<g id="Group_51">
<g id="Group_52">
<path id="Vector_137" d="M51.1056 77.5003C51.1056 77.5003 48.5303 77.5808 48.5303 76.7384C48.5303 75.896 49.9384 76.572 49.9384 76.572C49.9384 76.572 47.6843 74.0771 46.8383 73.9375C45.987 73.798 48.0109 71.5016 52.3585 75.2521C52.3585 75.2521 53.0706 77.8651 51.1056 77.4949V77.5003Z" fill="#F6A36A"/>
<path id="Vector_138" d="M55.2601 95.3515C55.2601 95.3515 59.7629 96.8163 64.8601 83.6277C64.8601 83.6277 64.9672 80.1079 62.0385 81.4547C59.1151 82.8068 50.9446 94.5789 55.2547 95.3515H55.2601Z" fill="#FCD246"/>
<path id="Vector_139" d="M64.3302 81.5137C64.3302 81.5137 64.6086 79.668 52.3368 75.2468L51.373 77.4413C51.373 77.4413 60.1914 86.0745 62.9542 85.3394C65.7169 84.6043 64.7692 81.884 64.3248 81.5084L64.3302 81.5137Z" fill="#FCD246"/>
</g>
<path id="Vector_140" opacity="0.46" d="M54.7842 95.4964C54.7842 95.4964 58.8212 95.7111 61.1128 91.5044C63.4044 87.2978 64.2772 84.9209 64.2772 84.9209C64.2772 84.9209 61.9856 91.1771 61.4394 92.3683C60.8933 93.5541 59.1478 95.4964 54.7842 95.4964Z" fill="#DD5829"/>
</g>
<path id="Vector_141" d="M51.1055 77.5003L52.3637 74.9731L53.5738 75.5848L52.278 78.4446L51.1055 77.5003Z" fill="#F4ECD7"/>
</g>
</g>
</g>
</g>
</g>
</g>
</svg>
