<svg width="1658" height="1342" viewBox="0 0 1658 1342" fill="none" xmlns="http://www.w3.org/2000/svg">
<ellipse cx="828.785" cy="670.628" rx="720.252" ry="485.254" transform="rotate(-16.5824 828.785 670.628)" fill="url(#paint0_radial_623_142)"/>
<path d="M1001.92 719.546C1004.32 745.059 1002.74 770.492 997.234 794.943C995.365 802.257 990.631 808.346 984.036 811.92C977.441 815.493 969.504 816.269 961.909 814.083C954.315 811.897 947.66 806.921 943.357 800.211C939.053 793.501 937.441 785.584 938.86 778.141C943.032 759.623 944.242 740.364 942.449 721.041C939.581 692.39 929.933 664.314 914.295 639.115C898.656 613.916 877.473 592.311 852.482 576.071C827.49 559.831 799.402 549.417 770.518 545.684C741.635 541.951 712.778 545.005 686.314 554.595C679.103 557.027 671.004 556.486 663.752 553.088C656.499 549.69 650.669 543.705 647.511 536.415C644.352 529.125 644.117 521.11 646.854 514.085C649.591 507.061 655.084 501.586 662.156 498.833C697.254 486.107 735.527 482.051 773.838 486.996C812.148 491.941 849.405 505.747 882.556 527.282C915.707 548.817 943.808 577.469 964.556 610.888C985.303 644.308 998.107 681.545 1001.92 719.546ZM897.925 741.904C899.856 761.153 897.922 780.96 892.672 799.212C890.536 806.595 885.457 812.613 878.55 815.943C871.644 819.272 863.477 819.641 855.845 816.969C848.213 814.295 841.742 808.799 837.855 801.689C833.969 794.579 832.985 786.438 835.12 779.055C838.453 767.63 839.591 755.537 838.476 743.377C835.931 718.006 823.364 693.926 803.541 676.433C783.718 658.94 758.261 649.467 732.771 650.098C720.737 650.489 709.05 653.111 698.311 657.832C694.812 659.392 690.982 660.223 687.044 660.278C683.106 660.332 679.137 659.609 675.369 658.15C671.6 656.691 668.107 654.524 665.09 651.777C662.074 649.029 659.594 645.755 657.796 642.144C655.997 638.533 654.916 634.656 654.613 630.74C654.311 626.823 654.794 622.943 656.034 619.326C657.275 615.709 659.248 612.426 661.839 609.668C664.431 606.909 667.589 604.73 671.131 603.257C688.501 595.677 707.394 591.495 726.837 590.927C768.094 589.907 809.296 605.241 841.38 633.553C873.465 661.866 893.804 700.84 897.925 741.904ZM1108.43 721.647C1110.56 742.905 1110.68 765.094 1108.89 786.554C1108.19 794.265 1104.41 801.161 1098.38 805.737C1092.34 810.313 1084.55 812.198 1076.68 810.981C1068.82 809.763 1061.53 805.542 1056.41 799.239C1051.29 792.935 1048.74 785.06 1049.33 777.333C1050.82 759.341 1050.76 740.716 1048.98 723.12C1032.73 561.09 887.58 433.005 724.764 437.019C707.988 437.435 689.571 439.759 671.262 443.589C663.642 445.18 655.467 443.651 648.538 439.338C641.608 435.026 636.49 428.283 634.31 420.593C632.131 412.904 633.068 404.897 636.915 398.335C640.763 391.773 647.205 387.192 654.826 385.601C676.416 381.081 698.271 378.358 718.83 377.848C914.478 372.978 1088.92 526.913 1108.43 721.647ZM784.256 746.147C784.841 751.981 784.266 757.785 782.564 763.23C780.861 768.675 778.065 773.654 774.334 777.881C770.604 782.109 766.012 785.503 760.821 787.869C755.63 790.236 749.942 791.528 744.081 791.674C738.221 791.819 732.302 790.814 726.663 788.716C721.025 786.618 715.777 783.468 711.219 779.445C706.661 775.423 702.883 770.608 700.099 765.274C697.316 759.941 695.582 754.193 694.997 748.36C693.816 736.579 697.385 725.164 704.919 716.626C712.453 708.088 723.336 703.127 735.172 702.833C747.009 702.54 758.83 706.939 768.035 715.061C777.24 723.184 783.075 734.366 784.256 746.147Z" fill="url(#paint1_linear_623_142)" fill-opacity="0.15"/>
<defs>
<radialGradient id="paint0_radial_623_142" cx="0" cy="0" r="1" gradientUnits="userSpaceOnUse" gradientTransform="translate(828.785 670.628) rotate(90) scale(485.254 720.252)">
<stop stop-color="#46668E"/>
<stop offset="1" stop-color="#3A5980" stop-opacity="0"/>
</radialGradient>
<linearGradient id="paint1_linear_623_142" x1="1066.68" y1="365.975" x2="661" y2="540" gradientUnits="userSpaceOnUse">
<stop stop-color="#E3E3E3" stop-opacity="0"/>
<stop offset="0.543269" stop-color="#F2F2F2" stop-opacity="0.51"/>
<stop offset="1" stop-color="white" stop-opacity="0"/>
</linearGradient>
</defs>
</svg>
